<?xml version="1.0" standalone="no"?>
<!DOCTYPE svg PUBLIC "-//W3C//DTD SVG 1.1//EN" "http://www.w3.org/Graphics/SVG/1.1/DTD/svg11.dtd" >
<svg xmlns="http://www.w3.org/2000/svg">
<metadata></metadata>
<defs>
<font id="lasiverblack" horiz-adv-x="1755" >
<font-face units-per-em="2048" ascent="1536" descent="-512" />
<missing-glyph horiz-adv-x="442" />
<glyph unicode="&#xfb01;" horiz-adv-x="1368" d="M27 754v313h182v63q0 125 39.5 218.5t112 150t167.5 84t213 27.5q235 0 396 -97l-115 -315q-44 32 -115.5 55t-150.5 23q-78 0 -123 -41.5t-45 -122.5v-45h653v-1067h-381v754h-272v-754h-379v754h-182z" />
<glyph unicode="&#xfb02;" horiz-adv-x="1474" d="M27 754v313h182v70q0 216 130.5 338t369.5 122q91 0 141 -16l-43 -336q-57 17 -92 17q-55 0 -91 -35t-36 -94v-66h219v-313h-219v-754h-379v754h-182zM967 0v1591h381v-1591h-381z" />
<glyph horiz-adv-x="0" />
<glyph horiz-adv-x="682" />
<glyph unicode="&#xd;" horiz-adv-x="1228" />
<glyph unicode=" "  horiz-adv-x="442" />
<glyph unicode="&#x09;" horiz-adv-x="442" />
<glyph unicode="&#xa0;" horiz-adv-x="442" />
<glyph unicode="!" horiz-adv-x="722" d="M139 1532h445l-23 -1028h-401zM141 197q0 92 63.5 156.5t155.5 64.5t157 -64.5t65 -156.5t-65 -156t-157 -64t-155.5 64t-63.5 156z" />
<glyph unicode="&#x22;" horiz-adv-x="976" d="M78 1563h354l-35 -648h-284zM545 1563h354l-35 -648h-284z" />
<glyph unicode="#" horiz-adv-x="1415" d="M10 336l72 301h194l58 244h-195l72 301h195l83 350h310l-84 -350h180l84 350h311l-84 -350h199l-72 -301h-198l-58 -244h199l-72 -301h-198l-80 -336h-310l80 336h-182l-80 -336h-309l80 336h-195zM586 637h182l57 244h-182z" />
<glyph unicode="$" horiz-adv-x="1198" d="M39 358l358 156q24 -87 70 -135.5t111 -48.5q51 0 82.5 32t31.5 89q0 49 -36 84t-144 77q-199 79 -296 187t-97 280t80 291t237 162v240h316v-230q259 -49 344 -332l-371 -123q-20 111 -107 111q-42 0 -65 -25.5t-23 -70.5q0 -14 2 -25t9.5 -22t13 -19t20 -17.5t24 -15.5 t32 -16.5t35.5 -16.5t43 -19t47 -21q180 -71 264 -172t84 -279q0 -182 -92.5 -308.5t-259.5 -172.5v-240h-316v230q-147 28 -244 119t-153 251z" />
<glyph unicode="%" horiz-adv-x="2031" d="M59 1157q0 175 118 286t290 111q171 0 288 -111t117 -286t-117 -286t-288 -111q-172 0 -290 111t-118 286zM336 1157q0 -62 36.5 -99.5t94.5 -37.5q57 0 94 37.5t37 99.5t-37 99.5t-94 37.5q-58 0 -94.5 -37.5t-36.5 -99.5zM352 0l963 1532h364l-962 -1532h-365z M1159 375q0 176 117.5 286.5t288.5 110.5q173 0 290 -110.5t117 -286.5q0 -175 -117.5 -286.5t-289.5 -111.5q-171 0 -288.5 111.5t-117.5 286.5zM1434 375q0 -62 37 -99.5t94 -37.5q58 0 94.5 37.5t36.5 99.5t-36.5 99.5t-94.5 37.5q-57 0 -94 -37.5t-37 -99.5z" />
<glyph unicode="&#x26;" horiz-adv-x="1566" d="M74 430q0 230 280 381q-84 77 -127 150t-43 169q0 198 141.5 311t368.5 113q234 0 372 -108t138 -293q0 -124 -78 -213.5t-219 -167.5l25 -27l119 -127q59 105 102 246l363 -110q-86 -241 -205 -412l319 -342h-483l-88 94q-183 -117 -412 -117q-259 0 -416 127t-157 326z M483 444q0 -64 45 -99.5t125 -35.5q81 0 164 47l-203 219l-24 27q-107 -76 -107 -158zM586 1118q0 -37 22 -65.5t80 -77.5q113 67 113 143q0 46 -28 75.5t-79 29.5t-79.5 -29.5t-28.5 -75.5z" />
<glyph unicode="'" horiz-adv-x="509" d="M78 1563h354l-35 -648h-284z" />
<glyph unicode="(" horiz-adv-x="669" d="M70 655q0 490 241 861l328 -115q-188 -356 -188 -746q0 -389 188 -745l-328 -115q-241 371 -241 860z" />
<glyph unicode=")" horiz-adv-x="669" d="M29 -90q190 350 190 745q0 396 -190 746l327 115q242 -367 242 -861q0 -493 -242 -860z" />
<glyph unicode="*" horiz-adv-x="802" d="M8 1212l66 199l231 -82l-6 244h207l-6 -244l229 82l66 -199l-236 -71l150 -191l-168 -125l-140 203l-137 -205l-168 125l148 193z" />
<glyph unicode="+" horiz-adv-x="1122" d="M61 586v344h316v330h368v-330h318v-344h-318v-328h-368v328h-316z" />
<glyph unicode="," horiz-adv-x="602" d="M90 197q0 93 61.5 157t155.5 64q95 0 149 -66.5t54 -173.5v-2v-2q-3 -342 -367 -520v156q108 65 144 170q-84 8 -140.5 69.5t-56.5 147.5z" />
<glyph unicode="-" horiz-adv-x="837" d="M92 358v357h653v-357h-653z" />
<glyph unicode="." horiz-adv-x="622" d="M90 197q0 92 64.5 156.5t156.5 64.5q91 0 156 -64.5t65 -156.5t-65 -156t-156 -64q-92 0 -156.5 64t-64.5 156z" />
<glyph unicode="/" horiz-adv-x="937" d="M8 -137l522 1669h398l-522 -1669h-398z" />
<glyph unicode="0" horiz-adv-x="1343" d="M72 766q0 376 162.5 582t439.5 206q281 0 439.5 -208t158.5 -580q0 -384 -158.5 -586.5t-439.5 -202.5q-283 0 -442.5 202.5t-159.5 586.5zM481 766q0 -217 46 -324.5t147 -107.5q98 0 143 107.5t45 324.5q0 214 -45 323t-143 109q-100 0 -146.5 -108.5t-46.5 -323.5z " />
<glyph unicode="1" horiz-adv-x="864" d="M49 950v391l359 191h321v-1532h-401v1081z" />
<glyph unicode="2" horiz-adv-x="1138" d="M41 1331q79 102 202 162.5t279 60.5q254 0 398.5 -125.5t144.5 -365.5q0 -99 -32.5 -194.5t-78.5 -166t-115 -141.5t-122 -114t-121 -91h471v-356h-1001v328q101 76 170 131.5t157 135.5t141 144t90.5 138.5t37.5 138.5q0 86 -43 134t-117 48q-65 0 -122.5 -35t-92.5 -90 z" />
<glyph unicode="3" horiz-adv-x="1087" d="M4 203l246 256q26 -57 75 -91t117 -34t115 39.5t47 109.5t-52.5 109t-145.5 39h-99v311h105q75 0 117 34t42 95q0 56 -36 91.5t-91 35.5q-65 0 -111.5 -34t-72.5 -91l-246 256q73 105 185.5 165t251.5 60q240 0 382 -123.5t142 -345.5q0 -182 -137 -299 q170 -120 170 -317q0 -231 -151.5 -361.5t-401.5 -130.5q-148 0 -262.5 60t-188.5 166z" />
<glyph unicode="4" horiz-adv-x="1282" d="M43 279v299l244 954h413l-256 -899h195v344h401v-344h203v-354h-203v-279h-401v279h-596z" />
<glyph unicode="5" horiz-adv-x="1183" d="M92 203l250 256q26 -56 80.5 -90.5t128.5 -34.5q76 0 116 43.5t40 120.5t-39.5 119t-114.5 42q-51 0 -88 -16h-285v889h846v-356h-444v-193q109 0 203 -29t167.5 -86t115.5 -149t42 -209q0 -252 -148 -392.5t-399 -140.5q-155 0 -275.5 60.5t-195.5 165.5z" />
<glyph unicode="6" horiz-adv-x="1265" d="M72 692q0 402 163.5 632t466.5 230q124 0 239 -49t200 -145l-219 -275q-85 113 -220 113q-201 0 -217 -252q82 31 181 31q236 0 381 -130t145 -362q0 -234 -151 -371t-388 -137q-276 0 -420 170q-161 185 -161 545zM481 440q13 -46 49 -75q46 -31 99 -31q67 0 110 45.5 t43 120.5q0 80 -42.5 123t-110.5 43q-85 0 -126.5 -61.5t-21.5 -164.5z" />
<glyph unicode="7" horiz-adv-x="1138" d="M49 0l565 1176h-559v356h1047v-258l-610 -1274h-443z" />
<glyph unicode="8" horiz-adv-x="1280" d="M78 471q0 120 41 199.5t112 144.5q-56 56 -84 120.5t-28 166.5q0 90 34.5 171t98.5 144t164 100t223 37q124 0 224.5 -37t164.5 -100t98.5 -144t34.5 -171q0 -103 -28 -167.5t-84 -119.5q70 -65 110.5 -144t40.5 -200q0 -100 -35 -188t-102 -157t-176.5 -109t-247.5 -40 t-247 40t-176.5 109t-102.5 157t-35 188zM481 498q0 -75 43 -119.5t115 -44.5q73 0 115.5 44.5t42.5 119.5q0 73 -42 116t-116 43q-73 0 -115.5 -43.5t-42.5 -115.5zM522 1075q0 -60 31.5 -93.5t85.5 -33.5q55 0 86 33.5t31 93.5q0 57 -30.5 90t-86.5 33q-55 0 -86 -33.5 t-31 -89.5z" />
<glyph unicode="9" horiz-adv-x="1265" d="M72 1047q0 234 150.5 370.5t387.5 136.5q276 0 420 -170q162 -186 162 -544q0 -402 -164 -632.5t-467 -230.5q-123 0 -237.5 49.5t-200.5 145.5l219 277q84 -115 219 -115q201 0 217 252q-82 -31 -180 -31q-236 0 -381 130t-145 362zM481 1032q0 -80 43 -123t111 -43 q84 0 125.5 61.5t21.5 164.5q-13 46 -49 75q-47 31 -98 31q-67 0 -110.5 -45.5t-43.5 -120.5z" />
<glyph unicode=":" horiz-adv-x="622" d="M90 197q0 92 63.5 156.5t155.5 64.5t156.5 -64.5t64.5 -156.5t-64.5 -156t-156.5 -64t-155.5 64t-63.5 156zM90 868q0 92 64.5 157t156.5 65q91 0 156 -65t65 -157q0 -91 -65 -155t-156 -64q-92 0 -156.5 64t-64.5 155z" />
<glyph unicode=";" horiz-adv-x="622" d="M90 197q0 94 60.5 157.5t154.5 63.5q95 0 150 -67t55 -173v-2v-2q-3 -342 -367 -520v156q108 65 144 170q-85 8 -141 69.5t-56 147.5zM90 868q0 92 64.5 157t156.5 65q91 0 156 -65t65 -157q0 -91 -65 -155t-156 -64q-92 0 -156.5 64t-64.5 155z" />
<glyph unicode="&#x3c;" horiz-adv-x="1130" d="M61 756l1008 592v-433l-268 -159l268 -160v-434z" />
<glyph unicode="=" horiz-adv-x="1122" d="M61 328v356h1002v-356h-1002zM61 838v356h1002v-356h-1002z" />
<glyph unicode="&#x3e;" horiz-adv-x="1130" d="M59 162l2 434l267 160l-267 159l-2 433l1008 -592z" />
<glyph unicode="?" horiz-adv-x="1017" d="M4 1331q174 225 467 225q141 0 258.5 -55t188.5 -160.5t71 -242.5q0 -30 -3 -57.5t-12 -53t-15.5 -44t-22.5 -41t-23.5 -34.5t-29 -33.5l-28 -28t-30.5 -28.5t-28 -26q-20 -18 -47.5 -39.5t-41.5 -33t-28.5 -29.5t-20.5 -40.5t-6 -54.5q0 -23 4 -51h-401q-2 23 -2 63 q0 39 4.5 71t16.5 59t21.5 45t31.5 41.5t34 34.5t43 37t44 38q37 31 52 44.5t38 39.5t32 50.5t9 53.5q0 56 -35 88.5t-96 32.5q-118 0 -199 -129zM236 197q0 92 64 156.5t155 64.5q92 0 156.5 -64.5t64.5 -156.5t-64.5 -156t-156.5 -64q-91 0 -155 64t-64 156z" />
<glyph unicode="@" horiz-adv-x="1632" d="M66 506q0 155 56.5 291t155.5 233t238 153t299 56q159 0 298.5 -56t239 -152.5t157 -233t57.5 -291.5q0 -219 -93.5 -327.5t-267.5 -108.5q-138 0 -219 98q-105 -102 -252 -102q-165 0 -273 114.5t-108 321.5q0 213 107.5 324.5t281.5 111.5q54 0 102.5 -19t80.5 -51v50 h299v-613q0 -72 57 -72q63 0 99 68t36 205q0 125 -46.5 235t-126 189t-191.5 124.5t-238 45.5t-237.5 -45.5t-191 -124.5t-125.5 -189t-46 -235q0 -133 49.5 -246.5t132 -188t187 -116t215.5 -41.5q206 0 360 82l58 -133q-85 -47 -181 -67.5t-237 -20.5q-147 0 -281 53.5 t-234 147.5t-159 232t-59 298zM662 502q0 -94 37.5 -142.5t105.5 -48.5q76 0 121 56v270q-21 18 -32.5 26.5t-37.5 18.5t-55 10q-64 0 -101.5 -53t-37.5 -137z" />
<glyph unicode="A" horiz-adv-x="1726" d="M29 0l624 1532h420l625 -1532h-436l-101 254h-596l-100 -254h-436zM700 596h326l-162 410z" />
<glyph unicode="B" horiz-adv-x="1265" d="M133 0v1532h481q108 0 200 -29.5t161 -85t108 -142t39 -194.5q0 -161 -129 -272q174 -99 174 -336q0 -123 -40 -215t-113 -148t-168.5 -83t-214.5 -27h-498zM535 356h71q69 0 109.5 35.5t40.5 100.5q0 66 -41 101.5t-109 35.5h-71v-273zM535 948h57q54 0 86.5 29.5 t32.5 83.5q0 56 -31.5 85.5t-85.5 29.5h-59v-228z" />
<glyph unicode="C" horiz-adv-x="1495" d="M72 768q0 172 60 319.5t164 249.5t247 159.5t305 57.5q400 0 620 -315l-290 -227q-129 186 -324 186q-174 0 -273.5 -119t-99.5 -311t100 -312t273 -120q196 0 324 188l290 -229q-220 -315 -620 -315q-162 0 -305 58t-247 160.5t-164 250t-60 319.5z" />
<glyph unicode="D" horiz-adv-x="1632" d="M133 0v1532h635q171 0 315 -50.5t249.5 -146t164.5 -242t59 -329.5q0 -182 -59 -328t-164.5 -240.5t-249.5 -145t-315 -50.5h-635zM535 356h233q170 0 274.5 106t104.5 302q0 199 -104.5 305.5t-274.5 106.5h-233v-820z" />
<glyph unicode="E" horiz-adv-x="1073" d="M133 0v1532h828v-356h-426v-222h364v-346h-364v-252h428v-356h-830z" />
<glyph unicode="F" horiz-adv-x="1021" d="M133 0v1532h817v-356h-415v-215h344v-357h-344v-604h-402z" />
<glyph unicode="G" horiz-adv-x="1572" d="M72 768q0 172 58.5 319.5t160.5 249.5t243.5 159.5t303.5 57.5q391 0 614 -315l-291 -227q-62 88 -137.5 137t-177.5 49q-173 0 -269 -118.5t-96 -311.5q0 -192 100 -312t273 -120q117 0 213 70v67h-201v356h602v-575q-235 -274 -620 -274q-162 0 -305 58t-247 160.5 t-164 250t-60 319.5z" />
<glyph unicode="H" horiz-adv-x="1613" d="M133 0v1532h402v-574h544v574h402v-1532h-402v602h-544v-602h-402z" />
<glyph unicode="I" horiz-adv-x="669" d="M133 0v1532h402v-1532h-402z" />
<glyph unicode="J" horiz-adv-x="1142" d="M-4 430l383 78q11 -89 39 -131.5t86 -42.5q53 0 82.5 36.5t29.5 104.5v1057h402v-1010q0 -136 -42 -242.5t-114 -171.5t-163 -98t-195 -33q-211 0 -341 115t-167 338z" />
<glyph unicode="K" horiz-adv-x="1527" d="M133 0v1532h402v-571l426 571h501l-497 -658l561 -874h-479l-361 575l-151 -180v-395h-402z" />
<glyph unicode="L" horiz-adv-x="1036" d="M133 0v1532h402v-1176h436v-356h-838z" />
<glyph unicode="M" horiz-adv-x="2025" d="M133 0v1532h408l473 -959l471 959h407v-1532h-403v705l-332 -705h-289l-333 705v-705h-402z" />
<glyph unicode="N" horiz-adv-x="1613" d="M133 0v1532h381l565 -821v821h402v-1532h-381l-565 829v-829h-402z" />
<glyph unicode="O" d="M72 768q0 230 104 409.5t287 278t414 98.5q232 0 415.5 -98.5t287 -278t103.5 -409.5t-103.5 -410t-287.5 -279t-415 -99t-414 99t-287 279t-104 410zM481 768q0 -190 109 -311t287 -121q179 0 287 121t108 311t-108.5 310t-286.5 120t-287 -120.5t-109 -309.5z" />
<glyph unicode="P" horiz-adv-x="1269" d="M133 0v1532h510q248 0 390.5 -129t142.5 -371q0 -243 -142.5 -372.5t-390.5 -129.5h-108v-530h-402zM535 887h83q67 0 107.5 38.5t40.5 106.5q0 67 -40.5 105.5t-107.5 38.5h-83v-289z" />
<glyph unicode="Q" d="M72 768q0 230 104 409.5t287 278t414 98.5q232 0 415.5 -98.5t287 -278t103.5 -409.5q0 -319 -194 -532l377 -482h-508l-209 266q-124 -40 -272 -40q-231 0 -414 99t-287 279t-104 410zM481 768q0 -190 109 -311t287 -121h24l-119 151l318 246l131 -168q41 90 41 203 q0 190 -108.5 310t-286.5 120t-287 -120.5t-109 -309.5z" />
<glyph unicode="R" horiz-adv-x="1333" d="M133 0v1532h510q248 0 390.5 -129t142.5 -371q0 -268 -175 -397l287 -635h-442l-236 530h-75v-530h-402zM535 887h86q67 0 106 38.5t39 106.5q0 67 -39.5 105.5t-105.5 38.5h-86v-289z" />
<glyph unicode="S" horiz-adv-x="1198" d="M39 358l358 156q24 -87 70 -135.5t111 -48.5q51 0 82.5 32t31.5 89q0 49 -36 84t-144 77q-199 79 -296 187t-97 280q0 218 127 346.5t375 128.5q188 0 305.5 -85t169.5 -259l-371 -123q-20 111 -107 111q-42 0 -65 -25.5t-23 -70.5q0 -14 2 -25t9.5 -22t13 -19t20 -17.5 t24 -15.5t32 -16.5t35.5 -16.5t43 -19t47 -21q119 -48 191.5 -102.5t113.5 -141t41 -207.5q0 -227 -141.5 -365.5t-387.5 -138.5q-208 0 -337 94t-197 289z" />
<glyph unicode="T" horiz-adv-x="1439" d="M41 1176v356h1358v-356h-477v-1176h-402v1176h-479z" />
<glyph unicode="U" horiz-adv-x="1605" d="M123 651v881h401v-875q0 -323 279 -323q276 0 276 323v875h402v-881q0 -318 -180 -496t-498 -178q-319 0 -499.5 178.5t-180.5 495.5z" />
<glyph unicode="V" horiz-adv-x="1695" d="M29 1532h432l387 -975l389 975h432l-616 -1532h-408z" />
<glyph unicode="W" horiz-adv-x="2459" d="M41 1532h426l332 -1000l272 1000h318l272 -1000l332 1000h428l-549 -1532h-408l-233 739l-236 -739h-407z" />
<glyph unicode="X" horiz-adv-x="1538" d="M29 0l442 778l-416 754h465l250 -485l248 485h465l-416 -754l444 -778h-464l-277 512l-278 -512h-463z" />
<glyph unicode="Y" horiz-adv-x="1636" d="M16 1532h467l334 -594l336 594h467l-600 -993v-539h-402v539z" />
<glyph unicode="Z" horiz-adv-x="1335" d="M78 0v313l653 863h-651v356h1155v-313l-651 -863h680v-356h-1186z" />
<glyph unicode="[" horiz-adv-x="688" d="M100 -158v1628h547v-315h-168v-997h168v-316h-547z" />
<glyph unicode="\" horiz-adv-x="937" d="M8 1532h400l520 -1669h-398z" />
<glyph unicode="]" horiz-adv-x="688" d="M41 -158v316h166v997h-166v315h545v-1628h-545z" />
<glyph unicode="^" horiz-adv-x="1275" d="M49 760l590 815l588 -815h-432l-156 227l-158 -227h-432z" />
<glyph unicode="_" horiz-adv-x="1415" d="M92 0h1231v-356h-1231v356z" />
<glyph unicode="`" horiz-adv-x="591" d="M6 1622h430l148 -391h-295z" />
<glyph unicode="a" horiz-adv-x="1105" d="M80 299q0 152 107.5 243t279.5 91q67 0 141 -17v48q0 52 -26 82t-76 30q-55 0 -90.5 -24.5t-67.5 -71.5l-239 213q81 100 186 148.5t250 48.5q198 0 321 -107t123 -299v-684h-350l-8 78q-93 -101 -244 -101q-132 0 -219.5 88t-87.5 234zM465 330q0 -74 76 -74q41 0 71 23 v124q-33 13 -65 13q-35 0 -58.5 -24.5t-23.5 -61.5z" />
<glyph unicode="b" horiz-adv-x="1312" d="M127 0v1591h381v-561q78 60 223 60q105 0 195.5 -34.5t161.5 -101t112 -174.5t41 -245q0 -133 -40 -241t-108 -176t-155 -104.5t-184 -36.5q-99 0 -159.5 26t-111.5 73l-2 -76h-354zM508 367q57 -76 158 -76q86 0 138 63t52 181q0 117 -52 179t-138 62q-101 0 -158 -76 v-333z" />
<glyph unicode="c" horiz-adv-x="1103" d="M74 535q0 168 77 296t203.5 193.5t280.5 65.5q282 0 440 -234l-276 -188q-20 44 -61.5 76t-98.5 32q-86 0 -134 -65t-48 -176q0 -112 48.5 -178t133.5 -66q57 0 98.5 32.5t61.5 77.5l276 -188q-158 -236 -440 -236q-114 0 -216 39t-179 109t-121.5 176.5t-44.5 233.5z " />
<glyph unicode="d" horiz-adv-x="1312" d="M74 535q0 137 40.5 245t111 174.5t161 101t195.5 34.5q143 0 225 -60v561h379v-1591h-355l-2 76q-51 -48 -110.5 -73.5t-157.5 -25.5t-185 36.5t-155 104.5t-107.5 176t-39.5 241zM457 535q0 -118 52.5 -181t137.5 -63q101 0 158 76v333q-57 76 -158 76 q-85 0 -137.5 -62.5t-52.5 -178.5z" />
<glyph unicode="e" horiz-adv-x="1132" d="M74 526q0 136 43 245t116 177.5t166.5 105t198.5 36.5q259 0 374 -166q84 -121 84 -320q0 -74 -12 -160h-587v-4q0 -67 47.5 -113t124.5 -46q66 0 104.5 23.5t75.5 72.5l238 -209q-69 -93 -179.5 -142t-240.5 -49q-113 0 -212 34.5t-175.5 100.5t-121 172.5t-44.5 241.5z M457 653h223q2 16 2 30q0 47 -20 81q-26 44 -82 43.5t-89.5 -42t-33.5 -101.5v-11z" />
<glyph unicode="f" horiz-adv-x="839" d="M27 754v313h182v70q0 216 130.5 338t367.5 122q91 0 141 -16l-43 -336q-51 17 -90 17q-55 0 -91 -35t-36 -94v-66h219v-313h-219v-754h-379v754h-182z" />
<glyph unicode="g" horiz-adv-x="1316" d="M74 535q0 133 39.5 240.5t107.5 175t155 103.5t185 36q97 0 156.5 -25.5t111.5 -71.5l2 74h355v-1087q0 -151 -74 -270.5t-206.5 -186t-299.5 -66.5q-155 0 -287 53t-215 156l258 244q34 -41 62.5 -66.5t78.5 -45t113 -19.5q191 0 191 168v90q-82 -60 -225 -60 q-105 0 -195.5 34.5t-161 101.5t-111 175.5t-40.5 246.5zM457 535q0 -118 52.5 -181t137.5 -63q101 0 158 76v333q-57 76 -158 76q-85 0 -137.5 -62.5t-52.5 -178.5z" />
<glyph unicode="h" horiz-adv-x="1263" d="M127 0v1591h381v-598q90 97 258 97t274.5 -109t106.5 -297v-684h-379v614q0 52 -31 85.5t-84 33.5q-81 0 -145 -71v-662h-381z" />
<glyph unicode="i" horiz-adv-x="634" d="M109 1395q0 87 61.5 149t146.5 62q86 0 147.5 -61.5t61.5 -149.5q0 -86 -61.5 -147.5t-147.5 -61.5q-87 0 -147.5 61t-60.5 148zM127 0v1067h381v-1067h-381z" />
<glyph unicode="j" horiz-adv-x="634" d="M-334 -350l293 217q15 -37 34.5 -57.5t53.5 -20.5q80 0 80 98v1180h381v-1169q0 -147 -60 -248.5t-159 -148t-228 -46.5q-262 0 -395 195zM109 1395q0 88 60.5 149.5t147.5 61.5q86 0 147.5 -61.5t61.5 -149.5q0 -86 -61.5 -147.5t-147.5 -61.5q-87 0 -147.5 61 t-60.5 148z" />
<glyph unicode="k" horiz-adv-x="1259" d="M127 0v1591h381v-854l262 330h461l-367 -438l385 -629h-446l-207 346l-88 -94v-252h-381z" />
<glyph unicode="l" horiz-adv-x="634" d="M127 0v1591h381v-1591h-381z" />
<glyph unicode="m" horiz-adv-x="1882" d="M127 0v1067h365v-92q75 115 268 115q99 0 178.5 -38t128.5 -110q103 148 322 148q168 0 272 -108.5t104 -297.5v-684h-379v618q0 115 -98 115q-83 0 -149 -69l-2 6v-670h-381v618q0 115 -99 115q-84 0 -149 -71v-662h-381z" />
<glyph unicode="n" horiz-adv-x="1263" d="M127 0v1067h365v-92q33 51 102 83t172 32q168 0 274.5 -109t106.5 -297v-684h-379v614q0 52 -31 85.5t-84 33.5q-81 0 -145 -71v-662h-381z" />
<glyph unicode="o" horiz-adv-x="1284" d="M74 535q0 123 44.5 227.5t121.5 176t181.5 111.5t221.5 40q156 0 285.5 -68t206.5 -196t77 -291q0 -164 -77 -292.5t-206.5 -197t-285.5 -68.5q-157 0 -286.5 68.5t-206 197t-76.5 292.5zM457 535q0 -110 50.5 -177t135.5 -67q83 0 133.5 67t50.5 177q0 109 -50.5 175 t-133.5 66q-85 0 -135.5 -66t-50.5 -175z" />
<glyph unicode="p" horiz-adv-x="1312" d="M127 -522v1589h354l2 -74q52 46 112 71.5t159 25.5q97 0 184 -36t155 -103.5t108 -175t40 -240.5q0 -138 -41 -246.5t-112 -175.5t-161.5 -101.5t-195.5 -34.5q-145 0 -223 60v-559h-381zM508 367q57 -76 158 -76q86 0 138 63t52 181q0 117 -52 179t-138 62 q-101 0 -158 -76v-333z" />
<glyph unicode="q" horiz-adv-x="1312" d="M74 535q0 133 39.5 240.5t107.5 175t155 103.5t185 36q97 0 156.5 -25.5t111.5 -71.5l2 74h355v-1589h-379v559q-82 -60 -225 -60q-105 0 -195.5 34.5t-161 101.5t-111 175.5t-40.5 246.5zM457 535q0 -118 52.5 -181t137.5 -63q101 0 158 76v333q-57 76 -158 76 q-85 0 -137.5 -62.5t-52.5 -178.5z" />
<glyph unicode="r" horiz-adv-x="843" d="M127 0v1067h381v-115q109 121 307 121l-20 -381q-100 0 -160.5 -16t-126.5 -66v-610h-381z" />
<glyph unicode="s" horiz-adv-x="964" d="M47 248l305 119q7 -50 32.5 -84.5t68.5 -34.5q24 0 41.5 16t17.5 43t-22.5 48t-79.5 42q-332 122 -332 353q0 148 115.5 244t295.5 96q146 0 252 -70t133 -193l-299 -96q-6 88 -65 88q-25 0 -40 -16.5t-15 -42.5q0 -28 26 -46t107 -55q62 -25 101.5 -44t82 -47.5t66 -59 t38.5 -75t15 -99.5q0 -158 -125 -257.5t-301 -99.5q-162 0 -264.5 67t-153.5 204z" />
<glyph unicode="t" horiz-adv-x="901" d="M37 754v313h201l2 324h381l-3 -324h218v-313h-220l-2 -332q0 -41 21.5 -66.5t58.5 -25.5q47 0 84 30l113 -305q-36 -26 -100.5 -43.5t-145.5 -17.5q-183 0 -298 95.5t-114 285.5l3 379h-199z" />
<glyph unicode="u" horiz-adv-x="1239" d="M117 459v608h381v-616q0 -59 33 -94t90 -35q58 0 90 35t32 94v616h379v-608q0 -210 -137 -346t-364 -136q-226 0 -365 136t-139 346z" />
<glyph unicode="v" horiz-adv-x="1202" d="M8 1067h408l184 -612l186 612h408l-379 -1067h-430z" />
<glyph unicode="w" horiz-adv-x="1746" d="M8 1067h404l145 -610l176 610h281l176 -610l145 610h404l-342 -1067h-369l-156 473l-153 -473h-369z" />
<glyph unicode="x" horiz-adv-x="1185" d="M39 1067h422l129 -285l133 285h422l-283 -532l283 -535h-426l-129 281l-125 -281h-424l281 532z" />
<glyph unicode="y" horiz-adv-x="1202" d="M8 1067h408l184 -588l186 588h408l-606 -1589h-402l215 555z" />
<glyph unicode="z" horiz-adv-x="966" d="M68 0v240l340 522h-332v305h821v-240l-354 -522h364v-305h-839z" />
<glyph unicode="{" horiz-adv-x="690" d="M29 502v309h16q67 0 91.5 11.5t26.5 47t-18 101.5q-22 103 -7.5 184t56.5 140.5t109.5 98t151 57.5t182.5 19h12v-315h-12q-85 0 -109.5 -43.5t-9.5 -177.5q10 -55 6.5 -104t-18.5 -86t-53.5 -60t-98.5 -27q60 -4 98.5 -27.5t53.5 -60.5t18.5 -86t-6.5 -104 q-15 -134 9.5 -177.5t109.5 -43.5h12v-316h-12q-99 0 -182.5 19t-151 58t-109.5 98.5t-56.5 140.5t7.5 184q20 66 18 101.5t-26.5 47t-91.5 11.5h-16z" />
<glyph unicode="|" horiz-adv-x="636" d="M129 -137v1669h379v-1669h-379z" />
<glyph unicode="}" horiz-adv-x="690" d="M41 -158v316h12q85 0 109.5 43.5t9.5 177.5q-10 55 -6.5 104t18.5 86t53.5 60.5t98.5 27.5q-60 4 -98.5 27t-53.5 60t-18.5 86t6.5 104q15 134 -9.5 177.5t-109.5 43.5h-12v315h12q99 0 182.5 -19t151 -57.5t109.5 -98t56.5 -140.5t-7.5 -184q-20 -66 -18 -101.5 t26.5 -47t91.5 -11.5h17v-309h-17q-67 0 -91.5 -11.5t-26.5 -47t18 -101.5q22 -103 7.5 -184t-56.5 -140.5t-109.5 -98.5t-151 -58t-182.5 -19h-12z" />
<glyph unicode="~" horiz-adv-x="1124" d="M6 791q150 200 346 200q54 0 109 -17t93 -38t88 -38t95 -17q68 0 118 22t95 78l168 -252q-148 -201 -342 -201q-54 0 -108.5 17.5t-92.5 38t-88.5 38t-95.5 17.5q-70 0 -120.5 -22t-94.5 -78z" />
<glyph unicode="&#xa1;" horiz-adv-x="722" d="M139 -508l21 1028h401l23 -1028h-445zM141 827q0 92 64.5 156t156.5 64t156 -64t64 -156t-64 -156.5t-156 -64.5t-156.5 64.5t-64.5 156.5z" />
<glyph unicode="&#xa2;" horiz-adv-x="1105" d="M74 535q0 204 109 344.5t284 187.5v217h315v-211q177 -45 293 -217l-274 -188q-22 44 -63.5 76t-98.5 32q-85 0 -132.5 -64.5t-47.5 -176.5t47.5 -178t132.5 -66q57 0 99 32t63 78l274 -188q-116 -173 -293 -219v-236h-315v242q-175 47 -284 188t-109 347z" />
<glyph unicode="&#xa3;" horiz-adv-x="1165" d="M49 0v328q42 4 66.5 10t51.5 22.5t40 44t20.5 75.5t3.5 116h-176v315h146l-8 74q-27 266 109.5 417.5t387.5 151.5q298 0 457 -223l-250 -239q-79 106 -182 106q-80 0 -116.5 -49.5t-27.5 -138.5l11 -99h274v-315h-246q3 -94 -15 -146t-60 -94h593v-356h-1079z" />
<glyph unicode="&#xa4;" horiz-adv-x="1249" d="M29 137l223 223q-27 79 -27 156t27 156l-223 225l237 240l228 -228q72 21 131 21t131 -21l227 228l240 -240l-226 -225q27 -79 27 -156q0 -84 -27 -154l226 -225l-240 -239l-225 227q-72 -21 -133 -21q-69 0 -131 21l-228 -227zM535 516q0 -68 23 -105.5t67 -37.5 t67 37.5t23 105.5q0 143 -90 143q-43 0 -66.5 -37t-23.5 -106z" />
<glyph unicode="&#xa5;" horiz-adv-x="1636" d="M16 1532h467l336 -594l334 594h467l-483 -799h147v-233h-264v-103h264v-233h-264v-164h-402v164h-264v233h264v103h-264v233h146z" />
<glyph unicode="&#xa6;" horiz-adv-x="636" d="M129 -137v653h379v-653h-379zM129 879v653h379v-653h-379z" />
<glyph unicode="&#xa7;" horiz-adv-x="1101" d="M33 707q0 157 151 251q-114 78 -114 238q0 159 131 258.5t348 99.5q163 0 276 -69t140 -193l-299 -108q-3 45 -33 73.5t-82 28.5q-46 0 -73 -18t-27 -49q0 -36 30.5 -59t124.5 -40q97 -17 164 -33.5t128 -42t96.5 -58t56 -79.5t20.5 -108q0 -159 -149 -252 q114 -75 114 -238q0 -160 -139.5 -263t-359.5 -103q-366 0 -467 272l305 129q11 -56 54.5 -94.5t109.5 -38.5q118 0 118 78q0 30 -31 51.5t-128 42.5q-81 17 -135.5 30.5t-112.5 33t-94 42.5t-66 54t-43.5 72t-13.5 92zM383 758q0 -44 57 -68.5t205 -52.5q38 25 57 49t19 59 q0 47 -56 70.5t-206 50.5q-38 -25 -57 -49t-19 -59z" />
<glyph unicode="&#xa8;" horiz-adv-x="866" d="M6 1389q0 82 58 139t141 57q85 0 143 -57t58 -139q0 -85 -58 -142t-143 -57q-84 0 -141.5 57.5t-57.5 141.5zM461 1389q0 82 57.5 139t140.5 57t142 -57t59 -139q0 -84 -58.5 -141.5t-142.5 -57.5q-83 0 -140.5 57t-57.5 142z" />
<glyph unicode="&#xa9;" horiz-adv-x="1234" d="M49 1034q0 227 160 377t409 150q244 0 405 -150.5t161 -376.5q0 -229 -161 -379.5t-405 -150.5q-249 0 -409 150t-160 380zM197 1034q0 -181 115.5 -292t305.5 -111q188 0 305 111.5t117 291.5q0 178 -117 289t-305 111q-190 0 -305.5 -110.5t-115.5 -289.5zM307 1038 q0 141 93 230.5t235 89.5q157 0 248 -129l-127 -123q-26 36 -50.5 53t-62.5 17q-57 0 -91 -37.5t-34 -100.5t34 -102t91 -39q39 0 63.5 16.5t49.5 53.5l127 -125q-92 -127 -248 -127q-142 0 -235 90.5t-93 232.5z" />
<glyph unicode="&#xaa;" horiz-adv-x="888" d="M63 918q0 122 86 194t224 72q49 0 108 -13v33q0 84 -75 84q-43 0 -70 -19.5t-51 -58.5l-199 179q64 83 148.5 122t203.5 39q161 0 262 -86.5t101 -240.5v-547h-297l-2 57q-37 -35 -80.5 -55.5t-112.5 -20.5q-107 0 -176.5 71t-69.5 190zM383 944q0 -53 51 -53q32 0 47 12 v90q-19 8 -45 8q-24 0 -38.5 -15.5t-14.5 -41.5z" />
<glyph unicode="&#xab;" horiz-adv-x="1259" d="M31 535l311 503l305 -186l-196 -317l196 -318l-305 -186zM614 535l312 503l303 -186l-195 -317l195 -318l-303 -186z" />
<glyph unicode="&#xac;" horiz-adv-x="1296" d="M59 676v295h1168v-695h-295v400h-873z" />
<glyph unicode="&#xad;" horiz-adv-x="837" d="M92 358v357h653v-357h-653z" />
<glyph unicode="&#xae;" horiz-adv-x="1234" d="M49 1034q0 227 160 377t409 150q244 0 405 -150.5t161 -376.5q0 -229 -161 -379.5t-405 -150.5q-249 0 -409 150t-160 380zM197 1034q0 -181 115.5 -292t305.5 -111q188 0 305 111.5t117 291.5q0 178 -117 289t-305 111q-190 0 -305.5 -110.5t-115.5 -289.5zM362 723v627 h279q109 0 173.5 -54.5t64.5 -160.5q0 -110 -78 -168l94 -244h-221l-74 199h-33v-199h-205zM569 1087h58q43 0 43 48q0 49 -43 49h-58v-97z" />
<glyph unicode="&#xaf;" horiz-adv-x="679" d="M8 1245v291h664v-291h-664z" />
<glyph unicode="&#xb0;" horiz-adv-x="811" d="M49 1208q0 158 101 251t256 93t255.5 -93t100.5 -251q0 -156 -102 -250t-254 -94q-156 0 -256.5 93.5t-100.5 250.5zM307 1208q0 -52 28.5 -82t70.5 -30q40 0 69 30t29 82q0 53 -29 84t-69 31q-42 0 -70.5 -31t-28.5 -84z" />
<glyph unicode="&#xb1;" horiz-adv-x="1122" d="M61 55v357h1002v-357h-1002zM61 829v345h316v329h368v-329h318v-345h-318v-327h-368v327h-316z" />
<glyph unicode="&#xb4;" horiz-adv-x="591" d="M8 1231l146 391h430l-283 -391h-293z" />
<glyph unicode="&#xb6;" horiz-adv-x="1515" d="M57 1135q0 198 126.5 297.5t340.5 99.5h961v-279h-144v-1390h-292v1390h-150v-1390h-293v876h-82q-218 0 -342.5 101.5t-124.5 294.5z" />
<glyph unicode="&#xb7;" horiz-adv-x="622" d="M90 700q0 92 64.5 157t156.5 65q91 0 156 -65t65 -157t-65 -155.5t-156 -63.5q-92 0 -156.5 63.5t-64.5 155.5z" />
<glyph unicode="&#xb8;" horiz-adv-x="561" d="M18 -487l56 182q34 -21 88 -21q31 0 57.5 14t26.5 44t-23.5 45.5t-56.5 15.5q-48 0 -78 -12l86 250h145l-28 -113q94 -5 166.5 -66t72.5 -163q0 -106 -88.5 -159.5t-214.5 -53.5q-130 0 -209 37z" />
<glyph unicode="&#xba;" horiz-adv-x="1030" d="M57 1102q0 198 133 323t326 125q126 0 230 -55t165.5 -158t61.5 -235q0 -196 -132 -320.5t-325 -124.5q-126 0 -230.5 55t-166.5 157.5t-62 232.5zM377 1102q0 -84 36.5 -133t100.5 -49q63 0 100 49.5t37 132.5q0 85 -37 135.5t-100 50.5q-64 0 -100.5 -50.5 t-36.5 -135.5z" />
<glyph unicode="&#xbb;" horiz-adv-x="1259" d="M29 217l196 318l-196 317l305 186l311 -503l-311 -504zM612 217l197 318l-197 317l306 186l311 -503l-311 -504z" />
<glyph unicode="&#xbc;" horiz-adv-x="1779" d="M33 1159v273l200 100h224v-873h-281v562zM96 0l1008 1532h387l-1010 -1532h-385zM1049 133v209l104 530h289l-113 -491h45v176h281v-176h96v-248h-96v-133h-281v133h-325z" />
<glyph unicode="&#xbd;" horiz-adv-x="1705" d="M33 1159v273l200 100h224v-873h-281v562zM96 0l1008 1532h387l-1010 -1532h-385zM1057 764q46 55 118.5 89t161.5 34q156 0 243 -73t87 -218q0 -65 -25 -126.5t-63 -105t-72.5 -71.5t-64.5 -45h223v-248h-590v227q56 38 105 77t98.5 85.5t78.5 92.5t29 83q0 76 -63 76 q-26 0 -52.5 -17t-43.5 -40z" />
<glyph unicode="&#xbe;" horiz-adv-x="1867" d="M4 772l168 178q10 -25 32 -43t50 -18q24 0 41.5 14t17.5 41q0 51 -80 51h-51v215h58q57 0 57 45q0 18 -12.5 30.5t-28.5 12.5q-28 0 -49 -18t-29 -43l-170 178q40 59 105.5 94t146.5 35q147 0 232.5 -73t85.5 -207q0 -94 -54 -160q68 -71 68 -172q0 -136 -89.5 -212.5 t-240.5 -76.5q-83 0 -150 35t-108 94zM182 0l1008 1532h387l-1010 -1532h-385zM1135 133v209l104 530h289l-113 -491h45v176h281v-176h96v-248h-96v-133h-281v133h-325z" />
<glyph unicode="&#xbf;" horiz-adv-x="1017" d="M29 -31q0 30 3 57.5t12 53t15.5 44t22.5 41t23.5 34.5t29 33.5l28 28t30.5 28.5t28 26q21 19 57.5 47.5t50 42t26 42t12.5 67.5q0 11 -5 51h402q2 -25 2 -65q0 -39 -4.5 -70.5t-17 -59.5t-21 -45t-32 -41.5t-34 -34t-43.5 -36.5t-45 -37q-45 -38 -67 -59.5t-42 -56.5 t-20 -72q0 -56 34.5 -88.5t94.5 -32.5q118 0 201 127l244 -258q-177 -225 -465 -225q-142 0 -260 55t-189 160.5t-71 242.5zM342 870q0 92 64.5 156t156.5 64t155.5 -64t63.5 -156q0 -91 -63.5 -156t-155.5 -65t-156.5 65t-64.5 156z" />
<glyph unicode="&#xc0;" horiz-adv-x="1726" d="M29 0l624 1532h422l625 -1532h-436l-101 254h-598l-100 -254h-436zM268 1960h516l236 -332h-342zM700 596h324l-162 410z" />
<glyph unicode="&#xc1;" horiz-adv-x="1726" d="M29 0l624 1532h422l625 -1532h-436l-101 254h-598l-100 -254h-436zM692 1628l234 332h516l-408 -332h-342zM700 596h324l-162 410z" />
<glyph unicode="&#xc2;" horiz-adv-x="1726" d="M29 0l624 1532h422l625 -1532h-436l-101 254h-598l-100 -254h-436zM444 1628l234 350h369l235 -350h-317l-103 133l-102 -133h-316zM700 596h324l-162 410z" />
<glyph unicode="&#xc3;" horiz-adv-x="1726" d="M29 0l624 1532h422l625 -1532h-436l-101 254h-598l-100 -254h-436zM465 1628q-16 148 52.5 258.5t191.5 110.5q56 0 105.5 -25.5t89 -50.5t71.5 -25q76 0 76 86h211q16 -148 -52.5 -258t-191.5 -110q-45 0 -86.5 15.5t-67.5 33.5t-56.5 33.5t-55.5 15.5q-76 0 -76 -84 h-211zM700 596h324l-162 410z" />
<glyph unicode="&#xc4;" horiz-adv-x="1726" d="M29 0l624 1532h422l625 -1532h-436l-101 254h-598l-100 -254h-436zM438 1812q0 82 58 139.5t141 57.5q84 0 142.5 -57.5t58.5 -139.5q0 -84 -58 -141t-143 -57q-84 0 -141.5 57t-57.5 141zM700 596h324l-162 410zM893 1812q0 82 58 139.5t141 57.5t141.5 -57.5 t58.5 -139.5q0 -84 -58 -141t-142 -57t-141.5 57t-57.5 141z" />
<glyph unicode="&#xc5;" horiz-adv-x="1726" d="M29 0l624 1532h422l625 -1532h-436l-101 254h-598l-100 -254h-436zM610 1858q0 101 72.5 166t179.5 65q105 0 176.5 -65t71.5 -166q0 -100 -72 -167t-176 -67q-107 0 -179.5 66.5t-72.5 167.5zM700 596h324l-162 410zM793 1858q0 -30 18 -49t51 -19q30 0 49 19t19 49 q0 31 -18.5 50t-49.5 19q-33 0 -51 -19t-18 -50z" />
<glyph unicode="&#xc6;" horiz-adv-x="2119" d="M8 0l1075 1532h924v-356h-424v-222h365v-346h-365v-252h426v-356h-827v254h-514l-172 -254h-488zM907 596h275v412z" />
<glyph unicode="&#xc7;" horiz-adv-x="1495" d="M72 768q0 172 60 319.5t164 249.5t247 159.5t305 57.5q400 0 620 -315l-290 -227q-129 186 -324 186q-174 0 -273.5 -119t-99.5 -311t100 -312t273 -120q196 0 324 188l290 -229q-208 -296 -573 -313l-18 -74q93 -5 166 -66.5t73 -163.5q0 -106 -88.5 -159.5 t-214.5 -53.5q-130 0 -209 37l55 183q35 -21 89 -21q31 0 57 13.5t26 43.5t-23.5 46t-55.5 16q-48 0 -78 -12l74 215q-144 17 -268.5 81.5t-214.5 165t-141.5 239t-51.5 296.5z" />
<glyph unicode="&#xc8;" horiz-adv-x="1073" d="M-49 1960h516l235 -332h-342zM133 0v1532h825v-356h-423v-222h364v-346h-364v-252h426v-356h-828z" />
<glyph unicode="&#xc9;" horiz-adv-x="1073" d="M133 0v1532h825v-356h-423v-222h364v-346h-364v-252h426v-356h-828zM375 1628l233 332h516l-407 -332h-342z" />
<glyph unicode="&#xca;" horiz-adv-x="1073" d="M127 1628l233 350h369l236 -350h-318l-102 133l-103 -133h-315zM133 0v1532h825v-356h-423v-222h364v-346h-364v-252h426v-356h-828z" />
<glyph unicode="&#xcb;" horiz-adv-x="1073" d="M121 1812q0 82 57.5 139.5t140.5 57.5q84 0 142.5 -57.5t58.5 -139.5q0 -84 -58 -141t-143 -57q-84 0 -141 57t-57 141zM133 0v1532h825v-356h-423v-222h364v-346h-364v-252h426v-356h-828zM575 1812q0 82 58 139.5t141 57.5t142 -57.5t59 -139.5q0 -84 -58.5 -141 t-142.5 -57t-141.5 57t-57.5 141z" />
<glyph unicode="&#xcc;" horiz-adv-x="669" d="M-248 1960h516l236 -332h-342zM133 0v1532h402v-1532h-402z" />
<glyph unicode="&#xcd;" horiz-adv-x="669" d="M133 0v1532h402v-1532h-402zM174 1628l234 332h516l-408 -332h-342z" />
<glyph unicode="&#xce;" horiz-adv-x="669" d="M-72 1628l234 350h368l236 -350h-317l-103 133l-102 -133h-316zM133 0v1532h402v-1532h-402z" />
<glyph unicode="&#xcf;" horiz-adv-x="669" d="M-78 1812q0 82 58 139.5t141 57.5q84 0 142.5 -57.5t58.5 -139.5q0 -84 -58 -141t-143 -57q-84 0 -141.5 57t-57.5 141zM133 0v1532h402v-1532h-402zM377 1812q0 82 57.5 139.5t140.5 57.5t142 -57.5t59 -139.5q0 -84 -58.5 -141t-142.5 -57t-141 57t-57 141z" />
<glyph unicode="&#xd0;" horiz-adv-x="1632" d="M2 612v306h131v614h635q171 0 315 -50.5t249.5 -146t164.5 -242t59 -329.5q0 -182 -59 -328t-164.5 -240.5t-249.5 -145t-315 -50.5h-635v612h-131zM535 356h233q169 0 273 106t104 302q0 199 -104 305.5t-273 106.5h-233v-258h180v-306h-180v-256z" />
<glyph unicode="&#xd1;" horiz-adv-x="1613" d="M133 0v1532h379l565 -821v821h402v-1532h-379l-565 829v-829h-402zM410 1628q-16 148 52 258.5t191 110.5q44 0 85.5 -16t67.5 -34.5t57 -34.5t57 -16q75 0 75 86h211q16 -148 -52 -258t-191 -110q-45 0 -86.5 15.5t-67.5 33.5t-57 33.5t-56 15.5q-75 0 -75 -84h-211z " />
<glyph unicode="&#xd2;" d="M72 768q0 230 104 409.5t287 278t414 98.5q232 0 415.5 -98.5t287 -278t103.5 -409.5t-103.5 -410t-287.5 -279t-415 -99t-414 99t-287 279t-104 410zM283 1960h516l235 -332h-342zM481 768q0 -190 109 -311t287 -121t286.5 121t108.5 311t-108.5 310t-286.5 120 t-287 -120.5t-109 -309.5z" />
<glyph unicode="&#xd3;" d="M72 768q0 230 104 409.5t287 278t414 98.5q232 0 415.5 -98.5t287 -278t103.5 -409.5t-103.5 -410t-287.5 -279t-415 -99t-414 99t-287 279t-104 410zM481 768q0 -190 109 -311t287 -121t286.5 121t108.5 311t-108.5 310t-286.5 120t-287 -120.5t-109 -309.5zM705 1628 l233 332h516l-407 -332h-342z" />
<glyph unicode="&#xd4;" d="M72 768q0 230 104 409.5t287 278t414 98.5q232 0 415.5 -98.5t287 -278t103.5 -409.5t-103.5 -410t-287.5 -279t-415 -99t-414 99t-287 279t-104 410zM459 1628l233 350h369l235 -350h-317l-102 133l-103 -133h-315zM481 768q0 -190 109 -311t287 -121t286.5 121 t108.5 311t-108.5 310t-286.5 120t-287 -120.5t-109 -309.5z" />
<glyph unicode="&#xd5;" d="M72 768q0 230 104 409.5t287 278t414 98.5q232 0 415.5 -98.5t287 -278t103.5 -409.5t-103.5 -410t-287.5 -279t-415 -99t-414 99t-287 279t-104 410zM477 1628q-16 148 52.5 258.5t191.5 110.5q56 0 105.5 -25.5t89 -50.5t71.5 -25q76 0 76 86h211q16 -148 -52.5 -258 t-191.5 -110q-45 0 -86.5 15.5t-67.5 33.5t-56.5 33.5t-55.5 15.5q-76 0 -76 -84h-211zM481 768q0 -190 109 -311t287 -121t286.5 121t108.5 311t-108.5 310t-286.5 120t-287 -120.5t-109 -309.5z" />
<glyph unicode="&#xd6;" d="M72 768q0 230 104 409.5t287 278t414 98.5q232 0 415.5 -98.5t287 -278t103.5 -409.5t-103.5 -410t-287.5 -279t-415 -99t-414 99t-287 279t-104 410zM453 1812q0 82 57.5 139.5t140.5 57.5q84 0 142.5 -57.5t58.5 -139.5q0 -84 -58 -141t-143 -57q-84 0 -141 57t-57 141 zM481 768q0 -190 109 -311t287 -121t286.5 121t108.5 311t-108.5 310t-286.5 120t-287 -120.5t-109 -309.5zM907 1812q0 82 58 139.5t141 57.5t142 -57.5t59 -139.5q0 -84 -58.5 -141t-142.5 -57t-141.5 57t-57.5 141z" />
<glyph unicode="&#xd7;" horiz-adv-x="1159" d="M80 512l248 248l-248 250l252 252l248 -250l249 250l252 -252l-250 -250l250 -248l-252 -252l-249 248l-248 -248z" />
<glyph unicode="&#xd8;" d="M72 768q0 230 104 409.5t287 278t414 98.5q196 0 356 -71l133 174l246 -184l-127 -166q198 -217 198 -539q0 -230 -103.5 -410t-287.5 -279t-415 -99q-194 0 -353 69l-131 -170l-246 189l123 161q-95 103 -146.5 240.5t-51.5 298.5zM481 768q0 -119 43 -209l477 621 q-59 18 -124 18q-178 0 -287 -120.5t-109 -309.5zM756 352q59 -16 121 -16q178 0 286.5 121t108.5 311q0 114 -41 207z" />
<glyph unicode="&#xd9;" horiz-adv-x="1605" d="M123 651v881h401v-875q0 -323 279 -323q276 0 276 323v875h402v-881q0 -318 -180 -496t-498 -178q-320 0 -500 178t-180 496zM209 1960h516l236 -332h-343z" />
<glyph unicode="&#xda;" horiz-adv-x="1605" d="M123 651v881h401v-875q0 -323 279 -323q276 0 276 323v875h402v-881q0 -318 -180 -496t-498 -178q-320 0 -500 178t-180 496zM633 1628l233 332h516l-407 -332h-342z" />
<glyph unicode="&#xdb;" horiz-adv-x="1605" d="M123 651v881h401v-875q0 -323 279 -323q276 0 276 323v875h402v-881q0 -318 -180 -496t-498 -178q-320 0 -500 178t-180 496zM385 1628l233 350h369l236 -350h-318l-102 133l-103 -133h-315z" />
<glyph unicode="&#xdc;" horiz-adv-x="1605" d="M123 651v881h401v-875q0 -323 279 -323q276 0 276 323v875h402v-881q0 -318 -180 -496t-498 -178q-320 0 -500 178t-180 496zM379 1812q0 82 58 139.5t141 57.5q84 0 142 -57.5t58 -139.5q0 -85 -57.5 -141.5t-142.5 -56.5q-84 0 -141.5 57t-57.5 141zM834 1812 q0 82 57.5 139.5t140.5 57.5t142 -57.5t59 -139.5q0 -84 -58.5 -141t-142.5 -57t-141 57t-57 141z" />
<glyph unicode="&#xdd;" horiz-adv-x="1636" d="M16 1532h467l336 -594l334 594h467l-600 -993v-539h-402v539zM647 1628l234 332h516l-408 -332h-342z" />
<glyph unicode="&#xde;" horiz-adv-x="1269" d="M133 0v1532h402v-186h114q245 0 386 -125.5t141 -366.5t-141 -366.5t-386 -125.5h-114v-362h-402zM535 719h92q63 0 101 34.5t38 100.5t-38 100.5t-101 34.5h-92v-270z" />
<glyph unicode="&#xdf;" horiz-adv-x="1368" d="M127 0v1120q0 147 70 258.5t193.5 170.5t281.5 59q243 0 378.5 -94t135.5 -265q0 -58 -17.5 -104t-43 -75.5t-51 -56t-43 -59.5t-17.5 -71q0 -41 28.5 -80t69 -74t81 -75.5t69 -100.5t28.5 -131q0 -205 -134 -321.5t-351 -116.5q-124 0 -230 18l33 322q90 -23 160 -23 q139 0 139 143q0 43 -28.5 85t-69.5 78.5t-82 74.5t-69.5 87.5t-28.5 102.5t18 91t43.5 60t51 40.5t43.5 43t18 56.5q0 59 -38 94t-110 35q-71 0 -110 -46t-39 -134v-1112h-379z" />
<glyph unicode="&#xe0;" horiz-adv-x="1105" d="M80 299q0 152 107.5 243t279.5 91q62 0 141 -17v48q0 52 -26 82t-76 30q-55 0 -90.5 -24t-69.5 -72l-237 213q81 100 186 148.5t250 48.5q198 0 321 -107t123 -299v-684h-350l-8 78q-93 -101 -246 -101q-132 0 -218.5 88t-86.5 234zM117 1622h430l147 -391h-295zM465 330 q0 -74 78 -74q39 0 69 23v124q-33 13 -65 13q-35 0 -58.5 -24.5t-23.5 -61.5z" />
<glyph unicode="&#xe1;" horiz-adv-x="1105" d="M80 299q0 152 107.5 243t279.5 91q62 0 141 -17v48q0 52 -26 82t-76 30q-55 0 -90.5 -24t-69.5 -72l-237 213q81 100 186 148.5t250 48.5q198 0 321 -107t123 -299v-684h-350l-8 78q-93 -101 -246 -101q-132 0 -218.5 88t-86.5 234zM406 1231l145 391h430l-283 -391h-292 zM465 330q0 -74 78 -74q39 0 69 23v124q-33 13 -65 13q-35 0 -58.5 -24.5t-23.5 -61.5z" />
<glyph unicode="&#xe2;" horiz-adv-x="1105" d="M80 299q0 152 107.5 243t279.5 91q62 0 141 -17v48q0 52 -26 82t-76 30q-55 0 -90.5 -24t-69.5 -72l-237 213q81 100 186 148.5t250 48.5q198 0 321 -107t123 -299v-684h-350l-8 78q-93 -101 -246 -101q-132 0 -218.5 88t-86.5 234zM139 1231l234 373h370l234 -373h-318 l-102 129l-102 -129h-316zM465 330q0 -74 78 -74q39 0 69 23v124q-33 13 -65 13q-35 0 -58.5 -24.5t-23.5 -61.5z" />
<glyph unicode="&#xe3;" horiz-adv-x="1105" d="M80 299q0 152 107.5 243t279.5 91q62 0 141 -17v48q0 52 -26 82t-76 30q-55 0 -90.5 -24t-69.5 -72l-237 213q81 100 186 148.5t250 48.5q198 0 321 -107t123 -299v-684h-350l-8 78q-93 -101 -246 -101q-132 0 -218.5 88t-86.5 234zM158 1223q-16 148 52 258t191 110 q56 0 105.5 -24.5t89.5 -49t72 -24.5q75 0 75 84h211q16 -148 -52 -258.5t-191 -110.5q-45 0 -86.5 16t-67.5 34.5t-57 34.5t-56 16q-75 0 -75 -86h-211zM465 330q0 -74 78 -74q39 0 69 23v124q-33 13 -65 13q-35 0 -58.5 -24.5t-23.5 -61.5z" />
<glyph unicode="&#xe4;" horiz-adv-x="1105" d="M80 299q0 152 107.5 243t279.5 91q62 0 141 -17v48q0 52 -26 82t-76 30q-55 0 -90.5 -24t-69.5 -72l-237 213q81 100 186 148.5t250 48.5q198 0 321 -107t123 -299v-684h-350l-8 78q-93 -101 -246 -101q-132 0 -218.5 88t-86.5 234zM129 1389q0 82 58 139t141 57 q84 0 142 -57t58 -139q0 -85 -57.5 -142t-142.5 -57q-84 0 -141.5 57.5t-57.5 141.5zM465 330q0 -74 78 -74q39 0 69 23v124q-33 13 -65 13q-35 0 -58.5 -24.5t-23.5 -61.5zM584 1389q0 82 57.5 139t140.5 57t142 -57t59 -139q0 -84 -58.5 -141.5t-142.5 -57.5t-141 57 t-57 142z" />
<glyph unicode="&#xe5;" horiz-adv-x="1105" d="M80 299q0 152 107.5 243t279.5 91q62 0 141 -17v48q0 52 -26 82t-76 30q-55 0 -90.5 -24t-69.5 -72l-237 213q81 100 186 148.5t250 48.5q198 0 321 -107t123 -299v-684h-350l-8 78q-93 -101 -246 -101q-132 0 -218.5 88t-86.5 234zM264 1450q0 116 85 192t208 76 t207 -76t84 -192q0 -119 -84 -195.5t-207 -76.5t-208 77t-85 195zM465 330q0 -74 78 -74q39 0 69 23v124q-33 13 -65 13q-35 0 -58.5 -24.5t-23.5 -61.5zM481 1450q0 -35 20.5 -56.5t55.5 -21.5t55.5 21.5t20.5 56.5q0 34 -20.5 55t-55.5 21t-55.5 -21t-20.5 -55z" />
<glyph unicode="&#xe6;" horiz-adv-x="1675" d="M80 299q0 152 107.5 243t279.5 91q62 0 141 -17v48q0 52 -26 82t-76 30q-55 0 -90.5 -24t-69.5 -72l-237 213q81 100 186 148.5t250 48.5q179 0 297 -86q130 86 297 86q259 0 374 -166t74 -480h-590v-4q0 -67 47.5 -113t124.5 -46q67 0 106.5 24t74.5 72l237 -209 q-67 -93 -178 -142t-242 -49q-232 0 -387 134q-147 -134 -356 -134q-72 0 -132 17.5t-108.5 54.5t-76 100.5t-27.5 149.5zM465 330q0 -35 18.5 -54.5t48.5 -19.5q32 0 56 24t24 68v55q-33 13 -65 13q-34 0 -58 -24t-24 -62zM997 653h226q6 68 -20.5 111t-82.5 43 t-89.5 -41.5t-33.5 -101.5v-11z" />
<glyph unicode="&#xe7;" horiz-adv-x="1103" d="M74 535q0 168 77 296t203.5 193.5t280.5 65.5q282 0 440 -234l-274 -188q-22 44 -63.5 76t-98.5 32q-85 0 -132.5 -64.5t-47.5 -176.5t47.5 -178t132.5 -66q57 0 99 32t63 78l274 -188q-79 -118 -180.5 -174t-230.5 -62l-17 -67q59 -3 112.5 -29t90.5 -78.5t37 -121.5 q0 -106 -88.5 -159.5t-214.5 -53.5q-132 0 -209 36l55 183q34 -21 88 -21q31 0 57.5 14t26.5 44t-23.5 45.5t-56.5 15.5q-48 0 -78 -12l74 215q-195 37 -319.5 182t-124.5 365z" />
<glyph unicode="&#xe8;" horiz-adv-x="1132" d="M74 526q0 136 42.5 245t116 177.5t167.5 105t200 36.5q258 0 374 -166.5t73 -479.5h-588v-4q0 -67 46.5 -113t123.5 -46q67 0 106 23.5t76 72.5l236 -209q-67 -93 -178 -142t-242 -49q-113 0 -212 34.5t-175.5 100.5t-121 172.5t-44.5 241.5zM152 1622h430l147 -391h-295 zM459 653h223q8 67 -18.5 110.5t-83.5 43.5q-56 0 -88.5 -41.5t-32.5 -101.5v-11z" />
<glyph unicode="&#xe9;" horiz-adv-x="1132" d="M74 526q0 136 42.5 245t116 177.5t167.5 105t200 36.5q258 0 374 -166.5t73 -479.5h-588v-4q0 -67 46.5 -113t123.5 -46q67 0 106 23.5t76 72.5l236 -209q-67 -93 -178 -142t-242 -49q-113 0 -212 34.5t-175.5 100.5t-121 172.5t-44.5 241.5zM440 1231l146 391h430 l-283 -391h-293zM459 653h223q8 67 -18.5 110.5t-83.5 43.5q-56 0 -88.5 -41.5t-32.5 -101.5v-11z" />
<glyph unicode="&#xea;" horiz-adv-x="1132" d="M74 526q0 136 42.5 245t116 177.5t167.5 105t200 36.5q258 0 374 -166.5t73 -479.5h-588v-4q0 -67 46.5 -113t123.5 -46q67 0 106 23.5t76 72.5l236 -209q-67 -93 -178 -142t-242 -49q-113 0 -212 34.5t-175.5 100.5t-121 172.5t-44.5 241.5zM174 1231l234 373h370 l234 -373h-318l-102 129l-103 -129h-315zM459 653h223q8 67 -18.5 110.5t-83.5 43.5q-56 0 -88.5 -41.5t-32.5 -101.5v-11z" />
<glyph unicode="&#xeb;" horiz-adv-x="1132" d="M74 526q0 136 42.5 245t116 177.5t167.5 105t200 36.5q258 0 374 -166.5t73 -479.5h-588v-4q0 -67 46.5 -113t123.5 -46q67 0 106 23.5t76 72.5l236 -209q-67 -93 -178 -142t-242 -49q-113 0 -212 34.5t-175.5 100.5t-121 172.5t-44.5 241.5zM166 1389q0 82 58 139 t141 57q84 0 142 -57t58 -139q0 -85 -57.5 -142t-142.5 -57q-84 0 -141.5 57.5t-57.5 141.5zM459 653h223q8 67 -18.5 110.5t-83.5 43.5q-56 0 -88.5 -41.5t-32.5 -101.5v-11zM621 1389q0 82 57.5 139t140.5 57t142 -57t59 -139q0 -84 -58.5 -141.5t-142.5 -57.5 q-83 0 -140.5 57t-57.5 142z" />
<glyph unicode="&#xec;" horiz-adv-x="634" d="M-127 1622h430l148 -391h-295zM127 0v1067h379v-1067h-379z" />
<glyph unicode="&#xed;" horiz-adv-x="634" d="M127 0v1067h379v-1067h-379zM162 1231l145 391h430l-282 -391h-293z" />
<glyph unicode="&#xee;" horiz-adv-x="634" d="M-104 1231l233 373h371l233 -373h-317l-103 129l-102 -129h-315zM127 0v1067h379v-1067h-379z" />
<glyph unicode="&#xef;" horiz-adv-x="634" d="M-113 1389q0 82 58 139t141 57q85 0 143 -57t58 -139q0 -85 -58 -142t-143 -57q-84 0 -141.5 57.5t-57.5 141.5zM127 0v1067h379v-1067h-379zM342 1389q0 82 58 139t141 57t141.5 -57t58.5 -139q0 -84 -58 -141.5t-142 -57.5t-141.5 57.5t-57.5 141.5z" />
<glyph unicode="&#xf0;" horiz-adv-x="1228" d="M74 479q0 145 66 261.5t178 180.5t247 64q104 0 195 -33q-30 131 -96 211l-134 -139l-170 164l97 102q-95 25 -211 25v276q255 0 432 -65l125 131l176 -164l-88 -92q134 -119 196 -314t62 -473q0 -309 -147.5 -473t-391.5 -164q-240 0 -388 138t-148 364zM457 483 q0 -107 36.5 -161t116.5 -54q77 0 115.5 56t38.5 161q0 97 -39 153t-115 56q-78 0 -115.5 -56.5t-37.5 -154.5z" />
<glyph unicode="&#xf1;" horiz-adv-x="1263" d="M127 0v1067h365v-92q32 51 101 83t173 32q168 0 274.5 -109t106.5 -297v-684h-381v614q0 52 -30 85.5t-83 33.5q-83 0 -147 -71v-662h-379zM233 1223q-16 148 52.5 258t191.5 110q44 0 85.5 -15.5t67 -33.5t56.5 -33.5t57 -15.5q76 0 76 84h211q16 -148 -52.5 -258.5 t-191.5 -110.5q-45 0 -86.5 16t-67.5 34.5t-56.5 34.5t-55.5 16q-76 0 -76 -86h-211z" />
<glyph unicode="&#xf2;" horiz-adv-x="1284" d="M74 535q0 163 77 291t206.5 196t285.5 68t285.5 -68t206.5 -196t77 -291q0 -164 -77 -292.5t-206.5 -197t-285.5 -68.5t-285.5 68.5t-206.5 197t-77 292.5zM201 1622h430l147 -391h-295zM457 535q0 -110 50.5 -177t133.5 -67q85 0 135.5 67t50.5 177q0 109 -50.5 175 t-135.5 66q-83 0 -133.5 -66t-50.5 -175z" />
<glyph unicode="&#xf3;" horiz-adv-x="1284" d="M74 535q0 163 77 291t206.5 196t285.5 68t285.5 -68t206.5 -196t77 -291q0 -164 -77 -292.5t-206.5 -197t-285.5 -68.5t-285.5 68.5t-206.5 197t-77 292.5zM457 535q0 -110 50.5 -177t133.5 -67q85 0 135.5 67t50.5 177q0 109 -50.5 175t-135.5 66q-83 0 -133.5 -66 t-50.5 -175zM489 1231l146 391h430l-283 -391h-293z" />
<glyph unicode="&#xf4;" horiz-adv-x="1284" d="M74 535q0 163 77 291t206.5 196t285.5 68t285.5 -68t206.5 -196t77 -291q0 -164 -77 -292.5t-206.5 -197t-285.5 -68.5t-285.5 68.5t-206.5 197t-77 292.5zM223 1231l234 373h370l234 -373h-318l-102 129l-102 -129h-316zM457 535q0 -110 50.5 -177t133.5 -67 q85 0 135.5 67t50.5 177q0 109 -50.5 175t-135.5 66q-83 0 -133.5 -66t-50.5 -175z" />
<glyph unicode="&#xf5;" horiz-adv-x="1284" d="M74 535q0 163 77 291t206.5 196t285.5 68t285.5 -68t206.5 -196t77 -291q0 -164 -77 -292.5t-206.5 -197t-285.5 -68.5t-285.5 68.5t-206.5 197t-77 292.5zM244 1223q-16 148 52 258t191 110q56 0 105.5 -24.5t89.5 -49t72 -24.5q75 0 75 84h211q16 -148 -52 -258.5 t-191 -110.5q-45 0 -86.5 16t-67.5 34.5t-57 34.5t-56 16q-75 0 -75 -86h-211zM457 535q0 -110 50.5 -177t133.5 -67q85 0 135.5 67t50.5 177q0 109 -50.5 175t-135.5 66q-83 0 -133.5 -66t-50.5 -175z" />
<glyph unicode="&#xf6;" horiz-adv-x="1284" d="M74 535q0 163 77 291t206.5 196t285.5 68t285.5 -68t206.5 -196t77 -291q0 -164 -77 -292.5t-206.5 -197t-285.5 -68.5t-285.5 68.5t-206.5 197t-77 292.5zM215 1389q0 82 58 139t141 57q84 0 142 -57t58 -139q0 -85 -57.5 -142t-142.5 -57q-84 0 -141.5 57.5 t-57.5 141.5zM457 535q0 -110 50.5 -177t133.5 -67q85 0 135.5 67t50.5 177q0 109 -50.5 175t-135.5 66q-83 0 -133.5 -66t-50.5 -175zM670 1389q0 82 57.5 139t140.5 57t142 -57t59 -139q0 -84 -58.5 -141.5t-142.5 -57.5t-141 57t-57 142z" />
<glyph unicode="&#xf7;" horiz-adv-x="1122" d="M61 584v356h1002v-356h-1002zM342 227q0 92 63.5 155.5t155.5 63.5t156.5 -63.5t64.5 -155.5t-64.5 -156.5t-156.5 -64.5t-155.5 64.5t-63.5 156.5zM342 1296q0 93 63.5 157.5t155.5 64.5t156.5 -65t64.5 -157q0 -91 -64.5 -155t-156.5 -64t-155.5 64t-63.5 155z" />
<glyph unicode="&#xf8;" horiz-adv-x="1284" d="M74 535q0 163 77 291t206.5 196t285.5 68q122 0 225 -41l86 112l209 -153l-82 -109q131 -150 131 -364q0 -164 -77 -292.5t-206.5 -197t-285.5 -68.5q-117 0 -223 41l-88 -118l-209 153l84 113q-133 149 -133 369zM457 535l2 -35l205 274l-23 2q-83 0 -133.5 -66 t-50.5 -175zM627 291h14q85 0 135.5 67t50.5 177v24z" />
<glyph unicode="&#xf9;" horiz-adv-x="1239" d="M117 459v608h379v-616q0 -59 34 -94t91 -35q56 0 88 35t32 94v616h381v-608q0 -210 -137.5 -346t-363.5 -136q-227 0 -365.5 136t-138.5 346zM180 1622h430l148 -391h-295z" />
<glyph unicode="&#xfa;" horiz-adv-x="1239" d="M117 459v608h379v-616q0 -59 34 -94t91 -35q56 0 88 35t32 94v616h381v-608q0 -210 -137.5 -346t-363.5 -136q-227 0 -365.5 136t-138.5 346zM469 1231l145 391h430l-282 -391h-293z" />
<glyph unicode="&#xfb;" horiz-adv-x="1239" d="M117 459v608h379v-616q0 -59 34 -94t91 -35q56 0 88 35t32 94v616h381v-608q0 -210 -137.5 -346t-363.5 -136q-227 0 -365.5 136t-138.5 346zM203 1231l233 373h371l233 -373h-317l-102 129l-103 -129h-315z" />
<glyph unicode="&#xfc;" horiz-adv-x="1239" d="M117 459v608h379v-616q0 -59 34 -94t91 -35q56 0 88 35t32 94v616h381v-608q0 -210 -137.5 -346t-363.5 -136q-227 0 -365.5 136t-138.5 346zM193 1389q0 82 57.5 139t140.5 57q85 0 143 -57t58 -139q0 -85 -58 -142t-143 -57q-83 0 -140.5 57t-57.5 142zM647 1389 q0 82 58 139t141 57t142 -57t59 -139q0 -84 -58.5 -141.5t-142.5 -57.5t-141.5 57.5t-57.5 141.5z" />
<glyph unicode="&#xfd;" horiz-adv-x="1202" d="M8 1067h408l186 -588l184 588h408l-606 -1589h-402l215 555zM449 1231l145 391h430l-283 -391h-292z" />
<glyph unicode="&#xfe;" horiz-adv-x="1312" d="M127 -522v2113h381v-579q91 78 246 78q97 0 184 -36t155 -103.5t108 -175t40 -240.5q0 -138 -41 -246.5t-112 -175.5t-161.5 -101.5t-195.5 -34.5q-145 0 -223 60v-559h-381zM508 367q57 -76 158 -76q86 0 138 63t52 181q0 117 -52 179t-138 62q-101 0 -158 -76v-333z " />
<glyph unicode="&#xff;" horiz-adv-x="1202" d="M8 1067h408l186 -588l184 588h408l-606 -1589h-402l215 555zM172 1389q0 82 58 139t141 57q84 0 142 -57t58 -139q0 -85 -57.5 -142t-142.5 -57q-84 0 -141.5 57.5t-57.5 141.5zM627 1389q0 82 57.5 139t140.5 57t142 -57t59 -139q0 -84 -58.5 -141.5t-142.5 -57.5 q-83 0 -140.5 57t-57.5 142z" />
<glyph unicode="&#x152;" horiz-adv-x="2209" d="M72 768q0 230 104 409.5t287 278t414 98.5q215 0 393 -88v66h825v-356h-424v-222h365v-346h-365v-252h426v-356h-827v68q-178 -88 -393 -88q-231 0 -414 99t-287 279t-104 410zM481 768q0 -190 109 -311t287 -121q165 0 272 106.5t121 276.5v98q-14 169 -121 275 t-272 106q-178 0 -287 -120.5t-109 -309.5z" />
<glyph unicode="&#x153;" horiz-adv-x="1888" d="M74 535q0 163 77 291t206.5 196t285.5 68q212 0 367 -121q142 121 344 121q258 0 373.5 -166.5t72.5 -479.5h-588v-4q0 -67 46.5 -113t123.5 -46q67 0 106.5 23.5t76.5 72.5l235 -209q-67 -93 -178 -142t-242 -49q-222 0 -370 121q-155 -121 -367 -121 q-156 0 -285.5 68.5t-206.5 197t-77 292.5zM457 535q0 -110 50.5 -177t133.5 -67q85 0 135.5 67t50.5 177q0 109 -50.5 175t-135.5 66q-83 0 -133.5 -66t-50.5 -175zM1212 653h224q8 67 -19 110.5t-84 43.5q-56 0 -88.5 -41.5t-32.5 -101.5v-11z" />
<glyph unicode="&#x178;" horiz-adv-x="1636" d="M16 1532h467l336 -594l334 594h467l-600 -993v-539h-402v539zM393 1812q0 82 58 139.5t141 57.5q84 0 142.5 -57.5t58.5 -139.5q0 -84 -58 -141t-143 -57q-84 0 -141.5 57t-57.5 141zM848 1812q0 82 58 139.5t141 57.5t141.5 -57.5t58.5 -139.5q0 -84 -58 -141t-142 -57 t-141.5 57t-57.5 141z" />
<glyph unicode="&#x2c6;" horiz-adv-x="854" d="M8 1231l234 373h370l234 -373h-318l-102 129l-102 -129h-316z" />
<glyph unicode="&#x2dc;" horiz-adv-x="817" d="M10 1223q-16 148 52.5 258t191.5 110q44 0 85.5 -15.5t67 -33.5t56.5 -33.5t57 -15.5q76 0 76 84h211q16 -148 -52.5 -258.5t-191.5 -110.5q-45 0 -86.5 16t-67.5 34.5t-56.5 34.5t-55.5 16q-76 0 -76 -86h-211z" />
<glyph unicode="&#x2000;" horiz-adv-x="1044" />
<glyph unicode="&#x2001;" horiz-adv-x="2089" />
<glyph unicode="&#x2002;" horiz-adv-x="1044" />
<glyph unicode="&#x2003;" horiz-adv-x="2089" />
<glyph unicode="&#x2004;" horiz-adv-x="696" />
<glyph unicode="&#x2005;" horiz-adv-x="522" />
<glyph unicode="&#x2006;" horiz-adv-x="348" />
<glyph unicode="&#x2007;" horiz-adv-x="348" />
<glyph unicode="&#x2008;" horiz-adv-x="261" />
<glyph unicode="&#x2009;" horiz-adv-x="417" />
<glyph unicode="&#x200a;" horiz-adv-x="116" />
<glyph unicode="&#x2010;" horiz-adv-x="837" d="M92 358v357h653v-357h-653z" />
<glyph unicode="&#x2011;" horiz-adv-x="837" d="M92 358v357h653v-357h-653z" />
<glyph unicode="&#x2012;" horiz-adv-x="837" d="M92 358v357h653v-357h-653z" />
<glyph unicode="&#x2013;" horiz-adv-x="1165" d="M92 358v357h981v-357h-981z" />
<glyph unicode="&#x2014;" horiz-adv-x="1640" d="M92 358v357h1456v-357h-1456z" />
<glyph unicode="&#x2018;" horiz-adv-x="561" d="M70 1100v2v2q3 339 366 518v-154q-107 -64 -143 -170q85 -7 140.5 -70t55.5 -149q0 -94 -60.5 -157.5t-154.5 -63.5q-95 0 -149.5 67t-54.5 175z" />
<glyph unicode="&#x2019;" horiz-adv-x="561" d="M70 1401q0 93 61.5 157t155.5 64q95 0 148.5 -66.5t53.5 -173.5v-2v-2q-3 -340 -366 -520v156q107 64 143 170q-84 8 -140 69.5t-56 147.5z" />
<glyph unicode="&#x201a;" horiz-adv-x="561" d="M70 197q0 93 61.5 157t155.5 64q95 0 148.5 -66.5t53.5 -173.5v-2v-2q-3 -343 -366 -520v156q107 64 143 170q-84 8 -140 69.5t-56 147.5z" />
<glyph unicode="&#x201c;" horiz-adv-x="1046" d="M72 1098v2v2q3 343 366 520v-156q-107 -64 -143 -170q84 -8 140.5 -69.5t56.5 -147.5q0 -93 -62 -157t-156 -64q-93 0 -147.5 67t-54.5 173zM559 1098v2v2q3 342 367 520v-156q-108 -65 -144 -170q84 -8 140.5 -69.5t56.5 -147.5q0 -93 -61.5 -157t-155.5 -64t-148.5 67 t-54.5 173z" />
<glyph unicode="&#x201d;" horiz-adv-x="1046" d="M72 1401q0 93 61.5 157t155.5 64q95 0 149 -66.5t54 -173.5v-2v-2q-3 -342 -367 -520v156q107 64 143 170q-84 8 -140 69.5t-56 147.5zM557 1401q0 93 61.5 157t155.5 64q95 0 149 -66.5t54 -173.5v-2v-2q-3 -342 -367 -520v156q108 65 144 170q-84 8 -140.5 69.5 t-56.5 147.5z" />
<glyph unicode="&#x201e;" horiz-adv-x="1046" d="M70 197q0 93 61.5 157t155.5 64q95 0 148.5 -66.5t53.5 -173.5v-2v-2q-3 -343 -366 -520v156q107 64 143 170q-84 8 -140 69.5t-56 147.5zM557 197q0 94 60.5 157.5t154.5 63.5q95 0 150 -67t55 -173v-2v-4q-3 -339 -367 -518v156q108 65 144 170q-85 8 -141 69.5 t-56 147.5z" />
<glyph unicode="&#x2022;" horiz-adv-x="714" d="M90 522q0 111 78 188.5t190 77.5q110 0 188.5 -78t78.5 -188q0 -112 -78 -190t-189 -78q-112 0 -190 78t-78 190z" />
<glyph unicode="&#x2026;" horiz-adv-x="1806" d="M90 197q0 92 63.5 156.5t155.5 64.5t156.5 -64.5t64.5 -156.5t-64.5 -156t-156.5 -64t-155.5 64t-63.5 156zM682 197q0 92 64.5 156.5t156.5 64.5q91 0 156 -64.5t65 -156.5t-65 -156t-156 -64q-92 0 -156.5 64t-64.5 156zM1274 197q0 92 64.5 156.5t156.5 64.5 q91 0 156 -64.5t65 -156.5t-65 -156t-156 -64q-92 0 -156.5 64t-64.5 156z" />
<glyph unicode="&#x202f;" horiz-adv-x="417" />
<glyph unicode="&#x2039;" horiz-adv-x="733" d="M31 535l403 493l271 -237l-220 -256l220 -256l-271 -240z" />
<glyph unicode="&#x203a;" horiz-adv-x="733" d="M29 279l219 256l-219 256l272 237l404 -493l-404 -496z" />
<glyph unicode="&#x205f;" horiz-adv-x="522" />
<glyph unicode="&#x20ac;" horiz-adv-x="1404" d="M23 477l88 236h129v53v41h-217l88 233h159q60 246 227.5 380t411.5 134q138 0 229.5 -30t188.5 -97l-123 -331q-117 102 -276 102q-164 0 -234 -158h492l-88 -233h-449v-41q0 -37 2 -53h414l-86 -236h-277q70 -143 226 -143q142 0 262 96l166 -334q-108 -64 -206.5 -91.5 t-246.5 -27.5q-242 0 -405.5 130.5t-225.5 369.5h-249z" />
<glyph unicode="&#x2122;" horiz-adv-x="1871" d="M27 1231v301h716v-301h-221v-434h-276v434h-219zM844 797v735h307l164 -326l160 326h309v-735h-277v286l-125 -286h-137l-123 286v-286h-278z" />
<glyph unicode="&#x25fc;" horiz-adv-x="1064" d="M0 0v1065h1065v-1065h-1065z" />
</font>
</defs>
</svg>
