<?xml version="1.0" standalone="no"?>
<!DOCTYPE svg PUBLIC "-//W3C//DTD SVG 1.1//EN" "http://www.w3.org/Graphics/SVG/1.1/DTD/svg11.dtd" >
<svg xmlns="http://www.w3.org/2000/svg">
<metadata></metadata>
<defs>
<font id="lasivermedium" horiz-adv-x="1771" >
<font-face units-per-em="2048" ascent="1536" descent="-512" />
<missing-glyph horiz-adv-x="468" />
<glyph unicode="&#xfb01;" horiz-adv-x="1232" d="M31 852v199h196v139q0 211 118 315.5t317 104.5t344 -101l-76 -198q-107 88 -260 88q-93 0 -148 -57t-55 -162v-129h602v-1051h-240v852h-362v-852h-240v852h-196z" />
<glyph unicode="&#xfb02;" horiz-adv-x="1310" d="M31 852v199h196v141q0 198 106.5 304t301.5 106q78 0 129 -19l-29 -211q-43 17 -96 17q-78 0 -125 -50.5t-47 -148.5v-139h260v-199h-260v-852h-240v852h-196zM909 0v1591h240v-1591h-240z" />
<glyph horiz-adv-x="0" />
<glyph horiz-adv-x="682" />
<glyph unicode="&#xd;" horiz-adv-x="1228" />
<glyph unicode=" "  horiz-adv-x="468" />
<glyph unicode="&#x09;" horiz-adv-x="468" />
<glyph unicode="&#xa0;" horiz-adv-x="468" />
<glyph unicode="!" horiz-adv-x="618" d="M158 129q0 65 43 109.5t106 44.5q65 0 109.5 -44.5t44.5 -109.5q0 -63 -44.5 -106t-109.5 -43q-63 0 -106 43t-43 106zM170 1532h279l-13 -1092h-252z" />
<glyph unicode="&#x22;" horiz-adv-x="770" d="M88 1532h236l-25 -522h-186zM446 1532h236l-25 -522h-186z" />
<glyph unicode="#" horiz-adv-x="1335" d="M14 393l45 191h232l86 356h-240l45 190h240l96 402h197l-97 -402h273l96 402h195l-97 -402h236l-45 -190h-236l-84 -356h244l-45 -191h-244l-94 -393h-196l94 393h-273l-94 -393h-196l94 393h-232zM487 584h273l84 356h-273z" />
<glyph unicode="$" horiz-adv-x="1167" d="M68 319l225 99q88 -215 285 -215q97 0 159 57.5t62 165.5q0 95 -56 144t-204 106q-101 38 -170 75.5t-124 88.5t-81.5 117.5t-26.5 152.5q0 172 89 287t255 145v230h199v-224q261 -35 358 -299l-233 -78q-57 158 -211 158q-91 0 -145 -56.5t-54 -148.5q0 -28 7 -52 t17 -42.5t32 -36.5t41 -31t55.5 -29.5t63.5 -28t77 -30.5q75 -28 128.5 -54.5t101.5 -63t77 -79.5t45.5 -101.5t16.5 -131.5q0 -188 -101.5 -308t-275.5 -150v-228h-199v226q-149 19 -250 101.5t-163 233.5z" />
<glyph unicode="%" horiz-adv-x="1869" d="M72 1176q0 167 107.5 271.5t264.5 104.5t265 -104.5t108 -271.5q0 -164 -108 -268.5t-265 -104.5t-264.5 104.5t-107.5 268.5zM258 1176q0 -86 54 -141.5t132 -55.5q79 0 133 55.5t54 141.5q0 89 -53.5 143.5t-133.5 54.5q-79 0 -132.5 -54.5t-53.5 -143.5zM297 0 l1044 1532h232l-1045 -1532h-231zM1053 356q0 164 107.5 268.5t264.5 104.5t265 -104.5t108 -268.5q0 -167 -108 -271.5t-265 -104.5t-264.5 104.5t-107.5 271.5zM1239 356q0 -89 53 -143.5t133 -54.5q79 0 133 54.5t54 143.5q0 86 -54.5 141.5t-132.5 55.5 q-79 0 -132.5 -55t-53.5 -142z" />
<glyph unicode="&#x26;" horiz-adv-x="1482" d="M82 408q0 73 22 135t65 112.5t93 89.5t119 80q-90 87 -138 168.5t-48 180.5q0 119 58 205.5t155 129.5t221 43q190 0 311 -101t121 -269q0 -56 -17 -105.5t-42.5 -86t-68.5 -72.5t-83 -61t-96 -56l32 -33l252 -258q81 142 138 313l227 -71q-84 -237 -201 -412l332 -340 h-344l-148 152q-194 -170 -446 -170q-231 0 -372.5 117t-141.5 309zM338 418q0 -104 72 -159.5t190 -55.5q159 0 285 114l-307 318l-46 45q-97 -59 -145.5 -119t-48.5 -143zM446 1159q0 -56 35.5 -102.5t114.5 -116.5q108 58 160.5 106.5t52.5 114.5q0 77 -52.5 123.5 t-127.5 46.5q-80 0 -131.5 -45t-51.5 -127z" />
<glyph unicode="'" horiz-adv-x="413" d="M88 1532h236l-25 -522h-186z" />
<glyph unicode="(" horiz-adv-x="567" d="M78 655q0 247 67.5 462.5t178.5 381.5l204 -74q-211 -355 -211 -770q0 -416 211 -768l-204 -73q-111 165 -178.5 379.5t-67.5 461.5z" />
<glyph unicode=")" horiz-adv-x="567" d="M37 -113q213 355 213 768q0 411 -213 770l207 74q110 -167 176.5 -382.5t66.5 -461.5q0 -247 -66.5 -461.5t-176.5 -379.5z" />
<glyph unicode="*" horiz-adv-x="718" d="M16 1262l43 127l236 -82l-4 249h135l-4 -249l235 82l43 -127l-239 -76l151 -199l-110 -82l-144 207l-143 -207l-109 80l150 201z" />
<glyph unicode="+" horiz-adv-x="1120" d="M66 649v215h378v383h232v-383h379v-215h-379v-389h-232v389h-378z" />
<glyph unicode="," horiz-adv-x="485" d="M98 129q0 64 41 108t105 44q66 0 103.5 -46.5t37.5 -121.5v-2v-2q-3 -280 -272 -426v102q108 73 129 197q-62 3 -103 45t-41 102z" />
<glyph unicode="-" horiz-adv-x="829" d="M92 424v223h645v-223h-645z" />
<glyph unicode="." horiz-adv-x="497" d="M98 129q0 65 43.5 109.5t106.5 44.5q64 0 108.5 -44.5t44.5 -109.5q0 -63 -44 -106t-109 -43q-63 0 -106.5 43t-43.5 106z" />
<glyph unicode="/" horiz-adv-x="806" d="M16 -137l523 1669h249l-522 -1669h-250z" />
<glyph unicode="0" horiz-adv-x="1327" d="M98 766q0 375 153.5 580.5t412.5 205.5q262 0 413.5 -206.5t151.5 -579.5q0 -378 -151.5 -582t-413.5 -204q-263 0 -414.5 204t-151.5 582zM354 766q0 -274 80.5 -418.5t229.5 -144.5q147 0 227 144.5t80 418.5q0 271 -79.5 417t-227.5 146q-149 0 -229.5 -146 t-80.5 -417z" />
<glyph unicode="1" horiz-adv-x="800" d="M57 1075v248l373 209h203v-1532h-252v1247z" />
<glyph unicode="2" horiz-adv-x="1116" d="M68 1319q161 233 462 233q223 0 353.5 -121t130.5 -339q0 -68 -12.5 -133t-39 -125.5t-57 -113.5t-77.5 -109t-88 -100t-102 -98.5t-105.5 -92.5t-111.5 -93q-3 -3 -5 -4h612v-223h-948v207q269 221 375 324q233 225 287 409q18 63 18 125q0 120 -66.5 192t-175.5 72 q-188 0 -295 -172z" />
<glyph unicode="3" horiz-adv-x="1069" d="M27 203l155 162q89 -162 279 -162q114 0 188 65.5t74 177.5q0 115 -82 177.5t-217 62.5h-115v215h113q113 0 184.5 56t71.5 155t-60.5 158t-158.5 59q-172 0 -264 -162l-154 162q151 223 420 223q217 0 344 -116t127 -320q0 -113 -56.5 -194t-150.5 -125 q120 -51 186 -140.5t66 -212.5q0 -215 -140 -339.5t-368 -124.5q-288 0 -442 223z" />
<glyph unicode="4" horiz-adv-x="1245" d="M53 350v191l344 991h267l-342 -957h368v402h252v-402h260v-225h-260v-350h-252v350h-637z" />
<glyph unicode="5" horiz-adv-x="1157" d="M109 203l157 162q92 -162 289 -162q119 0 189.5 72.5t70.5 197.5q0 127 -72.5 196.5t-197.5 69.5q-98 0 -183 -45h-180v838h813v-223h-561v-369q66 16 129 16q105 0 196.5 -31t161 -89.5t109 -149.5t39.5 -203q0 -235 -138.5 -369t-367.5 -134q-300 0 -454 223z" />
<glyph unicode="6" horiz-adv-x="1222" d="M98 707q0 400 149 622.5t425 222.5q250 0 415 -192l-137 -174q-110 143 -278 143q-152 0 -230.5 -121t-83.5 -348q123 92 281 92q223 0 359.5 -128t136.5 -353q0 -226 -136.5 -358.5t-363.5 -132.5q-266 0 -399 172q-73 95 -105.5 220.5t-32.5 334.5zM360 424 q12 -96 72 -156q68 -65 186 -65q121 0 191 72.5t70 197.5q0 129 -72.5 198.5t-190.5 69.5q-130 0 -203.5 -86.5t-52.5 -230.5z" />
<glyph unicode="7" horiz-adv-x="1107" d="M55 1309v223h1016v-164l-715 -1368h-276l686 1309h-711z" />
<glyph unicode="8" horiz-adv-x="1243" d="M100 446q0 138 58 228.5t151 138.5q-168 91 -168 317q0 179 130.5 300.5t349.5 121.5q218 0 347.5 -121t129.5 -301q0 -223 -166 -317q92 -47 150.5 -139.5t58.5 -227.5q0 -99 -33.5 -183t-97 -147.5t-163.5 -99.5t-226 -36t-226 36t-164 99.5t-97.5 148t-33.5 182.5z M354 455q0 -115 71 -183.5t196 -68.5t195.5 68.5t70.5 183.5q0 114 -71.5 178.5t-194.5 64.5q-124 0 -195.5 -64.5t-71.5 -178.5zM395 1120q0 -95 59.5 -152t166.5 -57q106 0 165.5 58t59.5 151q0 95 -62.5 152t-162.5 57q-101 0 -163.5 -58t-62.5 -151z" />
<glyph unicode="9" horiz-adv-x="1222" d="M98 1061q0 226 136.5 358.5t363.5 132.5q266 0 399 -172q73 -95 105.5 -220.5t32.5 -334.5q0 -400 -149 -622.5t-425 -222.5q-251 0 -416 192l138 174q54 -70 120.5 -106.5t157.5 -36.5q152 0 230 120.5t83 348.5q-123 -92 -280 -92q-223 0 -359.5 128t-136.5 353z M354 1059q0 -130 72 -199t190 -69q130 0 203.5 86.5t52.5 230.5q-12 97 -71 156q-68 65 -187 65q-121 0 -190.5 -72.5t-69.5 -197.5z" />
<glyph unicode=":" horiz-adv-x="497" d="M98 129q0 65 43.5 109.5t106.5 44.5q64 0 108.5 -44.5t44.5 -109.5q0 -63 -44 -106t-109 -43q-63 0 -106.5 43t-43.5 106zM98 918q0 64 43.5 108.5t106.5 44.5q64 0 108.5 -44.5t44.5 -108.5q0 -63 -44.5 -106.5t-108.5 -43.5q-63 0 -106.5 43.5t-43.5 106.5z" />
<glyph unicode=";" horiz-adv-x="497" d="M98 129q0 64 41 108t105 44q66 0 103.5 -46.5t37.5 -121.5v-2v-2q-3 -280 -272 -426v102q108 73 129 197q-62 3 -103 45t-41 102zM98 918q0 64 43.5 108.5t106.5 44.5q64 0 108.5 -44.5t44.5 -108.5q0 -63 -44.5 -106.5t-108.5 -43.5q-63 0 -106.5 43.5t-43.5 106.5z" />
<glyph unicode="&#x3c;" horiz-adv-x="1081" d="M57 756l957 510l2 -271l-490 -239l490 -240l-2 -272z" />
<glyph unicode="=" horiz-adv-x="1120" d="M66 395v223h989v-223h-989zM66 893v223h989v-223h-989z" />
<glyph unicode="&#x3e;" horiz-adv-x="1081" d="M66 516l491 240l-491 239l2 271l956 -510l-956 -512z" />
<glyph unicode="?" horiz-adv-x="987" d="M29 1319q162 235 446 235q202 0 338.5 -121t136.5 -311q0 -68 -15.5 -123t-48 -100t-64 -76t-81.5 -71q-8 -6 -31 -25t-29 -24t-24 -20.5t-22.5 -21t-17.5 -20t-16 -22.5t-10.5 -22.5t-9.5 -27.5t-4 -29.5t-2 -35.5q0 -6 5 -64h-252q-2 27 -2 72q0 51 9.5 92t22.5 69 t42.5 60t53 52t70.5 57q85 66 126.5 125.5t41.5 144.5q0 97 -63.5 157t-167.5 60q-173 0 -277 -172zM301 129q0 65 43.5 109.5t106.5 44.5q64 0 108.5 -44.5t44.5 -109.5q0 -63 -44 -106t-109 -43q-63 0 -106.5 43t-43.5 106z" />
<glyph unicode="@" horiz-adv-x="1683" d="M88 504q0 212 97 382.5t269.5 266.5t387.5 96q213 0 385.5 -96t270 -266.5t97.5 -382.5q0 -206 -87 -313t-232 -107q-150 0 -211 102q-54 -54 -118.5 -82t-153.5 -28q-78 0 -146 27t-121.5 78.5t-84.5 134.5t-31 188q0 209 110 319.5t277 110.5q144 0 231 -94v75h189 v-585q0 -94 88 -94q65 0 107 68t42 200q0 171 -80 310.5t-220 218.5t-312 79q-129 0 -242.5 -46.5t-194.5 -127t-127.5 -193t-46.5 -241.5q0 -133 48 -247.5t130 -192t191 -121t229 -43.5q218 0 375 96l39 -133q-87 -52 -183 -76.5t-231 -24.5q-153 0 -289.5 55t-236 151.5 t-157.5 235.5t-58 300zM604 504q0 -133 65.5 -203t164.5 -70q122 0 194 86v371q-41 44 -85 66t-112 22q-96 0 -161.5 -72.5t-65.5 -199.5z" />
<glyph unicode="A" horiz-adv-x="1630" d="M45 0l639 1532h264l637 -1532h-272l-158 375h-680l-156 -375h-274zM565 600h500l-250 600z" />
<glyph unicode="B" horiz-adv-x="1236" d="M170 0v1532h432q212 0 341.5 -110t129.5 -312q0 -115 -48 -193.5t-130 -115.5q223 -78 223 -357q0 -222 -134.5 -333t-362.5 -111h-451zM422 223h184q120 0 187 58t67 170q0 114 -62.5 170.5t-179.5 56.5h-196v-455zM422 897h186q99 0 153 51.5t54 153.5t-59.5 154.5 t-163.5 52.5h-170v-412z" />
<glyph unicode="C" horiz-adv-x="1517" d="M98 768q0 228 103.5 408.5t278.5 278t386 97.5q392 0 598 -297l-182 -143q-151 217 -414 217q-223 0 -367.5 -157t-144.5 -404q0 -249 144.5 -406t367.5 -157q265 0 414 217l182 -143q-206 -297 -598 -297q-158 0 -299 57.5t-244.5 159t-164 249.5t-60.5 320z" />
<glyph unicode="D" horiz-adv-x="1628" d="M170 0v1532h569q163 0 304.5 -49.5t250 -143t171.5 -242t63 -333.5q0 -148 -41 -273t-113.5 -215t-172 -152.5t-216.5 -93t-246 -30.5h-569zM422 223h317q107 0 202 34t169.5 99t118 170t43.5 238q0 134 -43.5 240t-118 171.5t-169.5 99.5t-202 34h-317v-1086z" />
<glyph unicode="E" horiz-adv-x="1044" d="M170 0v1532h782v-223h-530v-412h473v-219h-473v-455h532v-223h-784z" />
<glyph unicode="F" horiz-adv-x="1003" d="M170 0v1532h770v-223h-518v-416h442v-223h-442v-670h-252z" />
<glyph unicode="G" horiz-adv-x="1599" d="M98 768q0 171 60 318.5t162.5 249t242.5 159t297 57.5q388 0 594 -297l-182 -143q-151 217 -408 217q-223 0 -365.5 -156.5t-142.5 -404.5q0 -249 144.5 -406t367.5 -157q217 0 349 135v223h-322v225h573v-544q-219 -262 -602 -262q-158 0 -299 57.5t-244.5 159 t-164 249.5t-60.5 320z" />
<glyph unicode="H" horiz-adv-x="1599" d="M170 0v1532h252v-629h758v629h252v-1532h-252v678h-758v-678h-252z" />
<glyph unicode="I" horiz-adv-x="589" d="M170 0v1532h252v-1532h-252z" />
<glyph unicode="J" horiz-adv-x="1079" d="M12 362l242 50q50 -209 213 -209q89 0 145 62t56 169v1098h252v-1069q0 -118 -36 -211.5t-99 -152t-144 -89t-174 -30.5q-177 0 -294.5 93t-160.5 289z" />
<glyph unicode="K" horiz-adv-x="1447" d="M170 0v1532h252v-723l622 723h316l-561 -670l624 -862h-301l-499 674l-201 -221v-453h-252z" />
<glyph unicode="L" horiz-adv-x="1040" d="M170 0v1532h252v-1309h551v-223h-803z" />
<glyph unicode="M" horiz-adv-x="2027" d="M170 0v1532h254l592 -1172l588 1172h254v-1532h-252v999l-502 -999h-180l-502 999v-999h-252z" />
<glyph unicode="N" horiz-adv-x="1599" d="M170 0v1532h240l770 -1088v1088h252v-1532h-240l-770 1092v-1092h-252z" />
<glyph unicode="O" d="M98 768q0 173 60.5 320t165.5 248.5t250.5 158.5t312.5 57t312.5 -57t250.5 -158.5t165 -248.5t60 -320t-60.5 -321t-166 -249.5t-250.5 -158.5t-311 -57q-223 0 -402.5 97.5t-283 277.5t-103.5 411zM354 768q0 -164 69 -293t190 -199.5t272 -70.5q230 0 380 157t150 406 q0 248 -149.5 404.5t-380.5 156.5q-230 0 -380.5 -157t-150.5 -404z" />
<glyph unicode="P" horiz-adv-x="1214" d="M170 0v1532h446q232 0 369 -120.5t137 -348.5q0 -227 -137 -347t-369 -120h-194v-596h-252zM422 819h180q119 0 191.5 63t72.5 181q0 119 -72 182.5t-192 63.5h-180v-490z" />
<glyph unicode="Q" d="M98 768q0 173 60.5 320t165.5 248.5t250.5 158.5t312.5 57t312.5 -57t250.5 -158.5t165 -248.5t60 -320q0 -182 -63.5 -331.5t-179.5 -254.5l333 -428h-319l-227 293q-151 -65 -332 -65q-223 0 -402.5 97.5t-283 277.5t-103.5 411zM354 768q0 -164 69 -293t190 -199.5 t272 -70.5q99 0 184 31l-215 276l199 154l225 -289q137 156 137 391q0 248 -149.5 404.5t-380.5 156.5q-230 0 -380.5 -157t-150.5 -404z" />
<glyph unicode="R" horiz-adv-x="1280" d="M170 0v1532h442q233 0 370.5 -120t137.5 -347q0 -148 -60.5 -251t-170.5 -159l328 -655h-279l-297 598h-29h-190v-598h-252zM422 821h176q119 0 191.5 63t72.5 181t-72.5 181t-191.5 63h-176v-488z" />
<glyph unicode="S" horiz-adv-x="1167" d="M68 319l225 99q88 -215 285 -215q97 0 159 57.5t62 165.5q0 95 -56 144t-204 106q-101 38 -170 75.5t-124 88.5t-81.5 117.5t-26.5 152.5q0 201 119.5 321.5t339.5 120.5q331 0 442 -303l-233 -78q-57 158 -211 158q-91 0 -145 -56.5t-54 -148.5q0 -28 7 -52t17 -42.5 t32 -36.5t41 -31t55.5 -29.5t63.5 -28t77 -30.5q75 -28 128.5 -54.5t101.5 -63t77 -79.5t45.5 -101.5t16.5 -131.5q0 -216 -132 -341.5t-352 -125.5q-186 0 -310 84.5t-195 257.5z" />
<glyph unicode="T" horiz-adv-x="1380" d="M37 1309v223h1306v-223h-528v-1309h-252v1309h-526z" />
<glyph unicode="U" horiz-adv-x="1595" d="M160 608v924h252v-920q0 -195 102 -302t285 -107q181 0 283 107t102 302v920h252v-924q0 -295 -172 -461.5t-465 -166.5q-294 0 -466.5 166.5t-172.5 461.5z" />
<glyph unicode="V" horiz-adv-x="1611" d="M45 1532h272l490 -1182l489 1182h271l-633 -1532h-256z" />
<glyph unicode="W" horiz-adv-x="2404" d="M59 1532h269l399 -1157l375 1157h201l372 -1157l400 1157h268l-543 -1532h-256l-342 1036l-344 -1036h-256z" />
<glyph unicode="X" horiz-adv-x="1454" d="M45 0l496 778l-471 754h292l367 -584l365 584h290l-471 -754l496 -778h-291l-389 610l-391 -610h-293z" />
<glyph unicode="Y" horiz-adv-x="1513" d="M31 1532h293l434 -690l432 690h295l-600 -940v-592h-252v592z" />
<glyph unicode="Z" horiz-adv-x="1312" d="M78 0v197l819 1112h-801v223h1125v-197l-822 -1112h846v-223h-1167z" />
<glyph unicode="[" horiz-adv-x="585" d="M113 -158v1628h428v-198h-189v-1231h189v-199h-428z" />
<glyph unicode="\" horiz-adv-x="806" d="M16 1532h248l524 -1669h-249z" />
<glyph unicode="]" horiz-adv-x="585" d="M45 41h191v1231h-191v198h428v-1628h-428v199z" />
<glyph unicode="^" horiz-adv-x="1177" d="M57 764l531 801l530 -801h-270l-260 428l-260 -428h-271z" />
<glyph unicode="_" horiz-adv-x="1406" d="M92 0h1223v-223h-1223v223z" />
<glyph unicode="`" horiz-adv-x="516" d="M29 1614h270l190 -391h-186z" />
<glyph unicode="a" horiz-adv-x="1075" d="M104 287q0 151 107 237t283 86q88 0 190 -20v92q0 88 -47 139t-129 51q-75 0 -127 -30t-96 -90l-150 133q74 94 169 140t226 46q174 0 283 -100.5t109 -276.5v-694h-226v94q-118 -114 -276 -114q-140 0 -228 84t-88 223zM346 307q0 -65 40 -98t110 -33q98 0 188 90v154 q-68 14 -149 14q-189 0 -189 -127z" />
<glyph unicode="b" horiz-adv-x="1282" d="M164 0v1591h239v-626q103 106 289 106q99 0 187 -34t158.5 -99t111.5 -171.5t41 -240.5q0 -107 -26.5 -197.5t-72.5 -154t-108 -108t-132.5 -65.5t-145.5 -21q-115 0 -187 33.5t-131 95.5v-109h-223zM401 297q90 -119 250 -119q124 0 210.5 91t86.5 257q0 84 -24.5 151 t-66.5 109t-94.5 64t-111.5 22q-161 0 -250 -118v-457z" />
<glyph unicode="c" horiz-adv-x="1089" d="M92 526q0 124 42.5 228t115 172.5t169.5 106.5t206 38q265 0 411 -211l-172 -121q-38 60 -98 96.5t-139 36.5q-130 0 -211.5 -93.5t-81.5 -252.5t82 -253.5t211 -94.5q79 0 139 36.5t98 96.5l172 -121q-146 -210 -411 -210q-147 0 -267 64t-193 190t-73 292z" />
<glyph unicode="d" horiz-adv-x="1282" d="M92 526q0 134 41 240.5t111.5 171.5t158.5 99t187 34q186 0 289 -106v626h239v-1591h-223v109q-59 -62 -130.5 -95.5t-186.5 -33.5q-75 0 -145.5 21t-132.5 65.5t-108 108t-73 154t-27 197.5zM334 526q0 -166 86 -257t211 -91q88 0 146.5 30.5t103.5 88.5v457 q-45 57 -103.5 87.5t-146.5 30.5q-125 0 -211 -90.5t-86 -255.5z" />
<glyph unicode="e" horiz-adv-x="1132" d="M92 516q0 129 40.5 235.5t109.5 175.5t160 106.5t194 37.5q237 1 350 -161q87 -125 87 -336q0 -61 -7 -130h-692q7 -122 85.5 -194t198.5 -72q159 0 254 123l150 -137q-66 -89 -171.5 -136.5t-232.5 -47.5q-109 0 -203.5 35t-167 100.5t-114 169t-41.5 231.5zM336 635 h463q-3 113 -59.5 176t-155.5 63t-166.5 -66t-81.5 -173z" />
<glyph unicode="f" horiz-adv-x="745" d="M31 852v199h196v141q0 198 106.5 304t301.5 106q78 0 129 -19l-29 -211q-43 17 -96 17q-78 0 -125 -50.5t-47 -148.5v-139h260v-199h-260v-852h-240v852h-196z" />
<glyph unicode="g" horiz-adv-x="1267" d="M92 526q0 106 26.5 196.5t73 153.5t108.5 107.5t132.5 66t145.5 21.5q115 0 186.5 -33.5t130.5 -95.5l2 109h221v-1102q0 -222 -142 -356t-370 -134q-309 0 -475 205l162 154q62 -75 136.5 -115.5t182.5 -40.5q126 0 196.5 67.5t70.5 198.5v158q-103 -106 -289 -106 q-79 0 -151 20.5t-135.5 64.5t-110.5 107.5t-74 154t-27 199.5zM334 526q0 -166 86 -257t211 -91q88 0 146.5 30.5t103.5 88.5v457q-45 57 -103.5 87.5t-146.5 30.5q-125 0 -211 -90.5t-86 -255.5z" />
<glyph unicode="h" horiz-adv-x="1232" d="M164 0v1591h239v-653q108 133 304 133q167 0 269.5 -109.5t102.5 -293.5v-668h-239v629q0 98 -54.5 159.5t-146.5 61.5q-78 0 -133.5 -33t-102.5 -88v-729h-239z" />
<glyph unicode="i" horiz-adv-x="565" d="M137 1407q0 60 42.5 102.5t101.5 42.5q60 0 103.5 -42.5t43.5 -102.5q0 -61 -43 -103t-104 -42q-60 0 -102 42t-42 103zM164 0v1051h239v-1051h-239z" />
<glyph unicode="j" horiz-adv-x="565" d="M-307 -367l184 136q28 -51 62.5 -76t85.5 -25q141 0 141 174v1209h237v-1203q0 -195 -100 -293t-270 -98q-228 0 -340 176zM137 1407q0 60 42 102.5t102 42.5t103.5 -42.5t43.5 -102.5q0 -61 -43 -103t-104 -42q-60 0 -102 42t-42 103z" />
<glyph unicode="k" horiz-adv-x="1150" d="M164 0v1591h239v-993l406 453h291l-400 -449l430 -602h-288l-312 424l-127 -133v-291h-239z" />
<glyph unicode="l" horiz-adv-x="565" d="M164 0v1591h239v-1591h-239z" />
<glyph unicode="m" horiz-adv-x="1890" d="M164 0v1051h229v-125q42 62 118.5 103.5t188.5 41.5q108 0 189 -43.5t127 -126.5q119 170 354 170q165 0 266 -109t101 -294v-668h-238v631q0 98 -50.5 158.5t-141.5 60.5q-132 0 -240 -125q2 -16 2 -47v-678h-238v631q0 98 -50.5 158.5t-141.5 60.5q-134 0 -236 -121 v-729h-239z" />
<glyph unicode="n" horiz-adv-x="1232" d="M164 0v1051h229v-125q42 62 121 103.5t193 41.5q167 0 269.5 -109.5t102.5 -293.5v-668h-239v629q0 98 -54.5 159.5t-146.5 61.5q-78 0 -133.5 -33t-102.5 -88v-729h-239z" />
<glyph unicode="o" horiz-adv-x="1269" d="M92 526q0 160 74 285.5t197 192.5t272 67t272 -67t197 -192.5t74 -285.5q0 -121 -43 -224t-117 -173t-173 -109.5t-210 -39.5t-210 39.5t-173 109.5t-117 173t-43 224zM334 526q0 -155 86 -251.5t215 -96.5t215 96.5t86 251.5q0 154 -85.5 250t-215.5 96t-215.5 -96 t-85.5 -250z" />
<glyph unicode="p" horiz-adv-x="1282" d="M164 -522v1573h223v-109q59 62 131 95.5t187 33.5q75 0 145.5 -21.5t132.5 -66t108 -107.5t72.5 -153.5t26.5 -196.5q0 -109 -27 -199.5t-74 -154t-110.5 -107.5t-135.5 -64.5t-151 -20.5q-186 0 -289 106v-608h-239zM401 297q90 -119 250 -119q124 0 210.5 91t86.5 257 q0 84 -24.5 151t-66.5 109t-94.5 64t-111.5 22q-161 0 -250 -118v-457z" />
<glyph unicode="q" horiz-adv-x="1282" d="M92 526q0 106 26.5 196.5t73 153.5t108.5 107.5t132.5 66t145.5 21.5q115 0 186.5 -33.5t130.5 -95.5v109h223v-1573h-239v608q-103 -106 -289 -106q-79 0 -151 20.5t-135.5 64.5t-110.5 107.5t-74 154t-27 199.5zM334 526q0 -166 86 -257t211 -91q88 0 146.5 30.5 t103.5 88.5v457q-45 57 -103.5 87.5t-146.5 30.5q-125 0 -211 -90.5t-86 -255.5z" />
<glyph unicode="r" horiz-adv-x="749" d="M164 0v1051h239v-142q118 148 314 148l-15 -242q-96 0 -164.5 -31t-134.5 -92v-692h-239z" />
<glyph unicode="s" horiz-adv-x="911" d="M61 217l193 105q24 -67 72.5 -105.5t115.5 -38.5q142 0 142 111q0 54 -38 82.5t-134 62.5q-74 25 -128 53t-99 65.5t-68 87t-23 110.5q0 139 101 230t260 91q129 0 222 -57t126 -164l-189 -90q-37 112 -149 112q-63 0 -98 -29t-35 -81q0 -50 35.5 -74.5t135.5 -62.5 q12 -5 19 -7q76 -29 124 -53t91.5 -60t63.5 -84.5t20 -113.5q0 -150 -108 -238.5t-267 -88.5q-281 0 -385 237z" />
<glyph unicode="t" horiz-adv-x="808" d="M37 852v199h211l2 335h239l-2 -335h258v-199h-260l-2 -500q0 -70 35.5 -107.5t91.5 -37.5q57 0 103 33l71 -193q-77 -53 -204 -53q-148 0 -241.5 83.5t-92.5 246.5l2 528h-211z" />
<glyph unicode="u" horiz-adv-x="1208" d="M154 430v621h239v-623q0 -102 58 -164.5t153 -62.5t153 62.5t58 164.5v623h240v-621q0 -197 -124.5 -323.5t-326.5 -126.5t-326 126.5t-124 323.5z" />
<glyph unicode="v" horiz-adv-x="1112" d="M27 1051h256l274 -756l272 756h256l-395 -1051h-268z" />
<glyph unicode="w" horiz-adv-x="1693" d="M27 1051h254l223 -693l254 693h178l252 -693l223 693h256l-356 -1051h-230l-235 641l-234 -641h-231z" />
<glyph unicode="x" horiz-adv-x="1095" d="M45 0l334 532l-322 519h267l223 -361l225 361h264l-319 -516l334 -535h-269l-235 375l-234 -375h-268z" />
<glyph unicode="y" horiz-adv-x="1112" d="M27 1051h256l274 -746l272 746h256l-616 -1573h-254l217 542z" />
<glyph unicode="z" horiz-adv-x="940" d="M66 0v154l485 704h-475v193h780v-154l-491 -704h514v-193h-813z" />
<glyph unicode="{" horiz-adv-x="567" d="M37 557v197h16q41 0 66 10.5t37 27t12.5 50.5t-5 66t-18.5 87q-25 119 -10 208t66.5 148.5t129.5 89t179 29.5h12v-198h-12q-98 0 -127.5 -68.5t-3.5 -230.5q12 -81 14 -147.5t-30 -113t-101 -55.5q69 -11 101 -58t30 -113.5t-14 -147.5q-26 -160 3.5 -228.5t127.5 -68.5 h12v-199h-12q-101 0 -179 29.5t-129.5 89t-66.5 148.5t10 208q13 56 18.5 87.5t5 65t-12.5 50t-37 27t-66 10.5h-16z" />
<glyph unicode="|" horiz-adv-x="555" d="M158 -137v1669h239v-1669h-239z" />
<glyph unicode="}" horiz-adv-x="567" d="M45 41h12q98 0 127.5 68.5t3.5 228.5q-12 81 -14 147.5t30 113.5t101 58q-69 9 -101 55.5t-30 113t14 147.5q26 162 -3.5 230.5t-127.5 68.5h-12v198h12q208 0 312 -123t55 -352q-13 -55 -19 -87.5t-6 -65.5t12 -50t37 -27.5t66 -10.5h16v-197h-16q-41 0 -66 -10.5 t-37 -27t-12 -50t6 -65.5t19 -87q49 -229 -55 -352t-312 -123h-12v199z" />
<glyph unicode="~" horiz-adv-x="1105" d="M31 754q71 89 144 133.5t169 44.5q53 0 105 -19t87.5 -42.5t87.5 -42.5t105 -19q78 0 131 27t105 90l108 -160q-69 -89 -144.5 -134.5t-174.5 -45.5q-59 0 -114 19t-91 42.5t-85 42.5t-97 19q-73 0 -125 -26.5t-103 -88.5z" />
<glyph unicode="&#xa1;" horiz-adv-x="618" d="M158 895q0 63 44 106t109 43q63 0 106.5 -43t43.5 -106q0 -65 -43.5 -109.5t-106.5 -44.5q-64 0 -108.5 44.5t-44.5 109.5zM170 -508l12 1092h252l15 -1092h-279z" />
<glyph unicode="&#xa2;" horiz-adv-x="1079" d="M92 526q0 218 120.5 361t309.5 176v221h199v-221q196 -31 315 -203l-172 -121q-38 60 -98 96.5t-139 36.5q-130 0 -211.5 -93.5t-81.5 -252.5t82 -253.5t211 -94.5q79 0 139 36.5t98 96.5l172 -121q-118 -171 -315 -202v-230h-199v230q-190 33 -310 176t-120 362z" />
<glyph unicode="&#xa3;" horiz-adv-x="1120" d="M57 649v199h189l-17 156q-28 255 90.5 401.5t344.5 146.5q281 0 417 -229l-157 -149q-86 155 -246 155q-116 0 -170.5 -82.5t-40.5 -226.5l18 -172h326v-199h-305q17 -165 -18.5 -261.5t-114.5 -164.5h704v-223h-1011v207q27 10 48.5 20.5t44 25t39 32.5t31.5 42t24 54 t14.5 67t5 83.5t-6.5 101.5l-2 16h-207z" />
<glyph unicode="&#xa4;" horiz-adv-x="1218" d="M45 70l236 237q-48 91 -48 209q0 122 50 211l-238 238l152 149l235 -233q77 41 178 41t178 -41l236 233l150 -149l-236 -238q47 -89 47 -211t-47 -211l236 -235l-152 -150l-234 234q-77 -41 -178 -41q-103 0 -180 41l-233 -234zM428 516q0 -109 47 -171t133 -62 q85 0 134 62t49 171q0 111 -48 173.5t-135 62.5q-83 0 -131.5 -63t-48.5 -173z" />
<glyph unicode="&#xa5;" horiz-adv-x="1513" d="M31 1532h293l434 -690l432 690h295l-518 -811h196v-150h-278v-161h278v-150h-278v-260h-252v260h-283v150h283v161h-283v150h201z" />
<glyph unicode="&#xa6;" horiz-adv-x="555" d="M158 -137v653h239v-653h-239zM158 879v653h239v-653h-239z" />
<glyph unicode="&#xa7;" horiz-adv-x="1071" d="M86 748q0 86 35 146.5t102 109.5q-102 66 -102 217t115.5 241t298.5 90q141 0 239 -57.5t133 -163.5l-188 -98q-44 121 -182 121q-76 0 -126.5 -35t-50.5 -98q0 -61 48 -92t161 -54q81 -14 141 -30.5t113.5 -41t86.5 -57t52 -78t19 -104.5q0 -83 -33 -140.5t-98 -105.5 q64 -35 95.5 -90.5t31.5 -142.5q0 -155 -128.5 -248.5t-320.5 -93.5q-328 0 -432 237l193 111q27 -68 90 -109t151 -41q92 0 150.5 34.5t58.5 105.5q0 65 -54 97t-187 60q-83 18 -140 34t-112 41t-87.5 56t-52.5 76t-20 103zM305 770q0 -71 65.5 -106t217.5 -64l69 -14 q53 33 78 66.5t25 88.5q0 31 -13 55.5t-33.5 41t-58.5 31t-76.5 24.5t-99.5 22l-69 17q-52 -34 -78.5 -70.5t-26.5 -91.5z" />
<glyph unicode="&#xa8;" horiz-adv-x="681" d="M31 1393q0 55 38.5 94t94.5 39q57 0 96 -38.5t39 -94.5q0 -57 -39 -95t-96 -38q-56 0 -94.5 38t-38.5 95zM381 1393q0 56 39 94.5t96 38.5t95 -38.5t38 -94.5q0 -57 -38 -95t-95 -38t-96 38t-39 95z" />
<glyph unicode="&#xa9;" horiz-adv-x="1206" d="M57 1036q0 222 155.5 371t389.5 149q153 0 278 -68t196 -187t71 -265t-71 -265.5t-196 -187t-278 -67.5q-234 0 -389.5 148.5t-155.5 371.5zM154 1036q0 -190 126 -313t322 -123q195 0 322 123.5t127 312.5t-127 313t-322 124q-196 0 -322 -123.5t-126 -313.5zM297 1038 q0 142 91.5 231t227.5 89q154 0 242 -119l-84 -80q-57 82 -153 82q-80 0 -134.5 -56.5t-54.5 -146.5q0 -89 55 -146.5t134 -57.5q96 0 153 84l84 -80q-87 -121 -242 -121q-135 0 -227 90t-92 231z" />
<glyph unicode="&#xaa;" horiz-adv-x="864" d="M82 915q0 121 85.5 193t225.5 72q64 0 148 -13v66q0 69 -36 109t-99 40q-104 0 -173 -96l-127 113q60 75 137 112t183 37q141 0 229 -80.5t88 -222.5v-555h-190v80q-44 -45 -95 -70.5t-128 -25.5q-108 0 -178 65.5t-70 175.5zM285 934q0 -49 32.5 -73.5t88.5 -24.5 q74 0 137 63v131q-52 10 -109 10q-149 0 -149 -106z" />
<glyph unicode="&#xab;" horiz-adv-x="1138" d="M31 524l350 465l190 -119l-272 -346l272 -348l-190 -119zM561 524l350 465l191 -119l-273 -346l273 -348l-191 -119z" />
<glyph unicode="&#xac;" horiz-adv-x="1187" d="M72 698v189h1028v-568h-187v379h-841z" />
<glyph unicode="&#xad;" horiz-adv-x="829" d="M92 424v223h645v-223h-645z" />
<glyph unicode="&#xae;" horiz-adv-x="1206" d="M57 1036q0 222 155.5 371t389.5 149q153 0 278 -68t196 -187t71 -265t-71 -265.5t-196 -187t-278 -67.5q-234 0 -389.5 148.5t-155.5 371.5zM154 1036q0 -190 126 -313t322 -123q195 0 322 123.5t127 312.5t-127 313t-322 124q-196 0 -322 -123.5t-126 -313.5zM375 723 v627h248q103 0 163 -50.5t60 -148.5q0 -117 -94 -168l118 -260h-143l-104 231h-115v-231h-133zM506 1063h106q99 0 99 88q0 92 -99 92h-106v-180z" />
<glyph unicode="&#xaf;" horiz-adv-x="626" d="M25 1284v184h577v-184h-577z" />
<glyph unicode="&#xb0;" horiz-adv-x="741" d="M57 1231q0 145 87.5 232t224.5 87t225 -87t88 -232q0 -144 -88.5 -231t-224.5 -87q-137 0 -224.5 87t-87.5 231zM223 1231q0 -77 41.5 -124.5t106.5 -47.5t107 47.5t42 124.5q0 79 -42 126.5t-107 47.5t-106.5 -47.5t-41.5 -126.5z" />
<glyph unicode="&#xb1;" horiz-adv-x="1120" d="M66 135v225h989v-225h-989zM66 866v215h378v383h232v-383h379v-215h-379v-389h-232v389h-378z" />
<glyph unicode="&#xb4;" horiz-adv-x="516" d="M27 1223l190 391h270l-272 -391h-188z" />
<glyph unicode="&#xb6;" horiz-adv-x="1411" d="M80 1147q0 190 121.5 287.5t326.5 97.5h844v-178h-141v-1491h-187v1491h-231v-1491h-184v903h-101q-207 0 -327.5 98t-120.5 283z" />
<glyph unicode="&#xb7;" horiz-adv-x="497" d="M98 633q0 64 43.5 108.5t106.5 44.5q64 0 108.5 -44t44.5 -109q0 -63 -44.5 -106.5t-108.5 -43.5q-63 0 -106.5 43.5t-43.5 106.5z" />
<glyph unicode="&#xb8;" horiz-adv-x="561" d="M33 -465l37 123q61 -35 131 -35q50 0 87.5 20.5t37.5 63.5q0 47 -41.5 70.5t-104.5 23.5q-32 0 -59 -10l65 229h115l-27 -118q101 -3 166.5 -54.5t65.5 -150.5q0 -96 -79 -151.5t-187 -55.5q-128 0 -207 45z" />
<glyph unicode="&#xba;" horiz-adv-x="1017" d="M74 1110q0 129 59.5 230t158.5 154.5t218 53.5q183 0 308.5 -122t125.5 -316q0 -128 -59 -228.5t-157.5 -154t-217.5 -53.5q-183 0 -309.5 122t-126.5 314zM276 1110q0 -120 66.5 -195t167.5 -75t166 75t65 195q0 122 -65 197t-166 75t-167.5 -75.5t-66.5 -196.5z" />
<glyph unicode="&#xbb;" horiz-adv-x="1138" d="M37 176l272 348l-272 346l190 119l351 -465l-351 -467zM569 176l273 348l-273 346l191 119l350 -465l-350 -467z" />
<glyph unicode="&#xbc;" horiz-adv-x="1634" d="M41 1243v174l209 115h143v-873h-178v674zM70 0l1056 1532h246l-1059 -1532h-243zM932 184v133l174 555h182l-178 -530h176v215h178v-215h135v-158h-135v-184h-178v184h-354z" />
<glyph unicode="&#xbd;" horiz-adv-x="1599" d="M41 1243v174l209 115h143v-873h-178v674zM70 0l1056 1532h246l-1059 -1532h-243zM979 756q94 129 268 129q134 0 211.5 -70.5t77.5 -200.5q0 -43 -11 -85t-24 -74t-42.5 -71.5t-47 -61.5t-59 -60.5t-57 -52t-60.5 -51.5h305v-158h-551v145q63 51 93.5 76.5t83 71.5 t79.5 77.5t57 72t43 78.5t13 75q0 61 -32.5 96t-88.5 35q-94 0 -150 -86z" />
<glyph unicode="&#xbe;" horiz-adv-x="1751" d="M20 772l109 113q45 -82 139 -82q54 0 90.5 31.5t36.5 85.5q0 56 -39.5 84t-109.5 28h-60v152h64q56 0 89.5 25.5t33.5 74.5q0 45 -29.5 72.5t-75.5 27.5q-86 0 -131 -81l-110 112q90 127 243 127q129 0 205 -68t76 -188q0 -117 -102 -178q124 -64 124 -193 q0 -126 -82 -198t-217 -72q-168 0 -254 127zM186 0l1057 1532h246l-1059 -1532h-244zM1049 184v133l174 555h182l-178 -530h176v215h178v-215h135v-158h-135v-184h-178v184h-354z" />
<glyph unicode="&#xbf;" horiz-adv-x="987" d="M37 -72q0 68 15.5 123.5t48 100.5t64 76t81.5 71q8 6 31 25t29 24t24 20.5t22.5 21t17.5 20t16 22.5t10.5 22.5t9.5 27.5t4 29.5t2 35.5q0 17 -4 63h251q3 -40 3 -71q0 -63 -11.5 -108.5t-42.5 -85.5t-58.5 -64.5t-86.5 -71.5q-85 -66 -126.5 -125.5t-41.5 -144.5 q0 -97 63.5 -157.5t167.5 -60.5q172 0 277 173l155 -162q-163 -236 -446 -236q-202 0 -338.5 121t-136.5 311zM383 922q0 63 44.5 106t109.5 43q63 0 106 -43t43 -106q0 -65 -43 -109.5t-106 -44.5q-65 0 -109.5 45t-44.5 109z" />
<glyph unicode="&#xc0;" horiz-adv-x="1630" d="M45 0l639 1532h264l637 -1532h-272l-158 375h-680l-156 -375h-274zM305 1929h328l282 -301h-219zM565 600h500l-250 600z" />
<glyph unicode="&#xc1;" horiz-adv-x="1630" d="M45 0l639 1532h264l637 -1532h-272l-158 375h-680l-156 -375h-274zM565 600h500l-250 600zM702 1628l283 301h328l-389 -301h-222z" />
<glyph unicode="&#xc2;" horiz-adv-x="1630" d="M45 0l639 1532h264l637 -1532h-272l-158 375h-680l-156 -375h-274zM459 1628l241 311h230l241 -311h-202l-154 170l-153 -170h-203zM565 600h500l-250 600z" />
<glyph unicode="&#xc3;" horiz-adv-x="1630" d="M45 0l639 1532h264l637 -1532h-272l-158 375h-680l-156 -375h-274zM461 1659q-9 114 47 198.5t154 84.5q43 0 84 -18.5t67 -40t60 -40t65 -18.5q46 0 69 27.5t23 74.5h137q8 -117 -48 -199.5t-154 -82.5q-44 0 -85.5 18t-68 40t-60 40t-63.5 18q-44 0 -68 -28t-24 -74 h-135zM565 600h500l-250 600z" />
<glyph unicode="&#xc4;" horiz-adv-x="1630" d="M45 0l639 1532h264l637 -1532h-272l-158 375h-680l-156 -375h-274zM504 1788q0 57 38.5 96t94.5 39q57 0 96 -39t39 -96t-39 -95t-96 -38q-56 0 -94.5 38t-38.5 95zM565 600h500l-250 600zM854 1788q0 57 39 96t96 39t95 -39t38 -96t-38 -95t-95 -38t-96 38t-39 95z" />
<glyph unicode="&#xc5;" horiz-adv-x="1630" d="M45 0l639 1532h264l637 -1532h-272l-158 375h-680l-156 -375h-274zM565 600h500l-250 600zM590 1835q0 91 64 150t159 59t159 -59t64 -150t-64 -151t-159 -60t-159 60t-64 151zM719 1835q0 -41 27.5 -67.5t68.5 -26.5q40 0 68 26.5t28 67.5t-28 67.5t-68 26.5 q-41 0 -68.5 -26.5t-27.5 -67.5z" />
<glyph unicode="&#xc6;" horiz-adv-x="2009" d="M25 0l1048 1532h842v-223h-531v-412h474v-219h-474v-455h533v-223h-784v375h-553l-248 -375h-307zM737 600h396v596z" />
<glyph unicode="&#xc7;" horiz-adv-x="1517" d="M98 768q0 228 103.5 408.5t278.5 278t386 97.5q392 0 598 -297l-182 -143q-151 217 -414 217q-223 0 -367.5 -157t-144.5 -404q0 -249 144.5 -406t367.5 -157q265 0 414 217l182 -143q-196 -282 -561 -297l-20 -91q101 -3 166 -54t65 -150q0 -96 -79 -151.5t-187 -55.5 q-128 0 -207 45l37 123q61 -35 131 -35q50 0 87.5 20.5t37.5 63.5q0 47 -41.5 70.5t-104.5 23.5q-32 0 -59 -10l59 205q-145 14 -271 76.5t-219 162.5t-146.5 240.5t-53.5 302.5z" />
<glyph unicode="&#xc8;" horiz-adv-x="1044" d="M55 1929h328l283 -301h-220zM170 0v1532h782v-223h-530v-412h473v-219h-473v-455h532v-223h-784z" />
<glyph unicode="&#xc9;" horiz-adv-x="1044" d="M170 0v1532h782v-223h-530v-412h473v-219h-473v-455h532v-223h-784zM453 1628l282 301h328l-389 -301h-221z" />
<glyph unicode="&#xca;" horiz-adv-x="1044" d="M170 0v1532h782v-223h-530v-412h473v-219h-473v-455h532v-223h-784zM209 1628l242 311h229l242 -311h-203l-154 170l-153 -170h-203z" />
<glyph unicode="&#xcb;" horiz-adv-x="1044" d="M170 0v1532h782v-223h-530v-412h473v-219h-473v-455h532v-223h-784zM254 1788q0 57 38.5 96t94.5 39q57 0 96 -39t39 -96t-39 -95t-96 -38q-56 0 -94.5 38t-38.5 95zM604 1788q0 57 39 96t96 39t95 -39t38 -96t-38 -95t-95 -38t-96 38t-39 95z" />
<glyph unicode="&#xcc;" horiz-adv-x="589" d="M-207 1929h328l282 -301h-219zM170 0v1532h252v-1532h-252z" />
<glyph unicode="&#xcd;" horiz-adv-x="589" d="M170 0v1532h252v-1532h-252zM190 1628l283 301h328l-389 -301h-222z" />
<glyph unicode="&#xce;" horiz-adv-x="589" d="M-53 1628l241 311h230l241 -311h-202l-154 170l-153 -170h-203zM170 0v1532h252v-1532h-252z" />
<glyph unicode="&#xcf;" horiz-adv-x="589" d="M-8 1788q0 57 38.5 96t94.5 39q57 0 96 -39t39 -96t-39 -95t-96 -38q-56 0 -94.5 38t-38.5 95zM170 0v1532h252v-1532h-252zM342 1788q0 57 39 96t96 39t95 -39t38 -96t-38 -95t-95 -38t-96 38t-39 95z" />
<glyph unicode="&#xd0;" horiz-adv-x="1628" d="M-6 668v194h176v670h569q163 0 304.5 -49.5t250 -143t171.5 -242t63 -333.5q0 -148 -41 -273t-113.5 -215t-172 -152.5t-216.5 -93t-246 -30.5h-569v668h-176zM422 223h317q107 0 202 34t169.5 99t118 170t43.5 238q0 134 -43.5 240t-118 171.5t-169.5 99.5t-202 34h-317 v-447h285v-194h-285v-445z" />
<glyph unicode="&#xd1;" horiz-adv-x="1599" d="M170 0v1532h240l770 -1088v1088h252v-1532h-240l-770 1092v-1092h-252zM446 1659q-9 114 47 198.5t154 84.5q43 0 84 -18.5t67.5 -40t60.5 -40t65 -18.5q46 0 69 27.5t23 74.5h137q8 -116 -48.5 -199t-154.5 -83q-44 0 -85.5 18t-67.5 40t-59.5 40t-63.5 18 q-44 0 -68 -28t-24 -74h-136z" />
<glyph unicode="&#xd2;" d="M98 768q0 173 60.5 320t165.5 248.5t250.5 158.5t312.5 57t312.5 -57t250.5 -158.5t165 -248.5t60 -320t-60.5 -321t-166 -249.5t-250.5 -158.5t-311 -57q-223 0 -402.5 97.5t-283 277.5t-103.5 411zM354 768q0 -164 69 -293t190 -199.5t272 -70.5q230 0 380 157t150 406 q0 248 -149.5 404.5t-380.5 156.5q-230 0 -380.5 -157t-150.5 -404zM377 1929h328l282 -301h-219z" />
<glyph unicode="&#xd3;" d="M98 768q0 173 60.5 320t165.5 248.5t250.5 158.5t312.5 57t312.5 -57t250.5 -158.5t165 -248.5t60 -320t-60.5 -321t-166 -249.5t-250.5 -158.5t-311 -57q-223 0 -402.5 97.5t-283 277.5t-103.5 411zM354 768q0 -164 69 -293t190 -199.5t272 -70.5q230 0 380 157t150 406 q0 248 -149.5 404.5t-380.5 156.5q-230 0 -380.5 -157t-150.5 -404zM774 1628l283 301h327l-389 -301h-221z" />
<glyph unicode="&#xd4;" d="M98 768q0 173 60.5 320t165.5 248.5t250.5 158.5t312.5 57t312.5 -57t250.5 -158.5t165 -248.5t60 -320t-60.5 -321t-166 -249.5t-250.5 -158.5t-311 -57q-223 0 -402.5 97.5t-283 277.5t-103.5 411zM354 768q0 -164 69 -293t190 -199.5t272 -70.5q230 0 380 157t150 406 q0 248 -149.5 404.5t-380.5 156.5q-230 0 -380.5 -157t-150.5 -404zM530 1628l242 311h229l242 -311h-203l-153 170l-154 -170h-203z" />
<glyph unicode="&#xd5;" d="M98 768q0 173 60.5 320t165.5 248.5t250.5 158.5t312.5 57t312.5 -57t250.5 -158.5t165 -248.5t60 -320t-60.5 -321t-166 -249.5t-250.5 -158.5t-311 -57q-223 0 -402.5 97.5t-283 277.5t-103.5 411zM354 768q0 -164 69 -293t190 -199.5t272 -70.5q230 0 380 157t150 406 q0 248 -149.5 404.5t-380.5 156.5q-230 0 -380.5 -157t-150.5 -404zM532 1659q-9 114 47 198.5t154 84.5q43 0 84 -18.5t67.5 -40t60.5 -40t65 -18.5q46 0 69 27.5t23 74.5h137q8 -116 -48.5 -199t-154.5 -83q-44 0 -85.5 18t-67.5 40t-59.5 40t-63.5 18q-44 0 -68 -28 t-24 -74h-136z" />
<glyph unicode="&#xd6;" d="M98 768q0 173 60.5 320t165.5 248.5t250.5 158.5t312.5 57t312.5 -57t250.5 -158.5t165 -248.5t60 -320t-60.5 -321t-166 -249.5t-250.5 -158.5t-311 -57q-223 0 -402.5 97.5t-283 277.5t-103.5 411zM354 768q0 -164 69 -293t190 -199.5t272 -70.5q230 0 380 157t150 406 q0 248 -149.5 404.5t-380.5 156.5q-230 0 -380.5 -157t-150.5 -404zM575 1788q0 57 39 96t95 39q57 0 96 -39t39 -96t-39 -95t-96 -38q-56 0 -95 38t-39 95zM926 1788q0 57 39 96t96 39t95 -39t38 -96t-38 -95t-95 -38t-96 38t-39 95z" />
<glyph unicode="&#xd7;" horiz-adv-x="1099" d="M96 461l297 297l-295 295l158 157l295 -295l291 293l157 -159l-290 -291l295 -295l-158 -158l-295 293l-297 -295z" />
<glyph unicode="&#xd8;" d="M98 768q0 173 60.5 320t165.5 248.5t250.5 158.5t312.5 57q221 0 403 -98l129 168l154 -117l-127 -166q109 -105 169 -251t60 -320q0 -173 -60.5 -321t-166 -249.5t-250.5 -158.5t-311 -57q-222 0 -404 98l-127 -166l-155 117l127 166q-110 105 -170 250.5t-60 320.5z M354 768q0 -224 123 -375l668 873q-117 63 -260 63q-230 0 -380.5 -157t-150.5 -404zM627 268q117 -63 258 -63q230 0 380 157t150 406q0 220 -121 373z" />
<glyph unicode="&#xd9;" horiz-adv-x="1595" d="M160 608v924h252v-920q0 -195 102 -302t285 -107q181 0 283 107t102 302v920h252v-924q0 -295 -172 -461.5t-465 -166.5q-294 0 -466.5 166.5t-172.5 461.5zM287 1929h327l283 -301h-219z" />
<glyph unicode="&#xda;" horiz-adv-x="1595" d="M160 608v924h252v-920q0 -195 102 -302t285 -107q181 0 283 107t102 302v920h252v-924q0 -295 -172 -461.5t-465 -166.5q-294 0 -466.5 166.5t-172.5 461.5zM684 1628l283 301h327l-389 -301h-221z" />
<glyph unicode="&#xdb;" horiz-adv-x="1595" d="M160 608v924h252v-920q0 -195 102 -302t285 -107q181 0 283 107t102 302v920h252v-924q0 -295 -172 -461.5t-465 -166.5q-294 0 -466.5 166.5t-172.5 461.5zM440 1628l242 311h229l242 -311h-203l-153 170l-154 -170h-203z" />
<glyph unicode="&#xdc;" horiz-adv-x="1595" d="M160 608v924h252v-920q0 -195 102 -302t285 -107q181 0 283 107t102 302v920h252v-924q0 -295 -172 -461.5t-465 -166.5q-294 0 -466.5 166.5t-172.5 461.5zM485 1788q0 57 38.5 96t94.5 39q57 0 96.5 -39t39.5 -96t-39.5 -95t-96.5 -38q-56 0 -94.5 38t-38.5 95z M836 1788q0 57 39 96t96 39t95 -39t38 -96t-38 -95t-95 -38t-96 38t-39 95z" />
<glyph unicode="&#xdd;" horiz-adv-x="1513" d="M31 1532h293l434 -690l432 690h295l-600 -940v-592h-252v592zM643 1628l283 301h327l-389 -301h-221z" />
<glyph unicode="&#xde;" horiz-adv-x="1218" d="M170 0v1532h252v-199h196q231 0 365.5 -114.5t134.5 -337.5q0 -221 -134.5 -336t-365.5 -115h-196v-430h-252zM422 655h182q118 0 187 57t69 169q0 113 -68.5 170t-187.5 57h-182v-453z" />
<glyph unicode="&#xdf;" horiz-adv-x="1314" d="M160 0v1188q0 189 131 304.5t342 115.5q206 0 324 -88.5t118 -241.5q0 -62 -18.5 -111.5t-45.5 -80.5t-54 -58t-45.5 -58.5t-18.5 -68.5q0 -43 34 -82.5t82 -76.5t96 -81t82 -116t34 -162q0 -183 -124.5 -291t-322.5 -108q-118 0 -215 22l23 205q79 -27 170 -27 q105 0 166 51.5t61 151.5q0 58 -34 111t-82 95t-96 85t-82 100t-34 121q0 53 19 96.5t45.5 72.5t53.5 55t46 56t19 62q0 79 -52.5 123.5t-150.5 44.5q-104 0 -168 -62t-64 -165v-1182h-239z" />
<glyph unicode="&#xe0;" horiz-adv-x="1075" d="M104 287q0 151 107 237t283 86q88 0 190 -20v92q0 88 -47 139t-129 51q-75 0 -127 -30t-96 -90l-150 133q74 94 169 140t226 46q174 0 283 -100.5t109 -276.5v-694h-226v94q-118 -114 -276 -114q-140 0 -228 84t-88 223zM168 1614h270l191 -391h-187zM346 307 q0 -65 40 -98t110 -33q98 0 188 90v154q-68 14 -149 14q-189 0 -189 -127z" />
<glyph unicode="&#xe1;" horiz-adv-x="1075" d="M104 287q0 151 107 237t283 86q88 0 190 -20v92q0 88 -47 139t-129 51q-75 0 -127 -30t-96 -90l-150 133q74 94 169 140t226 46q174 0 283 -100.5t109 -276.5v-694h-226v94q-118 -114 -276 -114q-140 0 -228 84t-88 223zM346 307q0 -65 40 -98t110 -33q98 0 188 90v154 q-68 14 -149 14q-189 0 -189 -127zM442 1223l191 391h270l-272 -391h-189z" />
<glyph unicode="&#xe2;" horiz-adv-x="1075" d="M104 287q0 151 107 237t283 86q88 0 190 -20v92q0 88 -47 139t-129 51q-75 0 -127 -30t-96 -90l-150 133q74 94 169 140t226 46q174 0 283 -100.5t109 -276.5v-694h-226v94q-118 -114 -276 -114q-140 0 -228 84t-88 223zM184 1223l242 356h229l242 -356h-201l-155 196 l-156 -196h-201zM346 307q0 -65 40 -98t110 -33q98 0 188 90v154q-68 14 -149 14q-189 0 -189 -127z" />
<glyph unicode="&#xe3;" horiz-adv-x="1075" d="M104 287q0 151 107 237t283 86q88 0 190 -20v92q0 88 -47 139t-129 51q-75 0 -127 -30t-96 -90l-150 133q74 94 169 140t226 46q174 0 283 -100.5t109 -276.5v-694h-226v94q-118 -114 -276 -114q-140 0 -228 84t-88 223zM184 1251q-9 114 47 198.5t154 84.5 q43 0 84 -18.5t67.5 -40t60.5 -40t65 -18.5q46 0 69 27.5t23 75.5h137q8 -116 -48.5 -199.5t-154.5 -83.5q-44 0 -85.5 18.5t-67.5 40t-59.5 40t-63.5 18.5q-44 0 -68.5 -28.5t-24.5 -74.5h-135zM346 307q0 -65 40 -98t110 -33q98 0 188 90v154q-68 14 -149 14 q-189 0 -189 -127z" />
<glyph unicode="&#xe4;" horiz-adv-x="1075" d="M104 287q0 151 107 237t283 86q88 0 190 -20v92q0 88 -47 139t-129 51q-75 0 -127 -30t-96 -90l-150 133q74 94 169 140t226 46q174 0 283 -100.5t109 -276.5v-694h-226v94q-118 -114 -276 -114q-140 0 -228 84t-88 223zM229 1393q0 55 38.5 94t94.5 39q57 0 96.5 -38.5 t39.5 -94.5q0 -57 -39.5 -95t-96.5 -38q-56 0 -94.5 38t-38.5 95zM346 307q0 -65 40 -98t110 -33q98 0 188 90v154q-68 14 -149 14q-189 0 -189 -127zM580 1393q0 56 39 94.5t96 38.5t95 -38.5t38 -94.5q0 -57 -38 -95t-95 -38t-96 38t-39 95z" />
<glyph unicode="&#xe5;" horiz-adv-x="1075" d="M104 287q0 151 107 237t283 86q88 0 190 -20v92q0 88 -47 139t-129 51q-75 0 -127 -30t-96 -90l-150 133q74 94 169 140t226 46q174 0 283 -100.5t109 -276.5v-694h-226v94q-118 -114 -276 -114q-140 0 -228 84t-88 223zM289 1427q0 100 73.5 167t178.5 67t177.5 -67 t72.5 -167q0 -102 -72.5 -168.5t-177.5 -66.5q-107 0 -179.5 66.5t-72.5 168.5zM346 307q0 -65 40 -98t110 -33q98 0 188 90v154q-68 14 -149 14q-189 0 -189 -127zM434 1427q0 -46 30 -75t77 -29q46 0 75 29t29 75q0 43 -29.5 73t-74.5 30q-47 0 -77 -30t-30 -73z" />
<glyph unicode="&#xe6;" horiz-adv-x="1724" d="M104 281q0 152 106.5 238.5t283.5 86.5q32 0 62.5 -2.5t45.5 -4.5t45.5 -7t36.5 -6v96q0 88 -47 139t-129 51q-75 0 -127 -30t-96 -90l-150 133q74 94 169 140t226 46q100 0 182 -34.5t134 -100.5q138 135 344 135q237 0 350 -161.5t80 -465.5h-692q7 -122 85.5 -194 t198.5 -72q159 0 254 123l150 -137q-66 -89 -171.5 -136.5t-232.5 -47.5q-258 0 -405 172l-12 -17q-133 -155 -357 -155q-147 0 -240.5 76t-93.5 225zM346 299q0 -123 152 -123q74 0 130 44.5t56 127.5v72q-68 14 -145 14q-97 0 -145 -31.5t-48 -103.5zM930 635h463 q-3 113 -59.5 176t-155.5 63t-166.5 -66t-81.5 -173z" />
<glyph unicode="&#xe7;" horiz-adv-x="1089" d="M92 526q0 124 42.5 228t115 172.5t169.5 106.5t206 38q265 0 411 -211l-172 -121q-38 60 -98 96.5t-139 36.5q-130 0 -211.5 -93.5t-81.5 -252.5t82 -253.5t211 -94.5q79 0 139 36.5t98 96.5l172 -121q-139 -201 -385 -210l-18 -86q101 -3 166 -54.5t65 -150.5 q0 -96 -79 -151.5t-187 -55.5q-128 0 -207 45l37 123q61 -35 131 -35q50 0 87.5 20.5t37.5 63.5q0 47 -41 70.5t-104 23.5q-33 0 -60 -10l58 203q-195 29 -320 173t-125 367z" />
<glyph unicode="&#xe8;" horiz-adv-x="1132" d="M92 516q0 129 40.5 235.5t109.5 175.5t160 106.5t194 37.5q237 0 350 -161.5t80 -465.5h-692q7 -122 85.5 -194t198.5 -72q159 0 254 123l150 -137q-66 -89 -171.5 -136.5t-232.5 -47.5q-109 0 -203.5 35t-167 100.5t-114 169t-41.5 231.5zM223 1614h271l190 -391h-186z M336 635h463q-3 113 -59.5 176t-155.5 63t-166.5 -66t-81.5 -173z" />
<glyph unicode="&#xe9;" horiz-adv-x="1132" d="M92 516q0 129 40.5 235.5t109.5 175.5t160 106.5t194 37.5q237 0 350 -161.5t80 -465.5h-692q7 -122 85.5 -194t198.5 -72q159 0 254 123l150 -137q-66 -89 -171.5 -136.5t-232.5 -47.5q-109 0 -203.5 35t-167 100.5t-114 169t-41.5 231.5zM336 635h463q-3 113 -59.5 176 t-155.5 63t-166.5 -66t-81.5 -173zM498 1223l190 391h270l-272 -391h-188z" />
<glyph unicode="&#xea;" horiz-adv-x="1132" d="M92 516q0 129 40.5 235.5t109.5 175.5t160 106.5t194 37.5q237 0 350 -161.5t80 -465.5h-692q7 -122 85.5 -194t198.5 -72q159 0 254 123l150 -137q-66 -89 -171.5 -136.5t-232.5 -47.5q-109 0 -203.5 35t-167 100.5t-114 169t-41.5 231.5zM240 1223l241 356h230 l241 -356h-200l-156 196l-156 -196h-200zM336 635h463q-3 113 -59.5 176t-155.5 63t-166.5 -66t-81.5 -173z" />
<glyph unicode="&#xeb;" horiz-adv-x="1132" d="M92 516q0 129 40.5 235.5t109.5 175.5t160 106.5t194 37.5q237 0 350 -161.5t80 -465.5h-692q7 -122 85.5 -194t198.5 -72q159 0 254 123l150 -137q-66 -89 -171.5 -136.5t-232.5 -47.5q-109 0 -203.5 35t-167 100.5t-114 169t-41.5 231.5zM285 1393q0 55 38.5 94 t94.5 39q57 0 96 -38.5t39 -94.5q0 -57 -39 -95t-96 -38q-56 0 -94.5 38t-38.5 95zM336 635h463q-3 113 -59.5 176t-155.5 63t-166.5 -66t-81.5 -173zM635 1393q0 56 39 94.5t96 38.5t95 -38.5t38 -94.5q0 -57 -38 -95t-95 -38t-96 38t-39 95z" />
<glyph unicode="&#xec;" horiz-adv-x="565" d="M-92 1614h270l191 -391h-187zM164 0v1051h239v-1051h-239z" />
<glyph unicode="&#xed;" horiz-adv-x="565" d="M164 0v1051h239v-1051h-239zM182 1223l191 391h270l-272 -391h-189z" />
<glyph unicode="&#xee;" horiz-adv-x="565" d="M-76 1223l242 356h229l242 -356h-201l-155 196l-156 -196h-201zM164 0v1051h239v-1051h-239z" />
<glyph unicode="&#xef;" horiz-adv-x="565" d="M-31 1393q0 55 38.5 94t94.5 39q57 0 96.5 -38.5t39.5 -94.5q0 -57 -39.5 -95t-96.5 -38q-56 0 -94.5 38t-38.5 95zM164 0v1051h239v-1051h-239zM319 1393q0 56 39.5 94.5t96.5 38.5t95 -38.5t38 -94.5q0 -57 -38 -95t-95 -38t-96.5 38t-39.5 95z" />
<glyph unicode="&#xf0;" horiz-adv-x="1228" d="M92 479q0 149 66 265t177 177.5t245 61.5q153 0 268 -78q-50 233 -168 357l-178 -154l-109 106l162 140q-125 61 -301 61v176q275 0 461 -100l166 143l110 -104l-149 -129q280 -247 280 -826q0 -146 -38.5 -260.5t-108 -187t-162.5 -110t-205 -37.5q-225 0 -370.5 136.5 t-145.5 362.5zM334 483q0 -143 75 -224t199 -81q126 0 200.5 84.5t74.5 233.5q0 126 -77.5 207t-197.5 81q-123 0 -198.5 -83t-75.5 -218z" />
<glyph unicode="&#xf1;" horiz-adv-x="1232" d="M164 0v1051h229v-125q42 62 121 103.5t193 41.5q167 0 269.5 -109.5t102.5 -293.5v-668h-239v629q0 98 -54.5 159.5t-146.5 61.5q-78 0 -133.5 -33t-102.5 -88v-729h-239zM256 1251q-9 114 47 198.5t154 84.5q43 0 84 -18.5t67 -40t60 -40t65 -18.5q46 0 69 27.5t23 75.5 h138q8 -116 -48.5 -199.5t-154.5 -83.5q-44 0 -85.5 18.5t-68 40t-60 40t-63.5 18.5q-44 0 -68 -28.5t-24 -74.5h-135z" />
<glyph unicode="&#xf2;" horiz-adv-x="1269" d="M92 526q0 160 74 285.5t197 192.5t272 67t272 -67t197 -192.5t74 -285.5q0 -121 -43 -224t-117 -173t-173 -109.5t-210 -39.5t-210 39.5t-173 109.5t-117 173t-43 224zM264 1614h271l190 -391h-186zM334 526q0 -155 86 -251.5t215 -96.5t215 96.5t86 251.5 q0 154 -85.5 250t-215.5 96t-215.5 -96t-85.5 -250z" />
<glyph unicode="&#xf3;" horiz-adv-x="1269" d="M92 526q0 160 74 285.5t197 192.5t272 67t272 -67t197 -192.5t74 -285.5q0 -121 -43 -224t-117 -173t-173 -109.5t-210 -39.5t-210 39.5t-173 109.5t-117 173t-43 224zM334 526q0 -155 86 -251.5t215 -96.5t215 96.5t86 251.5q0 154 -85.5 250t-215.5 96t-215.5 -96 t-85.5 -250zM539 1223l190 391h270l-272 -391h-188z" />
<glyph unicode="&#xf4;" horiz-adv-x="1269" d="M92 526q0 160 74 285.5t197 192.5t272 67t272 -67t197 -192.5t74 -285.5q0 -121 -43 -224t-117 -173t-173 -109.5t-210 -39.5t-210 39.5t-173 109.5t-117 173t-43 224zM281 1223l241 356h230l241 -356h-200l-156 196l-156 -196h-200zM334 526q0 -155 86 -251.5t215 -96.5 t215 96.5t86 251.5q0 154 -85.5 250t-215.5 96t-215.5 -96t-85.5 -250z" />
<glyph unicode="&#xf5;" horiz-adv-x="1269" d="M92 526q0 160 74 285.5t197 192.5t272 67t272 -67t197 -192.5t74 -285.5q0 -121 -43 -224t-117 -173t-173 -109.5t-210 -39.5t-210 39.5t-173 109.5t-117 173t-43 224zM281 1251q-9 115 46.5 199t153.5 84q43 0 84 -18.5t67.5 -40t60.5 -40t65 -18.5q46 0 69 27.5 t23 75.5h137q8 -116 -48.5 -199.5t-154.5 -83.5q-44 0 -85.5 18.5t-67.5 40t-59.5 40t-63.5 18.5q-44 0 -68 -28.5t-24 -74.5h-135zM334 526q0 -155 86 -251.5t215 -96.5t215 96.5t86 251.5q0 154 -85.5 250t-215.5 96t-215.5 -96t-85.5 -250z" />
<glyph unicode="&#xf6;" horiz-adv-x="1269" d="M92 526q0 160 74 285.5t197 192.5t272 67t272 -67t197 -192.5t74 -285.5q0 -121 -43 -224t-117 -173t-173 -109.5t-210 -39.5t-210 39.5t-173 109.5t-117 173t-43 224zM326 1393q0 55 39 94t94 39q57 0 96 -38.5t39 -94.5q0 -57 -39 -95t-96 -38q-56 0 -94.5 38t-38.5 95 zM334 526q0 -155 86 -251.5t215 -96.5t215 96.5t86 251.5q0 154 -85.5 250t-215.5 96t-215.5 -96t-85.5 -250zM676 1393q0 56 39 94.5t96 38.5t95 -38.5t38 -94.5q0 -57 -38 -95t-95 -38t-96 38t-39 95z" />
<glyph unicode="&#xf7;" horiz-adv-x="1120" d="M66 647v225h989v-225h-989zM410 293q0 64 43 107.5t106 43.5q65 0 109.5 -43.5t44.5 -107.5q0 -63 -45 -107.5t-109 -44.5q-63 0 -106 44.5t-43 107.5zM410 1225q0 65 43 109t106 44q65 0 109.5 -44.5t44.5 -108.5q0 -63 -44.5 -106.5t-109.5 -43.5q-63 0 -106 43.5 t-43 106.5z" />
<glyph unicode="&#xf8;" horiz-adv-x="1269" d="M92 526q0 160 74 285.5t197 192.5t272 67q141 0 264 -63l84 112l131 -98l-84 -113q148 -155 148 -383q0 -121 -43 -224t-117 -173t-173 -109.5t-210 -39.5q-138 0 -260 61l-88 -117l-133 99l88 116q-150 153 -150 387zM334 526q0 -113 49 -200l387 514q-62 32 -135 32 q-130 0 -215.5 -96t-85.5 -250zM502 211q59 -33 133 -33q129 0 215 96.5t86 251.5q0 117 -47 197z" />
<glyph unicode="&#xf9;" horiz-adv-x="1208" d="M154 430v621h239v-623q0 -102 58 -164.5t153 -62.5t153 62.5t58 164.5v623h240v-621q0 -197 -124.5 -323.5t-326.5 -126.5t-326 126.5t-124 323.5zM231 1614h271l190 -391h-186z" />
<glyph unicode="&#xfa;" horiz-adv-x="1208" d="M154 430v621h239v-623q0 -102 58 -164.5t153 -62.5t153 62.5t58 164.5v623h240v-621q0 -197 -124.5 -323.5t-326.5 -126.5t-326 126.5t-124 323.5zM506 1223l190 391h271l-273 -391h-188z" />
<glyph unicode="&#xfb;" horiz-adv-x="1208" d="M154 430v621h239v-623q0 -102 58 -164.5t153 -62.5t153 62.5t58 164.5v623h240v-621q0 -197 -124.5 -323.5t-326.5 -126.5t-326 126.5t-124 323.5zM248 1223l241 356h230l242 -356h-201l-156 196l-155 -196h-201z" />
<glyph unicode="&#xfc;" horiz-adv-x="1208" d="M154 430v621h239v-623q0 -102 58 -164.5t153 -62.5t153 62.5t58 164.5v623h240v-621q0 -197 -124.5 -323.5t-326.5 -126.5t-326 126.5t-124 323.5zM293 1393q0 55 38.5 94t94.5 39q57 0 96 -38.5t39 -94.5q0 -57 -39 -95t-96 -38q-56 0 -94.5 38t-38.5 95zM643 1393 q0 56 39 94.5t96 38.5t95 -38.5t38 -94.5q0 -57 -38 -95t-95 -38t-96 38t-39 95z" />
<glyph unicode="&#xfd;" horiz-adv-x="1112" d="M27 1051h256l274 -746l272 746h256l-616 -1573h-254l217 542zM459 1223l190 391h271l-273 -391h-188z" />
<glyph unicode="&#xfe;" horiz-adv-x="1282" d="M164 -522v2113h239v-628q108 108 302 108q75 0 145.5 -21.5t132.5 -66t108 -107.5t72.5 -153.5t26.5 -196.5q0 -109 -27 -199.5t-74 -154t-110.5 -107.5t-135.5 -64.5t-151 -20.5q-186 0 -289 106v-608h-239zM401 297q90 -119 250 -119q124 0 210.5 91t86.5 257 q0 84 -24.5 151t-66.5 109t-94.5 64t-111.5 22q-161 0 -250 -118v-457z" />
<glyph unicode="&#xff;" horiz-adv-x="1112" d="M27 1051h256l274 -746l272 746h256l-616 -1573h-254l217 542zM246 1393q0 55 39 94t94 39q57 0 96 -38.5t39 -94.5q0 -57 -39 -95t-96 -38q-56 0 -94.5 38t-38.5 95zM596 1393q0 56 39 94.5t96 38.5t95 -38.5t38 -94.5q0 -57 -38 -95t-95 -38t-96 38t-39 95z" />
<glyph unicode="&#x152;" horiz-adv-x="2291" d="M98 768q0 173 60.5 320t165.5 248.5t250.5 158.5t312.5 57q154 0 290.5 -48t239.5 -138v166h783v-223h-531v-412h473v-219h-471l-2 -16v-439h533v-223h-785v170q-216 -188 -530 -188q-223 0 -402.5 97.5t-283 277.5t-103.5 411zM354 768q0 -164 69 -293t190 -199.5 t272 -70.5q230 0 380 157t150 406q0 248 -149.5 404.5t-380.5 156.5q-230 0 -380.5 -157t-150.5 -404z" />
<glyph unicode="&#x153;" horiz-adv-x="1976" d="M92 526q0 160 74 285.5t197 192.5t272 67q124 0 232.5 -48t183.5 -136q70 90 171 137t218 47q237 0 350 -161.5t80 -465.5h-692q7 -122 85.5 -194t198.5 -72q159 0 254 123l150 -137q-66 -89 -171.5 -136.5t-232.5 -47.5t-234.5 46.5t-178.5 135.5q-75 -87 -183 -134.5 t-231 -47.5q-111 0 -210 39.5t-173 109.5t-117 173t-43 224zM334 526q0 -155 86 -251.5t215 -96.5t215 96.5t86 251.5q0 154 -85.5 250t-215.5 96t-215.5 -96t-85.5 -250zM1180 635h462q-3 113 -59.5 176t-155.5 63t-166 -66t-81 -173z" />
<glyph unicode="&#x178;" horiz-adv-x="1513" d="M31 1532h293l434 -690l432 690h295l-600 -940v-592h-252v592zM444 1788q0 57 39 96t95 39q57 0 96 -39t39 -96t-39 -95t-96 -38q-56 0 -95 38t-39 95zM795 1788q0 57 39 96t96 39t95 -39t38 -96t-38 -95t-95 -38t-96 38t-39 95z" />
<glyph unicode="&#x2c6;" horiz-adv-x="763" d="M25 1223l241 356h230l241 -356h-200l-156 196l-156 -196h-200z" />
<glyph unicode="&#x2dc;" horiz-adv-x="763" d="M29 1251q-9 115 46.5 199t153.5 84q43 0 84 -18.5t67.5 -40t60.5 -40t65 -18.5q46 0 69 27.5t23 75.5h137q8 -116 -48.5 -199.5t-154.5 -83.5q-44 0 -85.5 18.5t-67.5 40t-59.5 40t-63.5 18.5q-44 0 -68 -28.5t-24 -74.5h-135z" />
<glyph unicode="&#x2000;" horiz-adv-x="1022" />
<glyph unicode="&#x2001;" horiz-adv-x="2044" />
<glyph unicode="&#x2002;" horiz-adv-x="1022" />
<glyph unicode="&#x2003;" horiz-adv-x="2044" />
<glyph unicode="&#x2004;" horiz-adv-x="681" />
<glyph unicode="&#x2005;" horiz-adv-x="511" />
<glyph unicode="&#x2006;" horiz-adv-x="340" />
<glyph unicode="&#x2007;" horiz-adv-x="340" />
<glyph unicode="&#x2008;" horiz-adv-x="255" />
<glyph unicode="&#x2009;" horiz-adv-x="408" />
<glyph unicode="&#x200a;" horiz-adv-x="113" />
<glyph unicode="&#x2010;" horiz-adv-x="829" d="M92 424v223h645v-223h-645z" />
<glyph unicode="&#x2011;" horiz-adv-x="829" d="M92 424v223h645v-223h-645z" />
<glyph unicode="&#x2012;" horiz-adv-x="829" d="M92 424v223h645v-223h-645z" />
<glyph unicode="&#x2013;" horiz-adv-x="1157" d="M92 424v223h973v-223h-973z" />
<glyph unicode="&#x2014;" horiz-adv-x="1632" d="M92 424v223h1448v-223h-1448z" />
<glyph unicode="&#x2018;" horiz-adv-x="444" d="M80 1133v2v2q3 280 272 426v-103q-108 -74 -129 -196q61 -3 102.5 -45.5t41.5 -102.5q0 -64 -41 -107.5t-105 -43.5q-66 0 -103.5 46.5t-37.5 121.5z" />
<glyph unicode="&#x2019;" horiz-adv-x="444" d="M78 1411q0 64 41 108t104 44q66 0 104 -46.5t38 -121.5v-2v-2q-3 -280 -273 -426v102q108 73 129 197q-61 3 -102 45t-41 102z" />
<glyph unicode="&#x201a;" horiz-adv-x="444" d="M78 129q0 64 41 108t104 44q66 0 104 -46.5t38 -121.5v-2v-2q-3 -280 -273 -426v102q108 73 129 197q-61 3 -102 45t-41 102z" />
<glyph unicode="&#x201c;" horiz-adv-x="829" d="M72 1133v2v2q3 280 272 426v-103q-108 -74 -129 -196q61 -3 102 -45.5t41 -102.5q0 -64 -40.5 -107.5t-104.5 -43.5q-66 0 -103.5 46.5t-37.5 121.5zM459 1133v2v2q3 280 272 426v-103q-108 -74 -129 -196q61 -3 102 -45.5t41 -102.5q0 -64 -40.5 -107.5t-104.5 -43.5 q-66 0 -103.5 46.5t-37.5 121.5z" />
<glyph unicode="&#x201d;" horiz-adv-x="829" d="M70 1411q0 64 41 108t104 44q66 0 103.5 -46.5t37.5 -121.5v-2v-2q-3 -280 -272 -426v102q108 73 129 197q-61 3 -102 45t-41 102zM457 1411q0 64 41 108t104 44q66 0 103.5 -46.5t37.5 -121.5v-2v-2q-3 -280 -272 -426v102q108 73 129 197q-61 3 -102 45t-41 102z" />
<glyph unicode="&#x201e;" horiz-adv-x="829" d="M78 129q0 64 41 108t104 44q66 0 104 -46.5t38 -121.5v-2v-2q-3 -280 -273 -426v102q108 73 129 197q-61 3 -102 45t-41 102zM463 129q0 64 41 108t104 44q66 0 104 -46.5t38 -121.5v-2v-2q-3 -280 -273 -426v102q108 73 129 197q-61 3 -102 45t-41 102z" />
<glyph unicode="&#x2022;" horiz-adv-x="714" d="M104 522q0 104 74 178t180 74q104 0 178 -74t74 -178q0 -106 -74 -180t-178 -74q-106 0 -180 74t-74 180z" />
<glyph unicode="&#x2026;" horiz-adv-x="1439" d="M98 129q0 65 43.5 109.5t106.5 44.5q64 0 108.5 -44.5t44.5 -109.5q0 -63 -44 -106t-109 -43q-63 0 -106.5 43t-43.5 106zM569 129q0 65 43.5 109.5t106.5 44.5q64 0 108.5 -44.5t44.5 -109.5q0 -63 -44 -106t-109 -43q-63 0 -106.5 43t-43.5 106zM1040 129 q0 65 43.5 109.5t106.5 44.5q64 0 108.5 -44.5t44.5 -109.5q0 -63 -44 -106t-109 -43q-63 0 -106.5 43t-43.5 106z" />
<glyph unicode="&#x202f;" horiz-adv-x="408" />
<glyph unicode="&#x2039;" horiz-adv-x="661" d="M31 524l422 461l170 -151l-304 -310l304 -311l-170 -150z" />
<glyph unicode="&#x203a;" horiz-adv-x="661" d="M37 213l303 311l-303 310l170 151l422 -461l-422 -461z" />
<glyph unicode="&#x205f;" horiz-adv-x="511" />
<glyph unicode="&#x20ac;" horiz-adv-x="1404" d="M18 514l56 150h155q-4 66 -4 102q0 32 4 94h-211l56 150h176q54 258 219 400t410 142q133 0 231 -31.5t188 -97.5l-77 -211q-137 117 -332 117q-143 0 -239 -82.5t-138 -236.5h623l-56 -150h-592q-4 -62 -4 -94q0 -36 4 -102h512l-55 -150h-430q43 -150 139 -230.5 t236 -80.5q191 0 330 119l106 -209q-99 -69 -203.5 -101t-247.5 -32q-243 0 -405.5 140.5t-218.5 393.5h-232z" />
<glyph unicode="&#x2122;" horiz-adv-x="1832" d="M53 1341v191h682v-191h-254v-544h-176v544h-252zM844 797v735h194l242 -475l244 475h192v-735h-176v444l-215 -444h-88l-217 444v-444h-176z" />
<glyph unicode="&#x25fc;" horiz-adv-x="1054" d="M0 0v1055h1055v-1055h-1055z" />
</font>
</defs>
</svg>
