<?xml version="1.0" standalone="no"?>
<!DOCTYPE svg PUBLIC "-//W3C//DTD SVG 1.1//EN" "http://www.w3.org/Graphics/SVG/1.1/DTD/svg11.dtd" >
<svg xmlns="http://www.w3.org/2000/svg">
<metadata></metadata>
<defs>
<font id="lasiverhairline" horiz-adv-x="1480" >
<font-face units-per-em="2048" ascent="1536" descent="-512" />
<missing-glyph horiz-adv-x="512" />
<glyph unicode="&#xfb01;" horiz-adv-x="1021" d="M41 1008v16h221v260q0 156 75 240t200 84q86 0 146.5 -26.5t117.5 -80.5l-13 -12q-105 102 -251 102q-117 0 -187.5 -80t-70.5 -227v-260h522v-1024h-17v1008h-505v-1008h-17v1008h-221z" />
<glyph unicode="&#xfb02;" horiz-adv-x="1050" d="M41 1008v16h221v256q0 169 68 248.5t192 79.5q62 0 111 -19l-6 -16q-44 18 -105 18q-115 0 -179 -75.5t-64 -235.5v-256h325v-16h-325v-1008h-17v1008h-221zM815 0v1591h16v-1591h-16z" />
<glyph horiz-adv-x="0" />
<glyph horiz-adv-x="682" />
<glyph unicode="&#xd;" horiz-adv-x="1228" />
<glyph unicode=" "  horiz-adv-x="512" />
<glyph unicode="&#x09;" horiz-adv-x="512" />
<glyph unicode="&#xa0;" horiz-adv-x="512" />
<glyph unicode="!" horiz-adv-x="452" d="M184 25q0 19 12 31t29 12q19 0 31 -12t12 -31q0 -17 -12 -29t-31 -12q-17 0 -29 12t-12 29zM217 344v1188h16v-1188h-16z" />
<glyph unicode="&#x22;" horiz-adv-x="444" d="M104 1485h52l-11 -330h-30zM289 1485h51l-10 -330h-31z" />
<glyph unicode="#" horiz-adv-x="1212" d="M23 485l4 17h290l127 532h-313l4 17h314l114 481h17l-115 -481h418l114 481h17l-115 -481h291l-4 -17h-291l-127 -532h313l-4 -17h-313l-117 -485h-16l117 485h-418l-117 -485h-16l116 485h-290zM334 502h418l127 532h-418z" />
<glyph unicode="$" horiz-adv-x="1118" d="M115 256l14 10q145 -266 449 -266q172 0 280.5 99t108.5 290q0 60 -12 107.5t-37 82.5t-55.5 61.5t-76 48.5t-89 39.5t-102.5 38.5q-10 3 -15 5q-73 26 -120 44.5t-99 44.5t-83 53t-58 62.5t-38.5 80.5t-11.5 100q0 173 104.5 281.5t276.5 109.5v224h16v-224 q264 -3 381 -235l-14 -8q-112 227 -377 227q-168 0 -269.5 -103.5t-101.5 -271.5q0 -53 11.5 -95t37 -76.5t56 -60.5t80 -51t96.5 -43.5t117 -42.5q61 -21 100.5 -36t85.5 -36.5t75 -42t58 -49.5t44.5 -62t25.5 -77t10 -96q0 -102 -31.5 -180.5t-87 -127t-128 -73 t-158.5 -24.5h-11v-226h-16v226q-293 12 -436 272z" />
<glyph unicode="%" horiz-adv-x="1613" d="M92 1208q0 150 93.5 244t226.5 94q134 0 226.5 -94t92.5 -244q0 -149 -92.5 -243.5t-226.5 -94.5q-133 0 -226.5 94.5t-93.5 243.5zM109 1208q0 -141 88.5 -231t214.5 -90q127 0 215 89.5t88 231.5q0 143 -87.5 232.5t-215.5 89.5q-126 0 -214.5 -89.5t-88.5 -232.5z M209 0l1175 1532h21l-1176 -1532h-20zM883 324q0 149 92.5 243.5t226.5 94.5q133 0 226.5 -94.5t93.5 -243.5q0 -150 -93.5 -244t-226.5 -94q-134 0 -226.5 94t-92.5 244zM899 324q0 -143 87.5 -232.5t215.5 -89.5q126 0 214.5 89.5t88.5 232.5q0 141 -88.5 231t-214.5 90 q-127 0 -215 -89.5t-88 -231.5z" />
<glyph unicode="&#x26;" horiz-adv-x="1347" d="M96 371q0 44 5.5 82t20.5 72.5t29.5 61.5t43.5 57t51.5 51.5t65 52t71.5 50t82 54.5q-58 55 -93 91t-77 89t-62 105t-20 106q0 143 91.5 224t221.5 81q121 0 217.5 -84.5t96.5 -214.5q0 -26 -4 -50.5t-15 -48t-20 -43t-29.5 -41.5t-33.5 -37t-41 -37t-42.5 -33.5 t-48.5 -34.5t-48 -32.5t-52 -33.5l-14 -8q70 -66 98 -94l424 -430q95 151 198 430l17 -6q-98 -271 -203 -437l309 -313h-22l-295 299q-102 -156 -223.5 -233.5t-276.5 -77.5q-184 0 -303 102.5t-119 280.5zM113 371q0 -170 115 -268.5t290 -98.5q152 0 270.5 77t217.5 230 l-428 434q-14 14 -30.5 29.5t-37.5 34.5t-33 31q-68 -44 -107.5 -71t-87.5 -65t-74 -69.5t-50.5 -73t-34.5 -88t-10 -102.5zM229 1243q0 -52 20 -103t62 -103t76 -87.5t92 -89.5l17 10q51 33 72.5 47t65.5 45t63.5 49.5t49 49.5t42.5 57.5t23.5 60.5t10.5 70 q0 124 -92 203.5t-205 79.5q-123 0 -210 -76t-87 -213z" />
<glyph unicode="'" horiz-adv-x="260" d="M104 1485h52l-11 -330h-30z" />
<glyph unicode="(" horiz-adv-x="409" d="M92 655q0 233 71 445.5t181 369.5l14 -8q-109 -154 -179 -364t-70 -443q0 -232 70 -441.5t179 -363.5l-14 -8q-110 157 -181 368.5t-71 444.5z" />
<glyph unicode=")" horiz-adv-x="409" d="M51 -150q110 155 180 364t70 441t-70.5 442t-179.5 365l15 8q109 -156 180 -368.5t71 -446.5q0 -233 -70.5 -444.5t-180.5 -368.5z" />
<glyph unicode="*" horiz-adv-x="585" d="M31 1335l6 17l248 -80v260h16v-260l248 80l6 -17l-248 -80l154 -211l-15 -12l-153 211l-154 -211l-14 12l154 211z" />
<glyph unicode="+" horiz-adv-x="1114" d="M72 748v16h477v465h16v-465h477v-16h-477v-484h-16v484h-477z" />
<glyph unicode="," horiz-adv-x="301" d="M68 -252q100 95 90 240h-8q-14 0 -25.5 11t-11.5 26t11 26.5t26 11.5q40 0 40 -53q0 -186 -122 -280v18z" />
<glyph unicode="-" horiz-adv-x="815" d="M92 526v17h631v-17h-631z" />
<glyph unicode="." horiz-adv-x="301" d="M109 25q0 19 12 31t29 12q19 0 31 -12t12 -31q0 -17 -12 -29t-31 -12q-17 0 -29 12t-12 29z" />
<glyph unicode="/" horiz-adv-x="600" d="M31 -137l524 1669h14l-520 -1669h-18z" />
<glyph unicode="0" horiz-adv-x="1298" d="M139 766q0 373 139 577.5t371 204.5t371 -204.5t139 -577.5q0 -370 -139 -576t-371 -206t-371 206t-139 576zM156 766q0 -365 135 -565.5t358 -200.5t358.5 200.5t135.5 565.5t-133.5 565.5t-360.5 200.5t-360 -200.5t-133 -565.5z" />
<glyph unicode="1" horiz-adv-x="702" d="M68 1272v20l393 240h16v-1532h-16v1511z" />
<glyph unicode="2" horiz-adv-x="1079" d="M102 0v16q304 268 398 359q235 227 329 405q91 172 91 359q0 176 -104.5 284.5t-270.5 108.5q-147 0 -248 -58t-172 -182l-14 11q74 126 179 185.5t255 59.5q174 0 282.5 -113t108.5 -296q0 -75 -13 -145.5t-41.5 -137.5t-62.5 -127.5t-88.5 -127t-106.5 -124 t-128.5 -130t-143.5 -133t-162 -144.5q-40 -36 -61 -54h838v-16h-865z" />
<glyph unicode="3" horiz-adv-x="1036" d="M59 205l13 10q73 -112 168.5 -163.5t248.5 -51.5q183 0 300.5 111t117.5 292q0 186 -128 291t-326 105h-142v16h123q174 0 293 96t119 256q0 165 -100.5 265t-268.5 100q-127 0 -220.5 -52.5t-164.5 -162.5l-12 10q73 114 169.5 167.5t227.5 53.5q176 0 280.5 -104 t104.5 -277q0 -143 -89.5 -236t-229.5 -122q171 -24 276 -129.5t105 -276.5q0 -189 -122 -304t-313 -115q-156 0 -255 53t-175 168z" />
<glyph unicode="4" horiz-adv-x="1187" d="M68 467v16l503 1049h19l-504 -1049h684v494h16v-494h351v-16h-351v-467h-16v467h-702z" />
<glyph unicode="5" horiz-adv-x="1116" d="M137 205l13 10q73 -112 168.5 -163.5t248.5 -51.5q186 0 303 119.5t117 320.5q0 206 -125 323.5t-325 117.5q-103 0 -176 -21t-156 -67h-17v739h758v-16h-741v-707q141 88 332 88q207 0 337 -123t130 -334q0 -209 -121.5 -332.5t-315.5 -123.5q-156 0 -255 53t-175 168z " />
<glyph unicode="6" horiz-adv-x="1155" d="M139 731q0 397 124 607t358 210q131 0 219 -46.5t166 -143.5l-13 -10q-74 94 -159.5 139t-212.5 45q-227 0 -346 -206.5t-119 -594.5q0 -123 2 -164q34 143 156.5 236.5t281.5 93.5q202 0 325 -120.5t123 -332.5t-115 -336t-327 -124q-121 0 -214.5 45.5t-149.5 130.5 q-63 96 -81 202t-18 369zM166 434l2 -24q15 -140 84 -242q117 -168 350 -168q205 0 315.5 119.5t110.5 324.5q0 206 -118.5 321.5t-313.5 115.5q-123 0 -225 -59t-158.5 -162.5t-46.5 -225.5z" />
<glyph unicode="7" horiz-adv-x="1060" d="M55 1516v16h967v-16l-877 -1516h-18l877 1516h-949z" />
<glyph unicode="8" horiz-adv-x="1183" d="M137 406q0 167 94.5 271.5t260.5 131.5q-151 27 -231.5 124t-80.5 245q0 164 116 267t296 103q181 0 296.5 -101.5t115.5 -268.5q0 -147 -83 -245.5t-229 -123.5q167 -28 261 -134t94 -269q0 -194 -121 -308t-334 -114q-214 0 -334.5 115t-120.5 307zM154 406 q0 -186 116.5 -296t321.5 -110q209 0 323.5 110t114.5 296t-119.5 290.5t-318.5 104.5q-202 0 -320 -105t-118 -290zM197 1178q0 -163 102.5 -262t292.5 -99t292.5 101t102.5 260q0 160 -111 257t-284 97q-174 0 -284.5 -99t-110.5 -255z" />
<glyph unicode="9" horiz-adv-x="1155" d="M139 1087q0 212 115 336.5t328 124.5q121 0 214.5 -45.5t149.5 -130.5q62 -96 80 -201.5t18 -369.5q0 -397 -124 -607t-357 -210q-131 0 -219 46.5t-166 143.5l12 10q74 -94 160 -139t213 -45q227 0 346 206.5t119 594.5q0 123 -2 164q-34 -143 -156.5 -236.5 t-281.5 -93.5q-202 0 -325.5 120.5t-123.5 331.5zM156 1087q0 -206 118.5 -321t313.5 -115q123 0 225 59t158.5 162.5t46.5 225.5l-2 24q-15 140 -84 242q-117 168 -350 168q-205 0 -315.5 -120t-110.5 -325z" />
<glyph unicode=":" horiz-adv-x="301" d="M109 25q0 19 12 31t29 12q19 0 31 -12t12 -31q0 -17 -12 -29t-31 -12q-17 0 -29 12t-12 29zM109 997q0 19 12 31t29 12q19 0 31 -12t12 -31q0 -17 -12 -29t-31 -12q-17 0 -29 12t-12 29z" />
<glyph unicode=";" horiz-adv-x="301" d="M68 -252q100 95 90 240h-8q-14 0 -25.5 11t-11.5 26t11 26.5t26 11.5q40 0 40 -53q0 -186 -122 -280v18zM109 997q0 19 12 31t29 12q19 0 31 -12t12 -31q0 -17 -12 -29t-31 -12q-17 0 -29 12t-12 29z" />
<glyph unicode="&#x3c;" horiz-adv-x="1007" d="M51 756l879 381l6 -15l-844 -366l844 -367l-6 -14z" />
<glyph unicode="=" horiz-adv-x="1114" d="M72 502v16h970v-16h-970zM72 979v16h970v-16h-970z" />
<glyph unicode="&#x3e;" horiz-adv-x="1007" d="M72 389l843 367l-843 366l6 15l878 -381l-878 -381z" />
<glyph unicode="?" horiz-adv-x="937" d="M66 1303q143 245 413 245q180 0 294 -109.5t114 -279.5q0 -138 -56 -230t-180 -177q-78 -59 -118 -102t-59.5 -96.5t-18.5 -129.5q0 -22 4 -80h-17q-4 58 -4 80q-1 76 18.5 131.5t61.5 102.5t121 106q117 80 174 171t57 224q0 163 -109 268t-282 105q-133 0 -231 -58.5 t-168 -181.5zM406 25q0 19 11.5 31t28.5 12q19 0 31 -12t12 -31q0 -17 -12 -29t-31 -12q-17 0 -28.5 12t-11.5 29z" />
<glyph unicode="@" horiz-adv-x="1652" d="M125 502q0 201 89.5 361t249.5 250.5t361 90.5q150 0 280.5 -53t223.5 -145.5t146 -223t53 -280.5q0 -190 -69.5 -294t-176.5 -104q-63 0 -103 31t-46 82q-123 -127 -308 -127q-74 0 -141 25t-122.5 73.5t-88.5 131t-33 188.5q0 105 33 187t88.5 130.5t122.5 73.5t141 25 q111 0 182 -33.5t123 -93.5v112h17v-657q0 -61 34.5 -96t100.5 -35q98 0 163.5 99t65.5 282q0 146 -52 273.5t-142.5 218t-218 142.5t-273.5 52q-147 0 -274 -52t-217 -142.5t-141.5 -218t-51.5 -273.5t51.5 -273t142 -217.5t217.5 -142t273 -51.5q121 0 215 29.5t181 89.5 l8 -15q-90 -60 -185.5 -90.5t-218.5 -30.5q-200 0 -360 90t-250 250.5t-90 360.5zM457 508q0 -101 32 -180.5t85 -126.5t117 -71t134 -24q106 0 178 35t127 99v530q-61 73 -128.5 105t-176.5 32q-70 0 -134 -24t-117 -70.5t-85 -125t-32 -179.5z" />
<glyph unicode="A" d="M72 0l661 1532h17l659 -1532h-18l-250 580h-801l-250 -580h-18zM346 596h789l-394 913z" />
<glyph unicode="B" horiz-adv-x="1189" d="M225 0v1532h359q193 0 301 -97t108 -280q0 -154 -66.5 -249t-189.5 -118q146 -23 224.5 -122.5t78.5 -268.5q0 -192 -117.5 -294.5t-318.5 -102.5h-379zM242 16h362q195 0 307.5 99t112.5 282q0 189 -98 285t-289 96h-395v-762zM242 795h391q166 0 255 91t89 269 q0 177 -104 269t-289 92h-342v-721z" />
<glyph unicode="C" horiz-adv-x="1550" d="M139 766q0 172 61.5 320t165 248.5t240.5 157t287 56.5q378 0 565 -266l-12 -10q-184 260 -553 260q-147 0 -281 -55.5t-235 -153.5t-161 -243t-60 -314t60 -314t161 -243t235 -153.5t281 -55.5q369 0 553 260l12 -10q-187 -266 -565 -266q-150 0 -287 56.5t-240.5 157 t-165 248.5t-61.5 320z" />
<glyph unicode="D" horiz-adv-x="1622" d="M225 0v1532h465q119 0 232 -29t215 -91t179 -150.5t122 -216t45 -279.5t-45 -279.5t-122 -216t-179 -150.5t-215 -91t-232 -29h-465zM242 16h448q116 0 226.5 28t210.5 88.5t175 147t119.5 212t44.5 274.5t-44.5 274.5t-119.5 212t-175 147t-210.5 88.5t-226.5 28h-448 v-1500z" />
<glyph unicode="E" horiz-adv-x="1001" d="M225 0v1532h715v-16h-698v-709h643v-16h-643v-775h698v-16h-715z" />
<glyph unicode="F" horiz-adv-x="972" d="M225 0v1532h697v-16h-680v-730h596v-16h-596v-770h-17z" />
<glyph unicode="G" horiz-adv-x="1638" d="M139 766q0 172 61.5 320t165 248.5t240.5 157t287 56.5q378 0 565 -266l-12 -10q-184 260 -553 260q-147 0 -281 -55.5t-235 -153.5t-161 -243t-60 -314t60 -314t161 -243t235 -153.5t281 -55.5q364 0 557 236v471h-510v16h526v-494q-97 -122 -243.5 -183.5t-329.5 -61.5 q-150 0 -287 56.5t-240.5 157t-165 248.5t-61.5 320z" />
<glyph unicode="H" horiz-adv-x="1579" d="M225 0v1532h17v-719h1095v719h17v-1532h-17v797h-1095v-797h-17z" />
<glyph unicode="I" horiz-adv-x="466" d="M225 0v1532h17v-1532h-17z" />
<glyph unicode="J" horiz-adv-x="980" d="M41 256l16 6q88 -262 353 -262q148 0 244 100.5t96 266.5v1165h16v-1165q0 -175 -100 -279t-256 -104q-279 0 -369 272z" />
<glyph unicode="K" horiz-adv-x="1323" d="M225 0v1532h17v-965l934 965h22l-663 -688l729 -844h-23l-719 831l-280 -288v-543h-17z" />
<glyph unicode="L" horiz-adv-x="1046" d="M225 0v1532h17v-1516h731v-16h-748z" />
<glyph unicode="M" horiz-adv-x="2029" d="M225 0v1532h17l774 -1507l772 1507h16v-1532h-16v1493l-768 -1493h-10l-768 1493v-1493h-17z" />
<glyph unicode="N" horiz-adv-x="1579" d="M225 0v1532h17l1095 -1503v1503h17v-1532h-17l-1095 1503v-1503h-17z" />
<glyph unicode="O" horiz-adv-x="1800" d="M139 766q0 174 60 322t162.5 248t241.5 156t296 56q158 0 297 -56t242 -156t163 -248t60 -322t-60.5 -322t-164 -248t-242.5 -156t-295 -56t-295 56t-242 156t-163 248t-60 322zM156 766q0 -170 59 -315t159.5 -243t236.5 -153t288 -55t288.5 55t237.5 153t160.5 243 t59.5 315t-58.5 315t-159.5 243t-237.5 153t-290.5 55q-153 0 -289 -55t-236.5 -153t-159 -243t-58.5 -315z" />
<glyph unicode="P" horiz-adv-x="1124" d="M225 0v1532h346q136 0 239.5 -44t165.5 -140t62 -234t-62 -234t-165.5 -140t-239.5 -44h-329v-696h-17zM242 713h329q202 0 326.5 102t124.5 299q0 133 -60 225t-160 134.5t-231 42.5h-329v-803z" />
<glyph unicode="Q" horiz-adv-x="1800" d="M139 766q0 174 60 322t162.5 248t241.5 156t296 56q158 0 297 -56t242 -156t163 -248t60 -322q0 -214 -88 -383t-242 -272l279 -357h-21l-270 348q-183 -118 -420 -118q-156 0 -295 56t-242 156t-163 248t-60 322zM156 766q0 -170 59 -315t159.5 -243t236.5 -153t288 -55 q225 0 410 115l-340 436l12 10l340 -436q151 100 237.5 265.5t86.5 375.5q0 170 -58.5 315t-159.5 243t-237.5 153t-290.5 55q-153 0 -289 -55t-236.5 -153t-159 -243t-58.5 -315z" />
<glyph unicode="R" horiz-adv-x="1198" d="M225 0v1532h336q210 0 338.5 -104.5t128.5 -309.5q0 -172 -91 -273t-249 -130l412 -715h-19l-409 713q-47 -8 -111 -8h-319v-705h-17zM242 721h319q132 0 231 41t159.5 132t60.5 224q0 197 -124.5 297.5t-326.5 100.5h-319v-795z" />
<glyph unicode="S" horiz-adv-x="1118" d="M115 256l14 10q145 -266 449 -266q172 0 280.5 99t108.5 290q0 60 -12 107.5t-37 82.5t-55.5 61.5t-76 48.5t-89 39.5t-102.5 38.5q-10 3 -15 5q-73 26 -120 44.5t-99 44.5t-83 53t-58 62.5t-38.5 80.5t-11.5 100q0 175 105.5 283t281.5 108q272 0 391 -235l-14 -8 q-112 227 -377 227q-168 0 -269.5 -103.5t-101.5 -271.5q0 -53 11.5 -95t37 -76.5t56 -60.5t80 -51t96.5 -43.5t117 -42.5q61 -21 100.5 -36t85.5 -36.5t75 -42t58 -49.5t44.5 -62t25.5 -77t10 -96q0 -102 -31.5 -180.5t-87 -127t-128 -73t-158.5 -24.5q-314 0 -463 272z " />
<glyph unicode="T" horiz-adv-x="1286" d="M31 1516v16h1224v-16h-604v-1516h-16v1516h-604z" />
<glyph unicode="U" horiz-adv-x="1579" d="M215 541v991h16v-991q0 -168 72.5 -292t197.5 -186.5t287 -62.5q248 0 404 144t156 397v991h16v-991q0 -174 -75 -301.5t-204.5 -191.5t-296.5 -64q-255 0 -414 148.5t-159 408.5z" />
<glyph unicode="V" d="M72 1532h18l651 -1509l650 1509h18l-659 -1532h-17z" />
<glyph unicode="W" horiz-adv-x="2316" d="M92 1532h19l526 -1507l514 1507h16l512 -1507l527 1507h18l-536 -1532h-17l-512 1501l-514 -1501h-16z" />
<glyph unicode="X" horiz-adv-x="1318" d="M70 0l579 780l-559 752h21l548 -739l549 739h21l-559 -752l579 -780h-20l-570 766l-569 -766h-20z" />
<glyph unicode="Y" horiz-adv-x="1318" d="M51 1532h21l587 -840l588 840h21l-600 -856v-676h-17v676z" />
<glyph unicode="Z" horiz-adv-x="1275" d="M76 0v16l1098 1500h-1051v16h1071v-16l-1098 -1500h1114v-16h-1134z" />
<glyph unicode="[" horiz-adv-x="428" d="M133 -158v1628h244v-16h-227v-1595h227v-17h-244z" />
<glyph unicode="\" horiz-adv-x="600" d="M31 1532h14l524 -1669h-18z" />
<glyph unicode="]" horiz-adv-x="428" d="M51 -141h228v1595h-228v16h244v-1628h-244v17z" />
<glyph unicode="^" horiz-adv-x="1024" d="M72 770l440 778l440 -778h-16l-424 746l-424 -746h-16z" />
<glyph unicode="_" horiz-adv-x="1392" d="M92 0h1208v-16h-1208v16z" />
<glyph unicode="`" horiz-adv-x="399" d="M61 1599h21l260 -391h-18z" />
<glyph unicode="a" horiz-adv-x="1028" d="M143 248q0 279 394 282q116 0 264 -20v201q0 146 -79.5 229.5t-211.5 83.5q-104 0 -181.5 -40.5t-140.5 -119.5l-12 10q66 82 145 124t189 42q139 0 223 -88t84 -241v-711h-16v143q-70 -75 -151 -117t-193 -42q-139 0 -226.5 71.5t-87.5 192.5zM160 248q0 -114 83 -181 t214 -67q110 0 188 42.5t156 125.5v326q-144 20 -264 20q-377 -3 -377 -266z" />
<glyph unicode="b" horiz-adv-x="1232" d="M219 0v1591h17v-731q135 180 393 180q89 0 172.5 -32.5t153 -95t111.5 -166.5t42 -234t-42 -234t-111.5 -166.5t-153 -95t-172.5 -32.5q-258 0 -393 180v-164h-17zM236 186q71 -93 162 -139.5t231 -46.5q86 0 167.5 32.5t148 93.5t107 161.5t40.5 224.5t-40.5 224.5 t-107 161.5t-148 93.5t-167.5 32.5q-140 0 -231 -46.5t-162 -139.5v-652z" />
<glyph unicode="c" horiz-adv-x="1069" d="M125 512q0 242 139 385t348 143q231 0 367 -172l-12 -12q-132 168 -355 168q-131 0 -237 -60t-170 -177.5t-64 -274.5t64 -274.5t170 -177.5t237 -60q223 0 355 168l12 -12q-136 -172 -367 -172q-209 0 -348 143t-139 385z" />
<glyph unicode="d" horiz-adv-x="1232" d="M125 512q0 130 42 234t111.5 166.5t153 95t172.5 32.5q258 0 393 -180v731h17v-1591h-17v164q-135 -180 -393 -180q-89 0 -172.5 32.5t-153 95t-111.5 166.5t-42 234zM141 512q0 -124 40.5 -224.5t107 -161.5t148 -93.5t167.5 -32.5q140 0 231 46.5t162 139.5v652 q-71 93 -162 139.5t-231 46.5q-86 0 -167.5 -32.5t-148 -93.5t-107 -161.5t-40.5 -224.5z" />
<glyph unicode="e" horiz-adv-x="1130" d="M125 502q0 239 133.5 388.5t335.5 149.5q200 0 308 -136q95 -119 95 -323q0 -28 -2 -59h-854v-14v-4q0 -117 36.5 -213t99.5 -159t148 -97.5t183 -34.5q115 0 209.5 44.5t157.5 123.5l12 -10q-65 -82 -162 -128t-217 -46q-101 0 -188.5 35.5t-153.5 100t-103.5 163.5 t-37.5 219zM141 539h838q1 24 1 47q0 197 -92 311q-104 127 -294 127q-188 0 -315.5 -134.5t-137.5 -350.5z" />
<glyph unicode="f" horiz-adv-x="595" d="M41 1008v16h221v256q0 169 68 248.5t192 79.5q62 0 111 -19l-6 -16q-44 18 -105 18q-115 0 -179 -75.5t-64 -235.5v-256h325v-16h-325v-1008h-17v1008h-221z" />
<glyph unicode="g" horiz-adv-x="1191" d="M125 512q0 130 42 234t111.5 166.5t153 95t172.5 32.5q258 0 393 -180v164h17v-1126q0 -210 -110.5 -323.5t-297.5 -113.5q-271 0 -432 201l12 10q155 -194 420 -194q179 0 285 109.5t106 310.5v266q-135 -180 -393 -180q-89 0 -172.5 32.5t-153 95t-111.5 166.5t-42 234 zM141 512q0 -124 40.5 -224.5t107 -161.5t148 -93.5t167.5 -32.5q140 0 231 46.5t162 139.5v652q-71 93 -162 139.5t-231 46.5q-86 0 -167.5 -32.5t-148 -93.5t-107 -161.5t-40.5 -224.5z" />
<glyph unicode="h" horiz-adv-x="1181" d="M219 0v1591h17v-741q146 190 376 190q165 0 262 -111t97 -288v-641h-17v641q0 170 -92.5 276.5t-249.5 106.5q-68 0 -127.5 -17t-105.5 -48.5t-78 -61.5t-65 -70v-827h-17z" />
<glyph unicode="i" horiz-adv-x="454" d="M184 1423q0 18 12.5 31.5t30.5 13.5q17 0 31 -14t14 -31q0 -18 -13.5 -30.5t-31.5 -12.5q-19 0 -31 12t-12 31zM219 0v1024h17v-1024h-17z" />
<glyph unicode="j" horiz-adv-x="456" d="M-270 -395l14 8q44 -73 102.5 -104t137.5 -31q237 0 237 293v1253h17v-1253q0 -310 -254 -310q-168 0 -254 144zM184 1423q0 18 12.5 31.5t30.5 13.5q17 0 31 -14t14 -31q0 -18 -13.5 -30.5t-31.5 -12.5q-19 0 -31 12t-12 31z" />
<glyph unicode="k" horiz-adv-x="978" d="M219 0v1591h17v-1214l634 647h23l-455 -465l498 -559h-25l-485 547l-190 -195v-352h-17z" />
<glyph unicode="l" horiz-adv-x="454" d="M219 0v1591h17v-1591h-17z" />
<glyph unicode="m" horiz-adv-x="1902" d="M219 0v1024h17v-174q60 78 152.5 134t217.5 56q119 0 205 -61.5t125 -167.5q29 42 64 78t84.5 72.5t114.5 57.5t136 21q164 0 260.5 -111t96.5 -288v-641h-17v641q0 170 -92 276.5t-248 106.5q-70 0 -131.5 -20t-110.5 -56t-83.5 -71.5t-69.5 -81.5q23 -77 23 -154v-641 h-17v641q0 170 -92 276.5t-248 106.5q-66 0 -124 -17t-103.5 -48.5t-78 -62t-64.5 -69.5v-827h-17z" />
<glyph unicode="n" horiz-adv-x="1181" d="M219 0v1024h17v-174q146 190 376 190q165 0 262 -111t97 -288v-641h-17v641q0 170 -92.5 276.5t-249.5 106.5q-68 0 -127.5 -17t-105.5 -48.5t-78 -61.5t-65 -70v-827h-17z" />
<glyph unicode="o" horiz-adv-x="1249" d="M125 512q0 155 69 277t182.5 186.5t248.5 64.5q101 0 192 -38t159 -106t108 -167.5t40 -216.5q0 -116 -40 -216t-108 -167.5t-159 -106t-192 -38.5q-135 0 -248.5 65t-182.5 187t-69 276zM141 512q0 -112 39 -209t105.5 -162.5t154.5 -103t185 -37.5t185 37.5t154 103 t105 162.5t39 209q0 113 -39 210t-105 162.5t-154 102.5t-185 37t-185 -37t-154.5 -102.5t-105.5 -162.5t-39 -210z" />
<glyph unicode="p" horiz-adv-x="1232" d="M219 -522v1546h17v-164q135 180 393 180q89 0 172.5 -32.5t153 -95t111.5 -166.5t42 -234t-42 -234t-111.5 -166.5t-153 -95t-172.5 -32.5q-258 0 -393 180v-686h-17zM236 186q71 -93 162 -139.5t231 -46.5q86 0 167.5 32.5t148 93.5t107 161.5t40.5 224.5t-40.5 224.5 t-107 161.5t-148 93.5t-167.5 32.5q-140 0 -231 -46.5t-162 -139.5v-652z" />
<glyph unicode="q" horiz-adv-x="1232" d="M125 512q0 130 42 234t111.5 166.5t153 95t172.5 32.5q258 0 393 -180v164h17v-1546h-17v686q-135 -180 -393 -180q-89 0 -172.5 32.5t-153 95t-111.5 166.5t-42 234zM141 512q0 -124 40.5 -224.5t107 -161.5t148 -93.5t167.5 -32.5q140 0 231 46.5t162 139.5v652 q-71 93 -162 139.5t-231 46.5q-86 0 -167.5 -32.5t-148 -93.5t-107 -161.5t-40.5 -224.5z" />
<glyph unicode="r" horiz-adv-x="602" d="M219 0v1024h17v-182q24 34 52 63t68.5 58.5t93.5 47t111 17.5l-4 -16q-56 0 -106 -17t-90.5 -48.5t-67.5 -60t-57 -67.5v-819h-17z" />
<glyph unicode="s" horiz-adv-x="827" d="M84 168l14 8q104 -176 320 -176q127 0 202.5 64.5t75.5 193.5q0 38 -7.5 68.5t-26.5 54.5t-39 41t-56.5 34t-67 28t-81.5 28q-78 24 -125 44t-91 50t-63.5 71t-19.5 97q0 122 77 194t207 72q204 0 287 -157l-14 -9q-81 150 -273 150q-123 0 -195.5 -68t-72.5 -182 q0 -52 18 -90t60 -66t87 -46.5t122 -43.5q62 -20 99 -34.5t78.5 -37.5t63 -48t36 -63t14.5 -87q0 -135 -82.5 -204.5t-212.5 -69.5q-226 0 -334 184z" />
<glyph unicode="t" horiz-adv-x="663" d="M37 1008v16h229l2 354h17l-2 -354h323v-16h-323l-2 -766q0 -114 56.5 -173t141.5 -59q74 0 133 41l9 -14q-62 -43 -142 -43q-94 0 -154.5 64t-60.5 184l2 766h-229z" />
<glyph unicode="u" horiz-adv-x="1157" d="M211 383v641h16v-641q0 -168 98 -275.5t253 -107.5t253.5 107.5t98.5 275.5v641h16v-641q0 -175 -103 -287t-265 -112t-264.5 112t-102.5 287z" />
<glyph unicode="v" horiz-adv-x="972" d="M57 1024h19l411 -995l410 995h18l-421 -1024h-13z" />
<glyph unicode="w" horiz-adv-x="1607" d="M57 1024h19l362 -991l357 991h18l356 -991l363 991h18l-374 -1024h-11l-360 997l-363 -997h-10z" />
<glyph unicode="x" horiz-adv-x="952" d="M51 0l416 535l-381 489h20l371 -477l369 477h20l-379 -489l414 -535h-20l-404 522l-405 -522h-21z" />
<glyph unicode="y" horiz-adv-x="972" d="M57 1024h19l411 -995l410 995h18l-634 -1546h-19l217 526z" />
<glyph unicode="z" horiz-adv-x="897" d="M63 0v16l713 992h-700v16h719v-16l-711 -992h750v-16h-771z" />
<glyph unicode="{" horiz-adv-x="374" d="M51 647v17h17q28 0 49.5 7t34 23t20.5 33.5t9 46.5t0 54t-7.5 63t-12.5 67.5t-16 73.5q-48 206 -6 321t172 115h13v-16h-13q-119 0 -156.5 -108t7.5 -308q10 -45 16 -74.5t12.5 -70t7.5 -67t-1 -57.5t-10.5 -50.5t-24.5 -36.5t-39 -25q23 -8 39 -25t24.5 -36.5 t10.5 -50.5t1 -57.5t-7.5 -67t-12.5 -70t-16 -74.5q-45 -200 -7.5 -307.5t156.5 -107.5h13v-17h-13q-130 0 -172 116t6 321q10 44 16 73.5t12.5 67.5t7.5 63t0 54t-9 46.5t-20.5 33.5t-34 23t-49.5 7h-17z" />
<glyph unicode="|" horiz-adv-x="425" d="M205 -137v1669h16v-1669h-16z" />
<glyph unicode="}" horiz-adv-x="374" d="M51 -141h12q119 0 157 107.5t-7 307.5q-10 45 -16 74.5t-12.5 70t-7.5 67t1 57.5t10.5 50.5t24.5 36.5t39 25q-23 8 -39 25t-24.5 36.5t-10.5 50.5t-1 57.5t7.5 67t12.5 70t16 74.5q45 200 7 308t-157 108h-12v16h12q130 0 172 -115t-6 -321q-10 -44 -16 -73.5 t-12.5 -67.5t-7.5 -63.5t0.5 -54t9.5 -46t20.5 -33.5t34 -23t49.5 -7h17v-17h-17q-28 0 -49.5 -7t-34 -23t-20.5 -33.5t-9.5 -46t-0.5 -54t7.5 -63.5t12.5 -67.5t16 -73.5q48 -205 6 -321t-172 -116h-12v17z" />
<glyph unicode="~" horiz-adv-x="1075" d="M72 694q66 76 120.5 109t141.5 33q43 0 81 -14.5t68 -35.5t61.5 -42t77.5 -35.5t101 -14.5q92 0 147.5 33t120.5 109l13 -11q-65 -77 -124.5 -112t-156.5 -35q-57 0 -104 14.5t-79 35t-61.5 41.5t-66 35.5t-78.5 14.5q-83 0 -133.5 -30.5t-116.5 -104.5z" />
<glyph unicode="&#xa1;" horiz-adv-x="452" d="M184 999q0 17 12 29t31 12q17 0 29 -12t12 -29q0 -19 -12 -31t-29 -12q-19 0 -31 12t-12 31zM219 -508v1188h17v-1188h-17z" />
<glyph unicode="&#xa2;" horiz-adv-x="1038" d="M125 512q0 242 139 385t348 143v244h17v-244q216 -6 350 -172l-12 -12q-132 168 -355 168q-131 0 -237 -60t-170 -177.5t-64 -274.5t64 -274.5t170 -177.5t237 -60q223 0 355 168l12 -12q-134 -166 -350 -172v-226h-17v226q-209 0 -348 143t-139 385z" />
<glyph unicode="&#xa3;" horiz-adv-x="1046" d="M59 731v17h256l-30 286q-25 236 63.5 375t274.5 139q133 0 216 -56.5t140 -178.5l-14 -8q-54 118 -133.5 172.5t-208.5 54.5q-179 0 -261.5 -132.5t-58.5 -363.5l29 -288h405v-17h-403l14 -135q43 -369 -229 -580h876v-16h-903v16q280 203 240 578l-15 137h-258z" />
<glyph unicode="&#xa4;" horiz-adv-x="1167" d="M72 -35l262 264q-90 104 -90 289q0 181 94 289l-266 264l12 10l264 -262q92 92 236 92q149 0 239 -90l260 260l13 -10l-262 -262q90 -104 90 -291q0 -183 -95 -289l267 -264l-13 -10l-264 262q-92 -92 -235 -92q-151 0 -240 92l-260 -262zM260 518q0 -176 85 -276.5 t239 -100.5q147 0 235 101.5t88 275.5q0 178 -84.5 277.5t-238.5 99.5q-147 0 -235.5 -102t-88.5 -275z" />
<glyph unicode="&#xa5;" horiz-adv-x="1318" d="M51 1532h21l581 -832h13l581 832h21l-584 -832h291v-16h-301l-6 -8v-246h307v-16h-307v-414h-17v414h-307v16h307v246l-6 8h-301v16h291z" />
<glyph unicode="&#xa6;" horiz-adv-x="425" d="M205 -137v653h16v-653h-16zM205 879v653h16v-653h-16z" />
<glyph unicode="&#xa7;" horiz-adv-x="1021" d="M139 127l15 8q104 -176 364 -176q89 0 167 30t131.5 96.5t53.5 158.5q0 33 -7 61.5t-16.5 50t-29.5 41.5t-36 33.5t-46.5 26.5t-51 21t-59 18t-61 15.5t-65.5 14.5q-63 13 -105.5 25t-88 33t-72 47t-43.5 67t-17 93q0 90 37.5 147.5t116.5 108.5q-63 32 -93 81.5 t-30 131.5q0 138 91.5 213t221.5 75q214 0 301 -157l-14 -9q-84 150 -287 150q-122 0 -209.5 -72t-87.5 -200q0 -38 9 -70t22 -54.5t38 -42t45.5 -31t56.5 -23.5t59 -17.5t65 -15.5q61 -13 104 -26t88 -34.5t72 -48.5t44.5 -68.5t17.5 -93.5q0 -88 -34 -139t-114 -102 q99 -35 147 -93t48 -157q0 -75 -32 -134t-85.5 -94.5t-117.5 -54t-134 -18.5q-271 0 -379 184zM188 791q0 -50 17 -88t42 -62t69.5 -43.5t84 -30.5t101.5 -24q115 -24 172 -43q79 50 114 100t35 135q0 49 -17 88t-43 64t-69.5 45.5t-84 32t-99.5 24.5q-96 20 -168 51 q-78 -50 -116 -106.5t-38 -142.5z" />
<glyph unicode="&#xa8;" horiz-adv-x="393" d="M70 1399q0 14 9.5 23.5t22.5 9.5q14 0 23.5 -10t9.5 -23t-9.5 -22t-23.5 -9t-23 9t-9 22zM258 1399q0 13 10.5 23t24.5 10q13 0 22 -9.5t9 -23.5q0 -13 -9 -22t-22 -9q-14 0 -24.5 9t-10.5 22z" />
<glyph unicode="&#xa9;" horiz-adv-x="1159" d="M72 1040q0 140 67 257t184 184t257 67t256.5 -67t183.5 -184t67 -257t-67 -257t-183.5 -184t-256.5 -67t-257 67t-184 184t-67 257zM88 1040q0 -135 65.5 -248t178.5 -178t248 -65q101 0 192 38.5t156.5 104t104 156.5t38.5 192q0 135 -65 248t-178 178.5t-248 65.5 t-248 -65.5t-178.5 -178.5t-65.5 -248zM283 1038q0 143 90 232.5t217 89.5q152 0 229 -107l-12 -10q-73 100 -217 100q-119 0 -205 -85.5t-86 -219.5q0 -130 86 -215.5t205 -85.5q145 0 215 103l14 -11q-75 -108 -229 -108q-127 0 -217 89t-90 228z" />
<glyph unicode="&#xaa;" horiz-adv-x="823" d="M115 911q0 115 82.5 170.5t232.5 55.5q102 0 209 -15v158q0 117 -62.5 183.5t-168.5 66.5q-154 0 -254 -127l-13 10q53 66 116.5 99.5t152.5 33.5q111 0 178 -71t67 -195v-567h-16v114q-56 -61 -120 -94t-154 -33q-111 0 -180.5 57t-69.5 154zM131 911q0 -89 65.5 -141.5 t170.5 -52.5q87 0 149 33.5t123 99.5v254q-114 16 -209 16q-299 -3 -299 -209z" />
<glyph unicode="&#xab;" horiz-adv-x="950" d="M31 508l409 407l11 -12l-394 -395l394 -395l-11 -13zM479 508l410 407l10 -12l-393 -395l393 -395l-10 -13z" />
<glyph unicode="&#xac;" horiz-adv-x="1013" d="M92 735v17h809v-365h-16v348h-793z" />
<glyph unicode="&#xad;" horiz-adv-x="815" d="M92 526v17h631v-17h-631z" />
<glyph unicode="&#xae;" horiz-adv-x="1159" d="M72 1040q0 140 67 257t184 184t257 67t256.5 -67t183.5 -184t67 -257t-67 -257t-183.5 -184t-256.5 -67t-257 67t-184 184t-67 257zM88 1040q0 -135 65.5 -248t178.5 -178t248 -65q101 0 192 38.5t156.5 104t104 156.5t38.5 192q0 135 -65 248t-178 178.5t-248 65.5 t-248 -65.5t-178.5 -178.5t-65.5 -248zM391 725v627h199q96 0 149.5 -43t53.5 -129q0 -137 -129 -166l167 -289h-18l-166 285q-36 -4 -57 -4h-182v-281h-17zM408 1022h182q186 0 186 158q0 155 -186 155h-182v-313z" />
<glyph unicode="&#xaf;" horiz-adv-x="542" d="M51 1343v17h441v-17h-441z" />
<glyph unicode="&#xb0;" horiz-adv-x="632" d="M72 1268q0 126 66 203t177 77q110 0 178 -77.5t68 -202.5t-68 -203t-178 -78t-176.5 78t-66.5 203zM88 1268q0 -118 62.5 -191t164.5 -73q103 0 166.5 73.5t63.5 190.5t-63.5 190.5t-166.5 73.5t-165 -73t-62 -191z" />
<glyph unicode="&#xb1;" horiz-adv-x="1114" d="M72 262v17h970v-17h-970zM72 922v16h477v465h16v-465h477v-16h-477v-484h-16v484h-477z" />
<glyph unicode="&#xb4;" horiz-adv-x="399" d="M57 1208l260 391h21l-262 -391h-19z" />
<glyph unicode="&#xb6;" horiz-adv-x="1245" d="M115 1167q0 176 114.5 270.5t307.5 94.5h657v-16h-139v-1653h-17v1653h-360v-1653h-16v942h-125q-193 0 -307.5 93.5t-114.5 268.5z" />
<glyph unicode="&#xb7;" horiz-adv-x="301" d="M109 528q0 19 12 31t29 12q19 0 31 -12t12 -31q0 -17 -12 -29t-31 -12q-17 0 -29 12t-12 29z" />
<glyph unicode="&#xb8;" horiz-adv-x="561" d="M53 -426l8 14q85 -55 197 -55q78 0 133 37.5t55 103.5q0 72 -64.5 113t-172.5 41q-23 0 -31 -2l35 180h16l-30 -160q117 0 190.5 -44.5t73.5 -127.5q0 -73 -60 -115t-145 -42q-115 0 -205 57z" />
<glyph unicode="&#xba;" horiz-adv-x="1001" d="M100 1122q0 187 117.5 305.5t284.5 118.5q166 0 282.5 -118.5t116.5 -305.5q0 -186 -116.5 -304t-282.5 -118q-167 0 -284.5 118t-117.5 304zM117 1122q0 -179 112 -292t273 -113q159 0 271 113t112 292q0 180 -111.5 294t-271.5 114q-161 0 -273 -114t-112 -294z" />
<glyph unicode="&#xbb;" horiz-adv-x="950" d="M51 113l393 395l-393 395l10 12l410 -407l-410 -408zM500 113l393 395l-393 395l10 12l410 -407l-410 -408z" />
<glyph unicode="&#xbc;" horiz-adv-x="1404" d="M29 0l1134 1532h21l-1135 -1532h-20zM55 1378v19l224 135h16v-873h-16v852zM748 262v14l282 596h19l-281 -593h379v278h16v-278h197v-17h-197v-262h-16v262h-399z" />
<glyph unicode="&#xbd;" horiz-adv-x="1423" d="M29 0l1134 1532h21l-1135 -1532h-20zM55 1378v19l224 135h16v-873h-16v852zM848 0v16q203 178 264 240q147 149 183 277q16 55 16 114q0 98 -59 158.5t-152 60.5q-159 0 -234 -133l-14 10q82 140 248 140q101 0 164 -65t63 -171q0 -84 -24.5 -154.5t-98.5 -156 t-121.5 -131t-179.5 -161.5q-20 -19 -31 -28h471v-16h-495z" />
<glyph unicode="&#xbe;" horiz-adv-x="1570" d="M49 776l12 10q40 -62 93.5 -91t140.5 -29q101 0 167 62.5t66 162.5q0 104 -73 161.5t-187 57.5h-73v16h73q94 0 160 54t66 143q0 91 -56 147t-149 56q-137 0 -213 -119l-15 8q81 127 228 127q101 0 161 -59.5t60 -159.5q0 -81 -50.5 -135t-127.5 -70q96 -12 154.5 -71 t58.5 -156q0 -108 -70 -175t-180 -67q-89 0 -146 31t-100 96zM195 0l1134 1532h21l-1135 -1532h-20zM913 262v14l283 596h18l-280 -593h379v278h16v-278h197v-17h-197v-262h-16v262h-400z" />
<glyph unicode="&#xbf;" horiz-adv-x="937" d="M51 -135q0 138 56 230t180 177q78 59 118 102t59.5 96.5t18.5 129.5q0 22 -4 80h17q4 -58 4 -80q1 -76 -18.5 -131.5t-61.5 -102.5t-121 -106q-117 -80 -174 -171t-57 -224q0 -163 109 -268t282 -105q133 0 231 58.5t168 181.5l14 -11q-143 -245 -413 -245 q-180 0 -294 109.5t-114 279.5zM449 999q0 17 12 29t31 12q17 0 28.5 -12t11.5 -29q0 -19 -11.5 -31t-28.5 -12q-19 0 -31 12t-12 31z" />
<glyph unicode="&#xc0;" d="M72 0l661 1532h17l659 -1532h-18l-250 580h-801l-250 -580h-18zM346 596h789l-394 913zM365 1882h32l359 -254h-29z" />
<glyph unicode="&#xc1;" d="M72 0l661 1532h17l659 -1532h-18l-250 580h-801l-250 -580h-18zM346 596h789l-394 913zM725 1628l358 254h33l-362 -254h-29z" />
<glyph unicode="&#xc2;" d="M72 0l661 1532h17l659 -1532h-18l-250 580h-801l-250 -580h-18zM346 596h789l-394 913zM485 1628l252 248h8l252 -248h-22l-234 225l-233 -225h-23z" />
<glyph unicode="&#xc3;" d="M72 0l661 1532h17l659 -1532h-18l-250 580h-801l-250 -580h-18zM346 596h789l-394 913zM459 1706q2 63 39.5 104t97.5 41q42 0 82 -22.5t66.5 -49t64.5 -49t76 -22.5q54 0 86.5 36.5t34.5 92.5h16q-2 -63 -39.5 -104t-97.5 -41q-42 0 -82 22.5t-66.5 49t-64.5 49 t-76 22.5q-54 0 -86.5 -36.5t-34.5 -92.5h-16z" />
<glyph unicode="&#xc4;" d="M72 0l661 1532h17l659 -1532h-18l-250 580h-801l-250 -580h-18zM346 596h789l-394 913zM612 1751q0 13 10 23t23 10t23 -10t10 -23t-9.5 -22t-23.5 -9t-23.5 9t-9.5 22zM801 1751q0 13 10.5 23t24.5 10q13 0 21.5 -9.5t8.5 -23.5t-8.5 -22.5t-21.5 -8.5q-14 0 -24.5 9 t-10.5 22z" />
<glyph unicode="&#xc5;" d="M72 0l661 1532h17l659 -1532h-18l-250 580h-801l-250 -580h-18zM346 596h789l-394 913zM561 1798q0 75 52 123.5t128 48.5t128.5 -48.5t52.5 -123.5t-52.5 -123.5t-128.5 -48.5t-128 48.5t-52 123.5zM578 1798q0 -68 47 -112t116 -44t116.5 44t47.5 112t-47.5 112 t-116.5 44t-116 -44t-47 -112z" />
<glyph unicode="&#xc6;" horiz-adv-x="1832" d="M51 0l1006 1532h715v-16h-699v-709h643v-16h-643v-775h699v-16h-715v580h-604l-381 -580h-21zM463 596h594v905z" />
<glyph unicode="&#xc7;" horiz-adv-x="1550" d="M139 766q0 172 61.5 320t165 248.5t240.5 157t287 56.5q378 0 565 -266l-12 -10q-184 260 -553 260q-147 0 -281 -55.5t-235 -153.5t-161 -243t-60 -314t60 -314t161 -243t235 -153.5t281 -55.5q369 0 553 260l12 -10q-187 -266 -565 -266h-23l-28 -148 q117 0 190.5 -44.5t73.5 -127.5q0 -73 -60.5 -115.5t-144.5 -42.5q-114 0 -205 58l9 14q85 -55 196 -55q78 0 133.5 37.5t55.5 103.5q0 72 -65 113t-173 41q-23 0 -31 -2l33 168q-144 7 -274 67t-228 159.5t-155.5 244t-57.5 311.5z" />
<glyph unicode="&#xc8;" horiz-adv-x="1001" d="M221 1882h33l358 -254h-28zM225 0v1532h715v-16h-698v-709h643v-16h-643v-775h698v-16h-715z" />
<glyph unicode="&#xc9;" horiz-adv-x="1001" d="M225 0v1532h715v-16h-698v-709h643v-16h-643v-775h698v-16h-715zM582 1628l358 254h33l-363 -254h-28z" />
<glyph unicode="&#xca;" horiz-adv-x="1001" d="M225 0v1532h715v-16h-698v-709h643v-16h-643v-775h698v-16h-715zM342 1628l252 248h8l252 -248h-23l-233 225l-233 -225h-23z" />
<glyph unicode="&#xcb;" horiz-adv-x="1001" d="M225 0v1532h715v-16h-698v-709h643v-16h-643v-775h698v-16h-715zM469 1751q0 13 9.5 23t23.5 10t23.5 -10t9.5 -23t-9.5 -22t-23.5 -9t-23.5 9t-9.5 22zM657 1751q0 13 10.5 23t24.5 10q13 0 22 -9.5t9 -23.5q0 -13 -8.5 -22t-22.5 -9t-24.5 9t-10.5 22z" />
<glyph unicode="&#xcc;" horiz-adv-x="466" d="M-143 1882h32l359 -254h-29zM225 0v1532h17v-1532h-17z" />
<glyph unicode="&#xcd;" horiz-adv-x="466" d="M217 1628l358 254h33l-362 -254h-29zM225 0v1532h17v-1532h-17z" />
<glyph unicode="&#xce;" horiz-adv-x="466" d="M-23 1628l252 248h9l251 -248h-22l-234 225l-233 -225h-23zM225 0v1532h17v-1532h-17z" />
<glyph unicode="&#xcf;" horiz-adv-x="466" d="M104 1751q0 13 10 23t23 10t23 -10t10 -23t-9.5 -22t-23.5 -9t-23.5 9t-9.5 22zM225 0v1532h17v-1532h-17zM293 1751q0 13 10.5 23t24.5 10q13 0 21.5 -9.5t8.5 -23.5t-8.5 -22.5t-21.5 -8.5q-14 0 -24.5 9t-10.5 22z" />
<glyph unicode="&#xd0;" horiz-adv-x="1622" d="M-20 758v16h245v758h465q119 0 232 -29t215 -91t179 -150.5t122 -216t45 -279.5t-45 -279.5t-122 -216t-179 -150.5t-215 -91t-232 -29h-465v758h-245zM242 16h448q116 0 226.5 28t210.5 88.5t175 147t119.5 212t44.5 274.5t-44.5 274.5t-119.5 212t-175 147t-210.5 88.5 t-226.5 28h-448v-742h450v-16h-450v-742z" />
<glyph unicode="&#xd1;" horiz-adv-x="1579" d="M225 0v1532h17l1095 -1503v1503h17v-1532h-17l-1095 1503v-1503h-17zM508 1706q2 63 39.5 104t97.5 41q42 0 82 -22.5t66.5 -49t64.5 -49t76 -22.5q54 0 86.5 36.5t34.5 92.5h16q-2 -63 -39.5 -104t-97.5 -41q-42 0 -82 22.5t-66.5 49t-64.5 49t-76 22.5 q-54 0 -86.5 -36.5t-34.5 -92.5h-16z" />
<glyph unicode="&#xd2;" horiz-adv-x="1800" d="M139 766q0 174 60 322t162.5 248t241.5 156t296 56q158 0 297 -56t242 -156t163 -248t60 -322t-60.5 -322t-164 -248t-242.5 -156t-295 -56t-295 56t-242 156t-163 248t-60 322zM156 766q0 -170 59 -315t159.5 -243t236.5 -153t288 -55t288.5 55t237.5 153t160.5 243 t59.5 315t-58.5 315t-159.5 243t-237.5 153t-290.5 55q-153 0 -289 -55t-236.5 -153t-159 -243t-58.5 -315zM522 1882h33l358 -254h-28z" />
<glyph unicode="&#xd3;" horiz-adv-x="1800" d="M139 766q0 174 60 322t162.5 248t241.5 156t296 56q158 0 297 -56t242 -156t163 -248t60 -322t-60.5 -322t-164 -248t-242.5 -156t-295 -56t-295 56t-242 156t-163 248t-60 322zM156 766q0 -170 59 -315t159.5 -243t236.5 -153t288 -55t288.5 55t237.5 153t160.5 243 t59.5 315t-58.5 315t-159.5 243t-237.5 153t-290.5 55q-153 0 -289 -55t-236.5 -153t-159 -243t-58.5 -315zM883 1628l358 254h33l-363 -254h-28z" />
<glyph unicode="&#xd4;" horiz-adv-x="1800" d="M139 766q0 174 60 322t162.5 248t241.5 156t296 56q158 0 297 -56t242 -156t163 -248t60 -322t-60.5 -322t-164 -248t-242.5 -156t-295 -56t-295 56t-242 156t-163 248t-60 322zM156 766q0 -170 59 -315t159.5 -243t236.5 -153t288 -55t288.5 55t237.5 153t160.5 243 t59.5 315t-58.5 315t-159.5 243t-237.5 153t-290.5 55q-153 0 -289 -55t-236.5 -153t-159 -243t-58.5 -315zM643 1628l252 248h8l252 -248h-22l-234 225l-233 -225h-23z" />
<glyph unicode="&#xd5;" horiz-adv-x="1800" d="M139 766q0 174 60 322t162.5 248t241.5 156t296 56q158 0 297 -56t242 -156t163 -248t60 -322t-60.5 -322t-164 -248t-242.5 -156t-295 -56t-295 56t-242 156t-163 248t-60 322zM156 766q0 -170 59 -315t159.5 -243t236.5 -153t288 -55t288.5 55t237.5 153t160.5 243 t59.5 315t-58.5 315t-159.5 243t-237.5 153t-290.5 55q-153 0 -289 -55t-236.5 -153t-159 -243t-58.5 -315zM616 1706q2 63 40 104t98 41q42 0 81.5 -22.5t66 -49t64.5 -49t76 -22.5q54 0 86.5 36.5t34.5 92.5h17q-2 -63 -40 -104t-98 -41q-42 0 -81.5 22.5t-66 49t-64.5 49 t-76 22.5q-54 0 -86.5 -36.5t-34.5 -92.5h-17z" />
<glyph unicode="&#xd6;" horiz-adv-x="1800" d="M139 766q0 174 60 322t162.5 248t241.5 156t296 56q158 0 297 -56t242 -156t163 -248t60 -322t-60.5 -322t-164 -248t-242.5 -156t-295 -56t-295 56t-242 156t-163 248t-60 322zM156 766q0 -170 59 -315t159.5 -243t236.5 -153t288 -55t288.5 55t237.5 153t160.5 243 t59.5 315t-58.5 315t-159.5 243t-237.5 153t-290.5 55q-153 0 -289 -55t-236.5 -153t-159 -243t-58.5 -315zM770 1751q0 13 10 23t23 10t23 -10t10 -23t-9.5 -22t-23.5 -9t-23.5 9t-9.5 22zM958 1751q0 13 10.5 23t24.5 10q13 0 22 -9.5t9 -23.5q0 -13 -9 -22t-22 -9 q-14 0 -24.5 9t-10.5 22z" />
<glyph unicode="&#xd7;" horiz-adv-x="1005" d="M123 383l371 371l-367 366l10 10l367 -366l358 358l10 -12l-356 -356l367 -367l-13 -12l-366 366l-371 -370z" />
<glyph unicode="&#xd8;" horiz-adv-x="1800" d="M139 766q0 174 60 322t162.5 248t241.5 156t296 56q266 0 471 -153l133 176l13 -10l-134 -177q131 -104 205 -263t74 -355q0 -174 -60.5 -322t-164 -248t-242.5 -156t-295 -56q-268 0 -469 153l-131 -172l-12 10l131 172q-131 104 -205 263.5t-74 355.5zM156 766 q0 -192 72 -346.5t200 -257.5l932 1220q-198 150 -461 150q-153 0 -289 -55t-236.5 -153t-159 -243t-58.5 -315zM440 152q197 -152 459 -152q152 0 288.5 55t237.5 153t160.5 243t59.5 315q0 192 -72.5 347.5t-200.5 258.5z" />
<glyph unicode="&#xd9;" horiz-adv-x="1579" d="M215 541v991h16v-991q0 -168 72.5 -292t197.5 -186.5t287 -62.5q248 0 404 144t156 397v991h16v-991q0 -174 -75 -301.5t-204.5 -191.5t-296.5 -64q-255 0 -414 148.5t-159 408.5zM410 1882h32l359 -254h-29z" />
<glyph unicode="&#xda;" horiz-adv-x="1579" d="M215 541v991h16v-991q0 -168 72.5 -292t197.5 -186.5t287 -62.5q248 0 404 144t156 397v991h16v-991q0 -174 -75 -301.5t-204.5 -191.5t-296.5 -64q-255 0 -414 148.5t-159 408.5zM770 1628l358 254h33l-362 -254h-29z" />
<glyph unicode="&#xdb;" horiz-adv-x="1579" d="M215 541v991h16v-991q0 -168 72.5 -292t197.5 -186.5t287 -62.5q248 0 404 144t156 397v991h16v-991q0 -174 -75 -301.5t-204.5 -191.5t-296.5 -64q-255 0 -414 148.5t-159 408.5zM530 1628l252 248h9l251 -248h-22l-234 225l-233 -225h-23z" />
<glyph unicode="&#xdc;" horiz-adv-x="1579" d="M215 541v991h16v-991q0 -168 72.5 -292t197.5 -186.5t287 -62.5q248 0 404 144t156 397v991h16v-991q0 -174 -75 -301.5t-204.5 -191.5t-296.5 -64q-255 0 -414 148.5t-159 408.5zM657 1751q0 13 9.5 23t23.5 10t23.5 -10t9.5 -23t-9.5 -22t-23.5 -9t-23.5 9t-9.5 22z M846 1751q0 13 10.5 23t24.5 10q13 0 21.5 -9.5t8.5 -23.5t-8.5 -22.5t-21.5 -8.5q-14 0 -24.5 9t-10.5 22z" />
<glyph unicode="&#xdd;" horiz-adv-x="1318" d="M51 1532h21l587 -840l588 840h21l-600 -856v-676h-17v676zM643 1628l358 254h33l-362 -254h-29z" />
<glyph unicode="&#xde;" horiz-adv-x="1138" d="M225 0v1532h17v-219h325q211 0 334 -98.5t123 -290.5q0 -190 -123 -287.5t-334 -97.5h-325v-539h-17zM242 555h325q203 0 322 93.5t119 275.5q0 185 -118.5 278.5t-322.5 93.5h-325v-741z" />
<glyph unicode="&#xdf;" horiz-adv-x="1230" d="M211 0v1294q0 136 99 225t257 89q151 0 241.5 -81t90.5 -206q0 -50 -20.5 -93.5t-49.5 -76t-57.5 -64.5t-49 -72.5t-20.5 -84.5q0 -47 22.5 -87t58 -70t79 -60.5t87 -66.5t79 -78.5t58 -105.5t22.5 -140q0 -150 -107 -244t-278 -94q-113 0 -193 32l9 15q91 -31 184 -31 q163 0 266 90t103 232q0 73 -22.5 134t-58 103t-79 77.5t-87 67t-79 63t-58 73t-22.5 90.5q0 47 20.5 89t49 74t57.5 64t49.5 74t20.5 90q0 118 -85.5 194t-230.5 76q-151 0 -245.5 -84t-94.5 -213v-1294h-16z" />
<glyph unicode="&#xe0;" horiz-adv-x="1028" d="M143 248q0 279 394 282q116 0 264 -20v201q0 146 -79.5 229.5t-211.5 83.5q-104 0 -181.5 -40.5t-140.5 -119.5l-12 10q66 82 145 124t189 42q139 0 223 -88t84 -241v-711h-16v143q-70 -75 -151 -117t-193 -42q-139 0 -226.5 71.5t-87.5 192.5zM160 248q0 -114 83 -181 t214 -67q110 0 188 42.5t156 125.5v326q-144 20 -264 20q-377 -3 -377 -266zM242 1599h20l260 -391h-18z" />
<glyph unicode="&#xe1;" horiz-adv-x="1028" d="M143 248q0 279 394 282q116 0 264 -20v201q0 146 -79.5 229.5t-211.5 83.5q-104 0 -181.5 -40.5t-140.5 -119.5l-12 10q66 82 145 124t189 42q139 0 223 -88t84 -241v-711h-16v143q-70 -75 -151 -117t-193 -42q-139 0 -226.5 71.5t-87.5 192.5zM160 248q0 -114 83 -181 t214 -67q110 0 188 42.5t156 125.5v326q-144 20 -264 20q-377 -3 -377 -266zM502 1208l260 391h20l-262 -391h-18z" />
<glyph unicode="&#xe2;" horiz-adv-x="1028" d="M143 248q0 279 394 282q116 0 264 -20v201q0 146 -79.5 229.5t-211.5 83.5q-104 0 -181.5 -40.5t-140.5 -119.5l-12 10q66 82 145 124t189 42q139 0 223 -88t84 -241v-711h-16v143q-70 -75 -151 -117t-193 -42q-139 0 -226.5 71.5t-87.5 192.5zM160 248q0 -114 83 -181 t214 -67q110 0 188 42.5t156 125.5v326q-144 20 -264 20q-377 -3 -377 -266zM254 1212l254 326h8l254 -326h-20l-238 304l-238 -304h-20z" />
<glyph unicode="&#xe3;" horiz-adv-x="1028" d="M143 248q0 279 394 282q116 0 264 -20v201q0 146 -79.5 229.5t-211.5 83.5q-104 0 -181.5 -40.5t-140.5 -119.5l-12 10q66 82 145 124t189 42q139 0 223 -88t84 -241v-711h-16v143q-70 -75 -151 -117t-193 -42q-139 0 -226.5 71.5t-87.5 192.5zM160 248q0 -114 83 -181 t214 -67q110 0 188 42.5t156 125.5v326q-144 20 -264 20q-377 -3 -377 -266zM225 1294q2 63 39.5 104.5t97.5 41.5q34 0 66 -15t57 -36l50 -42t54.5 -36t61.5 -15q54 0 86.5 36.5t34.5 92.5h16q-2 -63 -39.5 -104t-97.5 -41q-42 0 -82 22.5t-66.5 49t-64.5 49t-76 22.5 q-54 0 -86 -36.5t-34 -92.5h-17z" />
<glyph unicode="&#xe4;" horiz-adv-x="1028" d="M143 248q0 279 394 282q116 0 264 -20v201q0 146 -79.5 229.5t-211.5 83.5q-104 0 -181.5 -40.5t-140.5 -119.5l-12 10q66 82 145 124t189 42q139 0 223 -88t84 -241v-711h-16v143q-70 -75 -151 -117t-193 -42q-139 0 -226.5 71.5t-87.5 192.5zM160 248q0 -114 83 -181 t214 -67q110 0 188 42.5t156 125.5v326q-144 20 -264 20q-377 -3 -377 -266zM383 1399q0 13 9.5 23t23.5 10t23.5 -10t9.5 -23t-9.5 -22t-23.5 -9t-23.5 9t-9.5 22zM571 1399q0 13 10.5 23t24.5 10q13 0 22 -9.5t9 -23.5q0 -13 -8.5 -22t-22.5 -9t-24.5 9t-10.5 22z" />
<glyph unicode="&#xe5;" horiz-adv-x="1028" d="M143 248q0 279 394 282q116 0 264 -20v201q0 146 -79.5 229.5t-211.5 83.5q-104 0 -181.5 -40.5t-140.5 -119.5l-12 10q66 82 145 124t189 42q139 0 223 -88t84 -241v-711h-16v143q-70 -75 -151 -117t-193 -42q-139 0 -226.5 71.5t-87.5 192.5zM160 248q0 -114 83 -181 t214 -67q110 0 188 42.5t156 125.5v326q-144 20 -264 20q-377 -3 -377 -266zM324 1391q0 77 54.5 126.5t133.5 49.5q78 0 131 -49.5t53 -126.5q0 -76 -53 -125t-131 -49q-80 0 -134 49t-54 125zM340 1391q0 -69 49 -113.5t123 -44.5q72 0 120 44.5t48 113.5t-48 114t-120 45 q-74 0 -123 -45t-49 -114z" />
<glyph unicode="&#xe6;" horiz-adv-x="1806" d="M143 248q0 279 394 282q116 0 264 -20v201q0 146 -79.5 229.5t-211.5 83.5q-104 0 -181.5 -40.5t-140.5 -119.5l-12 10q66 82 145 124t189 42q139 0 223 -88t84 -241v-58q40 178 163 282.5t290 104.5q200 0 308 -135.5t93 -382.5h-854v-14v-4q0 -117 36.5 -213t99.5 -159 t148 -97.5t183 -34.5q115 0 209.5 44.5t157.5 123.5l12 -10q-65 -82 -162 -128t-217 -46q-172 0 -299.5 97t-167.5 271v-4q0 -168 -106 -266q-107 -98 -254 -98q-139 0 -226.5 71.5t-87.5 192.5zM160 248q0 -114 83 -181t214 -67q66 0 126.5 22.5t109.5 64.5t78.5 109.5 t29.5 151.5v146q-144 20 -264 20q-377 -3 -377 -266zM817 539h838q12 231 -91.5 358t-293.5 127q-188 0 -315.5 -134.5t-137.5 -350.5z" />
<glyph unicode="&#xe7;" horiz-adv-x="1069" d="M125 512q0 242 139 385t348 143q231 0 367 -172l-12 -12q-132 168 -355 168q-131 0 -237 -60t-170 -177.5t-64 -274.5t64 -274.5t170 -177.5t237 -60q223 0 355 168l12 -12q-136 -172 -367 -172h-20l-29 -146q117 0 190.5 -44.5t73.5 -127.5q0 -73 -60 -115.5t-144 -42.5 q-114 0 -205 58l8 14q85 -55 197 -55q78 0 133 37.5t55 103.5q0 72 -65 113t-173 41q-22 0 -30 -2l32 168q-196 12 -323 154t-127 372z" />
<glyph unicode="&#xe8;" horiz-adv-x="1130" d="M125 502q0 239 133.5 388.5t335.5 149.5q200 0 308 -135.5t93 -382.5h-854v-14v-4q0 -117 36.5 -213t99.5 -159t148 -97.5t183 -34.5q115 0 209.5 44.5t157.5 123.5l12 -10q-65 -82 -162 -128t-217 -46q-101 0 -188.5 35.5t-153.5 100t-103.5 163.5t-37.5 219zM141 539 h838q12 231 -91.5 358t-293.5 127q-188 0 -315.5 -134.5t-137.5 -350.5zM330 1599h20l260 -391h-18z" />
<glyph unicode="&#xe9;" horiz-adv-x="1130" d="M125 502q0 239 133.5 388.5t335.5 149.5q200 0 308 -135.5t93 -382.5h-854v-14v-4q0 -117 36.5 -213t99.5 -159t148 -97.5t183 -34.5q115 0 209.5 44.5t157.5 123.5l12 -10q-65 -82 -162 -128t-217 -46q-101 0 -188.5 35.5t-153.5 100t-103.5 163.5t-37.5 219zM141 539 h838q12 231 -91.5 358t-293.5 127q-188 0 -315.5 -134.5t-137.5 -350.5zM590 1208l260 391h20l-262 -391h-18z" />
<glyph unicode="&#xea;" horiz-adv-x="1130" d="M125 502q0 239 133.5 388.5t335.5 149.5q200 0 308 -135.5t93 -382.5h-854v-14v-4q0 -117 36.5 -213t99.5 -159t148 -97.5t183 -34.5q115 0 209.5 44.5t157.5 123.5l12 -10q-65 -82 -162 -128t-217 -46q-101 0 -188.5 35.5t-153.5 100t-103.5 163.5t-37.5 219zM141 539 h838q12 231 -91.5 358t-293.5 127q-188 0 -315.5 -134.5t-137.5 -350.5zM342 1212l254 326h8l254 -326h-20l-238 304l-238 -304h-20z" />
<glyph unicode="&#xeb;" horiz-adv-x="1130" d="M125 502q0 239 133.5 388.5t335.5 149.5q200 0 308 -135.5t93 -382.5h-854v-14v-4q0 -117 36.5 -213t99.5 -159t148 -97.5t183 -34.5q115 0 209.5 44.5t157.5 123.5l12 -10q-65 -82 -162 -128t-217 -46q-101 0 -188.5 35.5t-153.5 100t-103.5 163.5t-37.5 219zM141 539 h838q12 231 -91.5 358t-293.5 127q-188 0 -315.5 -134.5t-137.5 -350.5zM471 1399q0 13 9.5 23t23.5 10t23.5 -10t9.5 -23t-9.5 -22t-23.5 -9t-23.5 9t-9.5 22zM659 1399q0 13 10.5 23t24.5 10q13 0 22 -9.5t9 -23.5q0 -13 -8.5 -22t-22.5 -9t-24.5 9t-10.5 22z" />
<glyph unicode="&#xec;" horiz-adv-x="454" d="M-41 1599h21l260 -391h-19zM219 0v1024h17v-1024h-17z" />
<glyph unicode="&#xed;" horiz-adv-x="454" d="M219 0v1024h17v-1024h-17zM219 1208l260 391h21l-262 -391h-19z" />
<glyph unicode="&#xee;" horiz-adv-x="454" d="M-29 1212l254 326h8l254 -326h-20l-238 304l-237 -304h-21zM219 0v1024h17v-1024h-17z" />
<glyph unicode="&#xef;" horiz-adv-x="454" d="M100 1399q0 13 10 23t23 10t23 -10t10 -23t-9.5 -22t-23.5 -9t-23.5 9t-9.5 22zM219 0v1024h17v-1024h-17zM289 1399q0 13 10.5 23t24.5 10q13 0 21.5 -9.5t8.5 -23.5t-8.5 -22.5t-21.5 -8.5q-14 0 -24.5 9t-10.5 22z" />
<glyph unicode="&#xf0;" horiz-adv-x="1230" d="M125 481q0 115 38.5 210t104.5 157.5t152.5 96.5t183.5 34q158 0 286 -88.5t173 -233.5q-19 250 -103.5 445t-226.5 313l-278 -172l-11 14l275 170q-191 148 -449 148v16q271 0 465 -155l264 163l9 -12l-260 -162q164 -137 250.5 -373.5t86.5 -539.5q0 -131 -37.5 -233.5 t-104 -166t-152.5 -96t-187 -32.5q-130 0 -237.5 57.5t-174.5 172.5t-67 267zM141 481q0 -148 65 -259.5t169 -166.5t229 -55q207 0 336 133t129 379q0 130 -64.5 234.5t-170.5 160.5t-230 56q-126 0 -230 -55.5t-168.5 -167t-64.5 -259.5z" />
<glyph unicode="&#xf1;" horiz-adv-x="1181" d="M219 0v1024h17v-174q146 190 376 190q165 0 262 -111t97 -288v-641h-17v641q0 170 -92.5 276.5t-249.5 106.5q-68 0 -127.5 -17t-105.5 -48.5t-78 -61.5t-65 -70v-827h-17zM293 1294q2 63 39.5 104.5t97.5 41.5q34 0 66 -15t57 -36l50 -42t54.5 -36t61.5 -15 q54 0 86.5 36.5t34.5 92.5h16q-2 -63 -39.5 -104t-97.5 -41q-42 0 -82 22.5t-66.5 49t-64.5 49t-76 22.5q-54 0 -86.5 -36.5t-34.5 -92.5h-16z" />
<glyph unicode="&#xf2;" horiz-adv-x="1249" d="M125 512q0 155 69 277t182.5 186.5t248.5 64.5q101 0 192 -38t159 -106t108 -167.5t40 -216.5q0 -116 -40 -216t-108 -167.5t-159 -106t-192 -38.5q-135 0 -248.5 65t-182.5 187t-69 276zM141 512q0 -112 39 -209t105.5 -162.5t154.5 -103t185 -37.5t185 37.5t154 103 t105 162.5t39 209q0 113 -39 210t-105 162.5t-154 102.5t-185 37t-185 -37t-154.5 -102.5t-105.5 -162.5t-39 -210zM356 1599h21l260 -391h-19z" />
<glyph unicode="&#xf3;" horiz-adv-x="1249" d="M125 512q0 155 69 277t182.5 186.5t248.5 64.5q101 0 192 -38t159 -106t108 -167.5t40 -216.5q0 -116 -40 -216t-108 -167.5t-159 -106t-192 -38.5q-135 0 -248.5 65t-182.5 187t-69 276zM141 512q0 -112 39 -209t105.5 -162.5t154.5 -103t185 -37.5t185 37.5t154 103 t105 162.5t39 209q0 113 -39 210t-105 162.5t-154 102.5t-185 37t-185 -37t-154.5 -102.5t-105.5 -162.5t-39 -210zM616 1208l261 391h20l-262 -391h-19z" />
<glyph unicode="&#xf4;" horiz-adv-x="1249" d="M125 512q0 155 69 277t182.5 186.5t248.5 64.5q101 0 192 -38t159 -106t108 -167.5t40 -216.5q0 -116 -40 -216t-108 -167.5t-159 -106t-192 -38.5q-135 0 -248.5 65t-182.5 187t-69 276zM141 512q0 -112 39 -209t105.5 -162.5t154.5 -103t185 -37.5t185 37.5t154 103 t105 162.5t39 209q0 113 -39 210t-105 162.5t-154 102.5t-185 37t-185 -37t-154.5 -102.5t-105.5 -162.5t-39 -210zM369 1212l254 326h8l254 -326h-21l-237 304l-238 -304h-20z" />
<glyph unicode="&#xf5;" horiz-adv-x="1249" d="M125 512q0 155 69 277t182.5 186.5t248.5 64.5q101 0 192 -38t159 -106t108 -167.5t40 -216.5q0 -116 -40 -216t-108 -167.5t-159 -106t-192 -38.5q-135 0 -248.5 65t-182.5 187t-69 276zM141 512q0 -112 39 -209t105.5 -162.5t154.5 -103t185 -37.5t185 37.5t154 103 t105 162.5t39 209q0 113 -39 210t-105 162.5t-154 102.5t-185 37t-185 -37t-154.5 -102.5t-105.5 -162.5t-39 -210zM340 1294q2 63 39.5 104.5t97.5 41.5q34 0 66 -15t57 -36l50 -42t54.5 -36t61.5 -15q54 0 86.5 36.5t34.5 92.5h16q-2 -63 -39.5 -104t-97.5 -41 q-42 0 -82 22.5t-66.5 49t-64.5 49t-76 22.5q-54 0 -86.5 -36.5t-34.5 -92.5h-16z" />
<glyph unicode="&#xf6;" horiz-adv-x="1249" d="M125 512q0 155 69 277t182.5 186.5t248.5 64.5q101 0 192 -38t159 -106t108 -167.5t40 -216.5q0 -116 -40 -216t-108 -167.5t-159 -106t-192 -38.5q-135 0 -248.5 65t-182.5 187t-69 276zM141 512q0 -112 39 -209t105.5 -162.5t154.5 -103t185 -37.5t185 37.5t154 103 t105 162.5t39 209q0 113 -39 210t-105 162.5t-154 102.5t-185 37t-185 -37t-154.5 -102.5t-105.5 -162.5t-39 -210zM498 1399q0 14 9.5 23.5t22.5 9.5q14 0 23.5 -10t9.5 -23t-9.5 -22t-23.5 -9t-23 9t-9 22zM686 1399q0 13 10.5 23t24.5 10q13 0 22 -9.5t9 -23.5 q0 -13 -9 -22t-22 -9q-14 0 -24.5 9t-10.5 22z" />
<glyph unicode="&#xf7;" horiz-adv-x="1114" d="M72 748v16h970v-16h-970zM516 397q0 19 12 31t29 12q19 0 31 -12t12 -31q0 -17 -12 -29t-31 -12q-17 0 -29 12t-12 29zM516 1112q0 19 12 31t29 12q19 0 31 -12t12 -31q0 -17 -12 -29t-31 -12q-17 0 -29 12t-12 29z" />
<glyph unicode="&#xf8;" horiz-adv-x="1249" d="M125 512q0 155 69 277t182.5 186.5t248.5 64.5q180 0 307 -106l94 123l12 -10l-92 -123q84 -71 131 -177t47 -235q0 -116 -40 -216t-108 -167.5t-159 -106t-192 -38.5q-183 0 -314 110l-98 -129l-12 10l98 129q-82 71 -128 176t-46 232zM141 512q0 -123 44.5 -223 t123.5 -170l613 803q-127 102 -297 102q-97 0 -185 -37t-154.5 -102.5t-105.5 -162.5t-39 -210zM322 109q131 -109 303 -109q97 0 185 37.5t154 103t105 162.5t39 209q0 124 -46 227t-128 172z" />
<glyph unicode="&#xf9;" horiz-adv-x="1157" d="M211 383v641h16v-641q0 -168 98 -275.5t253 -107.5t253.5 107.5t98.5 275.5v641h16v-641q0 -175 -103 -287t-265 -112t-264.5 112t-102.5 287zM307 1599h21l260 -391h-19z" />
<glyph unicode="&#xfa;" horiz-adv-x="1157" d="M211 383v641h16v-641q0 -168 98 -275.5t253 -107.5t253.5 107.5t98.5 275.5v641h16v-641q0 -175 -103 -287t-265 -112t-264.5 112t-102.5 287zM567 1208l260 391h21l-262 -391h-19z" />
<glyph unicode="&#xfb;" horiz-adv-x="1157" d="M211 383v641h16v-641q0 -168 98 -275.5t253 -107.5t253.5 107.5t98.5 275.5v641h16v-641q0 -175 -103 -287t-265 -112t-264.5 112t-102.5 287zM319 1212l254 326h9l254 -326h-21l-237 304l-238 -304h-21z" />
<glyph unicode="&#xfc;" horiz-adv-x="1157" d="M211 383v641h16v-641q0 -168 98 -275.5t253 -107.5t253.5 107.5t98.5 275.5v641h16v-641q0 -175 -103 -287t-265 -112t-264.5 112t-102.5 287zM449 1399q0 14 9.5 23.5t22.5 9.5t23 -10t10 -23t-9.5 -22t-23.5 -9t-23 9t-9 22zM637 1399q0 13 10.5 23t24.5 10 q13 0 21.5 -9.5t8.5 -23.5t-8.5 -22.5t-21.5 -8.5q-14 0 -24.5 9t-10.5 22z" />
<glyph unicode="&#xfd;" horiz-adv-x="972" d="M57 1024h19l411 -995l410 995h18l-634 -1546h-19l217 526zM477 1208l260 391h21l-262 -391h-19z" />
<glyph unicode="&#xfe;" horiz-adv-x="1232" d="M219 -522v2113h17v-731q135 180 393 180q89 0 172.5 -32.5t153 -95t111.5 -166.5t42 -234t-42 -234t-111.5 -166.5t-153 -95t-172.5 -32.5q-258 0 -393 180v-686h-17zM236 186q71 -93 162 -139.5t231 -46.5q86 0 167.5 32.5t148 93.5t107 161.5t40.5 224.5t-40.5 224.5 t-107 161.5t-148 93.5t-167.5 32.5q-140 0 -231 -46.5t-162 -139.5v-652z" />
<glyph unicode="&#xff;" horiz-adv-x="972" d="M57 1024h19l411 -995l410 995h18l-634 -1546h-19l217 526zM358 1399q0 13 10 23t23 10t23 -10t10 -23t-9.5 -22t-23.5 -9t-23.5 9t-9.5 22zM547 1399q0 13 10.5 23t24.5 10q13 0 21.5 -9.5t8.5 -23.5t-8.5 -22.5t-21.5 -8.5q-14 0 -24.5 9t-10.5 22z" />
<glyph unicode="&#x152;" horiz-adv-x="2420" d="M139 766q0 174 60 322t162.5 248t241.5 156t296 56q183 0 339.5 -73t264 -212t142.5 -323v592h714v-16h-698v-709h643v-16h-643v-775h698v-16h-714v592q-36 -184 -144 -323t-264 -212t-338 -73q-156 0 -295 56t-242 156t-163 248t-60 322zM156 766q0 -170 59 -315 t159.5 -243t236.5 -153t288 -55t288.5 55t237.5 153t160.5 243t59.5 315t-58.5 315t-159.5 243t-237.5 153t-290.5 55q-153 0 -289 -55t-236.5 -153t-159 -243t-58.5 -315z" />
<glyph unicode="&#x153;" horiz-adv-x="2113" d="M125 512q0 155 69 277t182.5 186.5t248.5 64.5q184 0 321.5 -117t169.5 -311q31 194 158 311t303 117q200 0 308 -135.5t93 -382.5h-854v-14v-4q0 -117 36.5 -213t99.5 -159t148 -97.5t183 -34.5q115 0 209.5 44.5t157.5 123.5l12 -10q-65 -82 -162 -128t-217 -46 q-184 0 -316 112t-161 307q-33 -189 -170.5 -304t-318.5 -115q-135 0 -248.5 65t-182.5 187t-69 276zM141 512q0 -112 39 -209t105.5 -162.5t154.5 -103t185 -37.5t185 37.5t154 103t105 162.5t39 209q0 113 -39 210t-105 162.5t-154 102.5t-185 37t-185 -37t-154.5 -102.5 t-105.5 -162.5t-39 -210zM1124 539h838q12 231 -91.5 358t-293.5 127q-188 0 -315.5 -134.5t-137.5 -350.5z" />
<glyph unicode="&#x178;" horiz-adv-x="1318" d="M51 1532h21l587 -840l588 840h21l-600 -856v-676h-17v676zM530 1751q0 13 10 23t23 10t23 -10t10 -23t-9.5 -22t-23.5 -9t-23.5 9t-9.5 22zM719 1751q0 13 10.5 23t24.5 10q13 0 21.5 -9.5t8.5 -23.5t-8.5 -22.5t-21.5 -8.5q-14 0 -24.5 9t-10.5 22z" />
<glyph unicode="&#x2c6;" horiz-adv-x="622" d="M53 1212l254 326h8l254 -326h-20l-238 304l-237 -304h-21z" />
<glyph unicode="&#x2dc;" horiz-adv-x="677" d="M57 1294q2 63 40 104.5t98 41.5q34 0 66 -15t57 -36t49.5 -42t54 -36t61.5 -15q54 0 86.5 36.5t34.5 92.5h17q-2 -63 -40 -104t-98 -41q-42 0 -81.5 22.5t-66 49t-64.5 49t-76 22.5q-54 0 -86.5 -36.5t-34.5 -92.5h-17z" />
<glyph unicode="&#x2000;" horiz-adv-x="985" />
<glyph unicode="&#x2001;" horiz-adv-x="1970" />
<glyph unicode="&#x2002;" horiz-adv-x="985" />
<glyph unicode="&#x2003;" horiz-adv-x="1970" />
<glyph unicode="&#x2004;" horiz-adv-x="656" />
<glyph unicode="&#x2005;" horiz-adv-x="492" />
<glyph unicode="&#x2006;" horiz-adv-x="328" />
<glyph unicode="&#x2007;" horiz-adv-x="328" />
<glyph unicode="&#x2008;" horiz-adv-x="246" />
<glyph unicode="&#x2009;" horiz-adv-x="394" />
<glyph unicode="&#x200a;" horiz-adv-x="109" />
<glyph unicode="&#x2010;" horiz-adv-x="815" d="M92 526v17h631v-17h-631z" />
<glyph unicode="&#x2011;" horiz-adv-x="815" d="M92 526v17h631v-17h-631z" />
<glyph unicode="&#x2012;" horiz-adv-x="815" d="M92 526v17h631v-17h-631z" />
<glyph unicode="&#x2013;" horiz-adv-x="1142" d="M92 526v17h959v-17h-959z" />
<glyph unicode="&#x2014;" horiz-adv-x="1617" d="M92 526v17h1434v-17h-1434z" />
<glyph unicode="&#x2018;" horiz-adv-x="260" d="M90 1184q0 185 123 280v-18q-100 -95 -90 -240h8q14 0 25.5 -11t11.5 -26t-11 -27t-26 -12q-41 0 -41 54z" />
<glyph unicode="&#x2019;" horiz-adv-x="260" d="M47 1130v19q100 95 90 240h-8q-14 0 -25.5 10.5t-11.5 25.5t11 27t26 12q41 0 41 -53q0 -186 -123 -281z" />
<glyph unicode="&#x201a;" horiz-adv-x="260" d="M47 -252q100 95 90 240h-8q-14 0 -25.5 11t-11.5 26t11 26.5t26 11.5q41 0 41 -53q0 -185 -123 -280v18z" />
<glyph unicode="&#x201c;" horiz-adv-x="487" d="M70 1184q0 185 123 280v-18q-101 -96 -91 -240h9q14 0 25 -11t11 -26t-10.5 -27t-25.5 -12q-41 0 -41 54zM297 1184q0 185 123 280v-18q-100 -95 -90 -240h8q14 0 25.5 -11t11.5 -26t-11 -27t-26 -12q-41 0 -41 54z" />
<glyph unicode="&#x201d;" horiz-adv-x="487" d="M27 1130v19q100 95 90 240h-8q-14 0 -25.5 10.5t-11.5 25.5t11 27t26 12q41 0 41 -53q0 -186 -123 -281zM254 1130v19q100 95 90 240h-8q-14 0 -25.5 10.5t-11.5 25.5t11 27t26 12q41 0 41 -53q0 -186 -123 -281z" />
<glyph unicode="&#x201e;" horiz-adv-x="487" d="M47 -252q100 95 90 240h-8q-14 0 -25.5 11t-11.5 26t11 26.5t26 11.5q41 0 41 -53q0 -185 -123 -280v18zM274 -252q101 96 91 240h-9q-14 0 -25.5 11t-11.5 26t11 26.5t26 11.5q41 0 41 -53q0 -185 -123 -280v18z" />
<glyph unicode="&#x2022;" horiz-adv-x="714" d="M127 522q0 96 67.5 163t163.5 67q95 0 162.5 -67.5t67.5 -162.5q0 -96 -67 -163.5t-163 -67.5q-97 0 -164 67t-67 164z" />
<glyph unicode="&#x2026;" horiz-adv-x="862" d="M109 25q0 19 12 31t29 12q19 0 31 -12t12 -31q0 -17 -12 -29t-31 -12q-17 0 -29 12t-12 29zM389 25q0 19 12 31t29 12q19 0 31 -12t12 -31q0 -17 -12 -29t-31 -12q-17 0 -29 12t-12 29zM670 25q0 19 12 31t29 12q19 0 31 -12t12 -31q0 -17 -12 -29t-31 -12q-17 0 -29 12 t-12 29z" />
<glyph unicode="&#x202f;" horiz-adv-x="394" />
<glyph unicode="&#x2039;" horiz-adv-x="544" d="M31 508l450 407l13 -12l-437 -395l437 -395l-13 -13z" />
<glyph unicode="&#x203a;" horiz-adv-x="544" d="M51 113l436 395l-436 395l12 12l451 -407l-451 -408z" />
<glyph unicode="&#x205f;" horiz-adv-x="492" />
<glyph unicode="&#x20ac;" horiz-adv-x="1404" d="M10 573l6 17h197q-12 82 -12 176q0 96 12 178h-203l6 17h199q44 275 206 431t406 156q257 0 424 -135l-8 -16q-163 135 -416 135q-241 0 -397 -152t-199 -419h824l-6 -17h-820q-12 -82 -12 -178q0 -94 12 -176h668l-6 -17h-660q43 -268 201 -420.5t395 -152.5 q262 0 435 150l10 -13q-170 -153 -445 -153q-246 0 -407.5 157.5t-204.5 431.5h-205z" />
<glyph unicode="&#x2122;" horiz-adv-x="1769" d="M94 1516v16h629v-16h-307v-719h-17v719h-305zM842 797v735h14l369 -709l370 709h15v-735h-17v694l-364 -694h-8l-363 694v-694h-16z" />
<glyph unicode="&#x25fc;" horiz-adv-x="1024" d="M0 0v1024h1024v-1024h-1024z" />
</font>
</defs>
</svg>
