<svg width="1920" height="371" viewBox="0 0 1920 371" fill="none" xmlns="http://www.w3.org/2000/svg"><g clip-path="url(#clip0)"><path fill="#fff" d="M0 0h1920v371H0z"/><path d="M0 239.013s189.5 48 507.5 48 492-96 866-96 546.5 48 546.5 48v204H0v-204z" fill="#31ADC7"/><path d="M1732 221.013c0 44.735-36.26 81-81 81s-81-36.265-81-81 36.26-81 81-81 81 36.265 81 81z" fill="#fff"/><path fill-rule="evenodd" clip-rule="evenodd" d="M1651 151.013c-38.66 0-70 31.34-70 70s31.34 70 70 70 70-31.34 70-70-31.34-70-70-70zm-92 70c0-50.811 41.19-92 92-92s92 41.189 92 92c0 50.81-41.19 92-92 92s-92-41.19-92-92z" fill="#31ADC7"/><circle cx="692" cy="276" r="40" fill="#fff" stroke="#31ADC7" stroke-width="12"/><circle cx="1425" cy="121" r="27" fill="#31ADC7"/><circle cx="483" cy="177" r="27" fill="#31ADC7"/><circle cx="146.5" cy="111.5" r="31.5" fill="#fff" stroke="#31ADC7" stroke-width="10"/><circle cx="795.5" cy="107.5" r="16.5" fill="#31ADC7"/><circle cx="70.5" cy="301.5" r="16.5" fill="#fff"/><circle cx="350.5" cy="336.494" r="13.5" stroke="#fff" stroke-width="6"/><circle cx="1125.5" cy="131.5" r="13.5" fill="#fff" stroke="#31ADC7" stroke-width="6"/><circle cx="1372" cy="279.994" r="31.5" stroke="#fff" stroke-width="9"/><circle cx="1110.5" cy="368.494" r="47.5" fill="#fff"/><circle cx="1814" cy="76" r="41" fill="#31ADC7"/><circle cx="1615.5" cy="29.5" r="25.5" fill="#fff" stroke="#31ADC7" stroke-width="8"/></g><defs><clipPath id="clip0"><path fill="#fff" d="M0 0h1920v371H0z"/></clipPath></defs></svg>