<?xml version="1.0" encoding="utf-8"?>
<!-- Generator: Adobe Illustrator 18.1.1, SVG Export Plug-In . SVG Version: 6.00 Build 0)  -->
<svg version="1.1" id="Layer_1" xmlns="http://www.w3.org/2000/svg" xmlns:xlink="http://www.w3.org/1999/xlink" x="0px" y="0px"
	 viewBox="0 0 386.6 100" enable-background="new 0 0 386.6 100" xml:space="preserve">
<path fill="#FFFFFF" d="M187,72.1c-5.4,7.8-14.9,11.5-24,11.5c-13.1,0-25.9-6.5-25.9-21.6c0-14.6,12.9-21,26.1-20.8
	c7.8,0,16.4,1.7,23,5.4v-5.1c0-11.9-10.4-15.6-21.1-15.6c-7.1,0-15.7,2.2-21.2,4.9l-2-9.1c7.7-3.4,15.3-5.5,23.3-5.5
	c17.4,0,31.5,6.3,31.5,25.5v41h-9.1l-0.5-10.3L187,72.1z M164.8,50.2c-8.4,0-17,3.2-17,12c0,8.8,9.4,12,16.8,12
	c11.1,0,21.5-7.3,21.9-18.5C180.6,52.3,171.4,50.2,164.8,50.2z"/>
<path fill="#FFFFFF" d="M254.4,31.8c-5.7-5.1-11.6-6.3-18.3-6.3c-9-0.1-16.2,3-16.1,9.5c0.1,6.7,8,8.7,16.2,9.6
	c11.9,1.5,27.7,3.8,27.4,19.9c-0.3,13.1-12.7,19.5-27.3,19.5c-10.9,0-21.8-3-29.1-12.3l6.2-7.5c5.8,7.1,15.2,10,23.2,10
	c7.1,0,16.2-2.2,16.5-10.2c0.1-7.1-7.5-9.2-17.5-10.4c-12.5-1.6-26-4.9-26-18.7c-0.1-13.8,13.9-19.3,26.4-19.1
	c9.8,0,17.8,2.4,24.8,8.7l-6.2,7.1L254.4,31.8z"/>
<path fill="#FFFFFF" d="M350.6,17.2l0.8,9.8c4.5-8.4,12.5-10.8,20-10.8c5.7-0.1,11.2,1.8,15.2,4.9l-4.9,9.2
	c-3.4-2.4-6.9-3.6-11.3-3.6c-10.4,0.1-19.1,7.5-19.1,19.5v36.3h-10.8V17.3h10L350.6,17.2z"/>
<path fill="#FFFFFF" d="M121.8,73.7c-7.8,0-10.3-4.9-10.3-12.5V26.7h20.3v-9.2h-20.2V0h-10.8v17.5H87.8v9.2h13.1v34.4
	c0,14.4,6.6,22.6,20.6,22.3c4.4-0.1,8.3-1.2,12.7-3.2l-3.2-9C128,72.7,124.7,73.7,121.8,73.7z"/>
<path fill="#50AD62" d="M68,65.1c-4.4,5.5-11.2,9.1-18.8,9.1C37.7,74.1,28,65.9,25.7,55h57.2c0.2-1.6,0.4-3.3,0.4-5
	c0-18.8-15.3-34-34-34s-34,15.3-34,34c0,7.5,2.4,14.4,6.5,20L0,91.8l8.2,8.2l21.8-21.8c5.5,3.7,12.1,5.9,19.2,5.9
	c10.4,0,19.6-4.7,25.8-12L68,65.1z M49.3,26c11.5,0,21.2,8.1,23.5,19h-47C28.1,34.2,37.7,26,49.3,26z"/>
<polygon fill="#FFFFFF" points="285.8,51.8 285.8,44.8 285.8,0 275.1,0 275.1,82.5 285.8,82.5 "/>
<polygon fill="#FFFFFF" points="333.2,82.5 299.2,48.5 330.4,17.3 316.6,17.3 285.4,48.5 319.4,82.5 "/>
</svg>
