<svg xmlns="http://www.w3.org/2000/svg" width="259" height="88" fill="none" xmlns:v="https://vecta.io/nano"><g clip-path="url(#A)"><path d="M258.669 0h-27.804l-27.872 27.716h27.804L258.669 0z" fill="#ff4600"/><g fill="#fff"><path d="M258.669 27.804V0l-27.871 27.705V55.52l27.871-27.716zM34.688 62.564c0 10.265-7.15 16.509-16.555 16.509-10.559 0-18.141-7.787-18.141-17.419a17.42 17.42 0 0 1 5.136-12.45c1.639-1.63 3.587-2.918 5.729-3.788a17.42 17.42 0 0 1 6.748-1.28c6.428 0 11.851 3.168 14.683 7.678l-6.52 3.759c-1.391-2.209-4.414-3.936-8.205-3.936-5.664 0-9.886 4.177-9.886 10.077 0 5.713 4.032 9.886 10.559 9.886 4.464 0 7.391-1.968 8.591-5.182H17.85v-6.725h16.838v2.871zm15.416 10.081c1.968 0 3.646-.772 4.602-1.827l5.759 3.313c-2.35 3.264-5.901 4.956-10.46 4.956-8.208 0-13.295-5.518-13.295-12.669S41.896 53.75 49.478 53.75c7.005 0 12.187 5.423 12.187 12.669a13.98 13.98 0 0 1-.287 2.878H44.345c.913 2.481 3.118 3.349 5.759 3.349zm4.407-8.736c-.768-2.782-2.927-3.791-5.087-3.791-2.736 0-4.559 1.345-5.232 3.791H54.51zm19.656-2.591v8.495c0 2.06 1.77 2.255 4.956 2.06V78.4c-9.405.959-12.141-1.869-12.141-8.587v-8.495H63.13v-6.91h3.837v-6.725h7.2v6.725h4.956v6.91h-4.956zm7.922 9.454l6.623-3.841c1.2 2.786 3.264 4.655 7.055 4.655 3.646 0 4.559-1.441 4.559-2.736 0-2.064-1.922-2.878-6.959-4.269s-9.886-3.791-9.886-10.223 5.472-10.223 11.277-10.223c5.519 0 9.837 2.641 12.287 7.582l-6.478 3.794c-1.154-2.403-2.736-3.894-5.809-3.894-2.4 0-3.6 1.2-3.6 2.545 0 1.536.818 2.591 6.046 4.173 5.09 1.536 10.8 3.313 10.8 10.414 0 6.481-5.182 10.318-12.478 10.318-7.055.004-11.564-3.356-13.437-8.297zm41.297 1.873c1.965 0 3.646-.772 4.602-1.827l5.759 3.313c-2.35 3.264-5.904 4.956-10.463 4.956-8.205 0-13.292-5.518-13.292-12.669s5.182-12.669 12.764-12.669c7.009 0 12.191 5.423 12.191 12.669a13.71 13.71 0 0 1-.29 2.878h-17.03c.91 2.481 3.119 3.349 5.759 3.349zm4.414-8.736c-.768-2.782-2.927-3.791-5.086-3.791-2.736 0-4.559 1.345-5.232 3.791H127.8zm19.648-2.591v8.495c0 2.06 1.77 2.255 4.956 2.06V78.4c-9.405.959-12.141-1.869-12.141-8.587v-8.495h-3.855v-6.91h3.841v-6.725h7.199v6.725h4.956v6.91h-4.956zm9.671 6.237V44.809h7.678V66.9c0 2.541 1.2 4.701 5.281 4.701s5.278-2.159 5.278-4.701V44.809h7.677v22.746c0 7.2-5.564 11.518-12.955 11.518s-12.959-4.318-12.959-11.518zm56.323-1.151c0 7.15-5.182 12.669-11.468 12.669-3.214 0-5.568-1.104-7.15-2.927V88h-7.2V54.408h7.2v2.255c1.582-1.823 3.936-2.927 7.15-2.927 6.286 0 11.468 5.518 11.468 12.668zm-7.199 0c0-3.6-2.397-5.855-5.71-5.855s-5.709 2.255-5.709 5.855 2.4 5.855 5.709 5.855 5.71-2.255 5.71-5.855z"/></g></g><defs><clipPath id="A"><path fill="#fff" d="M0 0h258.669v88H0z"/></clipPath></defs></svg>