<svg width="199" height="96" viewBox="0 0 199 96" fill="none" xmlns="http://www.w3.org/2000/svg"><path d="M80.5861 25.3533H68.2866c.2353-.9327.4199-1.6996.583-2.3771l.0003-.0014c.2289-.951.4153-1.7257.64-2.5352 1.3457-4.8652 4.8933-5.1787 7.6636-5.1787h5.2603L85.6603.2982S79.5539 0 78.3713 0C67.4048 0 54.5421.1325 50.1866 21.8923l-.7901 3.461H39.1436l-2.9207 14.5779h10.4594L34.7473 96h18.6836l11.935-56.0688h12.2995l2.9207-14.5779zM39.1429.6827H20.133l-3.4584 16.8206h19.0099L39.1429.6827zM159.963 46.1391l16.117-20.7862h22.3l-61.704 70.6467h-22.3l30.887-35.2138-16.054-35.4329h22.96l7.794 20.7862zM160.357 95.9996l-4.753-13.2858 14.435-16.2344 13.276 29.5202h-22.958zM19.0099 95.9996H0l14.8047-70.6467h19.0379L19.0099 95.9996zM70.9169 95.9996L91.2062.6826h18.7478l-20.2897 95.317H70.9169zM110.169 25.3529L95.3647 95.9996h19.0103l14.832-70.6467h-19.038zM112.041 17.5033h19.01L134.51.6827h-19.013l-3.456 16.8206z" fill="#fff"/></svg>