<svg width="443" height="80" viewBox="0 0 443 80" fill="none" xmlns="http://www.w3.org/2000/svg"><g clip-path="url(#clip0)"><path d="M294.756 3.67858L288.708.495208c-.123-.064638-.26-.096509-.399-.092533-.139.003976-.274.043663-.393.115228-.119.071565-.217.172588-.286.293308-.068.12072-.105.257059-.105.395839V64.4081c0 .1536.061.3009.17.4096.108.1086.256.1696.409.1696h6.502c.154 0 .301-.061.409-.1696.109-.1087.17-.256.17-.4096V4.39042c0-.14639-.04-.28998-.116-.41538-.075-.12539-.183-.22787-.313-.29646zM379.909 20.6368c-3.806-2.2342-8.013-3.3513-12.618-3.3513h-11.155c-.035 0-.069-.0068-.1-.0199-.032-.0131-.061-.0323-.085-.0565a.261721.261721 0 01-.056-.0847c-.013-.0316-.02-.0655-.02-.0998V8.06472c-.002-.13143-.036-.26042-.099-.37592-.063-.1155-.152-.21407-.262-.28728l-5.672-3.75815c-.121-.08037-.261-.12661-.406-.13386-.146-.00725-.29.02477-.418.09267-.128.06791-.236.16919-.312.29316-.075.12397-.116.26604-.118.41123V64.5055c.001.1277.052.2499.142.3402.09.0902.213.1412.34.1418h17.845c6.76 0 12.532-2.2734 17.314-6.82s7.174-10.2207 7.174-17.0222c.002-3.8485-.925-7.6407-2.704-11.0534-1.942-3.9438-4.998-7.2312-8.79-9.4551zm-1.277 32.1588c-3.255 2.9976-7.285 4.4957-12.093 4.4943h-10.403c-.07 0-.136-.0275-.185-.0764-.049-.0489-.076-.1153-.076-.1845V24.4038c0-.0691.027-.1355.076-.1844s.115-.0764.185-.0764h10.169c4.806 0 8.874 1.6256 12.205 4.8767 3.331 3.2512 4.995 7.2901 4.994 12.1168.007 4.775-1.617 8.6614-4.872 11.6591zM342.743 17.2855h-18.441c-4.607 0-8.813 1.1171-12.619 3.3513-3.791 2.2215-6.847 5.5067-8.789 9.4485-1.779 3.4127-2.707 7.2048-2.704 11.0534 0 6.8074 2.391 12.4815 7.174 17.0222 4.782 4.5407 10.554 6.814 17.314 6.8199h17.844c.128-.0006.25-.0515.34-.1418.091-.0902.142-.2125.142-.3401V17.5463c0-.0692-.027-.1355-.076-.1844-.049-.049-.115-.0764-.185-.0764zm-7.025 39.7369c0 .0692-.028.1355-.077.1844-.048.049-.115.0764-.184.0764h-10.403c-4.808 0-8.839-1.4981-12.095-4.4943-3.256-2.9962-4.883-6.8825-4.881-11.6591 0-4.8251 1.664-8.8641 4.994-12.1167 3.329-3.2526 7.397-4.8782 12.205-4.8768h10.18c.034 0 .068.0068.1.0199s.06.0323.084.0566c.025.0242.044.0529.057.0846.013.0316.02.0656.02.0998v32.6252zM440.378 43.3449l-.073-.1238-1.466-2.162c-2.653-3.2998-6.337-4.9505-11.053-4.9519h-19.801c-.738.0132-1.47-.1227-2.154-.3996-.684-.2769-1.305-.6892-1.825-1.212-.536-.5125-.96-1.131-1.244-1.8161-.284-.6851-.422-1.4217-.405-2.1631-.013-.7311.127-1.4567.411-2.1304.284-.6737.706-1.2809 1.238-1.7825.52-.5233 1.141-.9359 1.825-1.2132.683-.2774 1.416-.4136 2.154-.4006h19.721c.088-.0004.174-.0245.249-.0698.075-.0452.136-.11.177-.1874.041-.0773.06-.1644.056-.2519-.005-.0874-.033-.172-.082-.2448l-4.56-6.7293c-.044-.0668-.103-.1219-.173-.1604-.069-.0386-.148-.0594-.227-.0606h-15.451c-3.605 0-6.672 1.2954-9.201 3.8863-1.224 1.2154-2.19 2.6649-2.841 4.2621-.652 1.5971-.975 3.3091-.95 5.0338-.009 2.3559.613 4.6713 1.802 6.705 2.505 4.3197 6.286 6.4788 11.341 6.4773H427.3c.896-.0177 1.787.1452 2.619.4791.832.3338 1.588.8317 2.224 1.4641.634.6219 1.136 1.3644 1.478 2.1837.343.8193.517 1.6988.514 2.5867-.004.8878-.185 1.766-.533 2.5827-.348.8167-.856 1.5555-1.494 2.1727-.633.6262-1.384 1.1205-2.209 1.4541-.826.3335-1.709.4998-2.599.4891h-31.812c-.069 0-.136.0275-.185.0764-.048.0489-.076.1153-.076.1844v7.4036c0 .0343.007.0682.02.0998.013.0317.032.0604.056.0847.025.0242.053.0434.085.0565.032.0131.066.0199.1.0199h31.887c4.156 0 7.673-1.3463 10.551-4.0389 2.879-2.6927 4.32-6.173 4.324-10.4411.007-2.5094-.638-4.9775-1.872-7.1626zM26.4014 39.5629c2.2957-.1634 4.0242-2.1568 3.8609-4.4524-.1634-2.2957-2.1568-4.0242-4.4524-3.8609-2.2956.1634-4.0242 2.1568-3.8608 4.4524.1633 2.2956 2.1567 4.0242 4.4523 3.8609zM35.4858 28.5421c0 .5981.1774 1.1828.5097 1.6801.3323.4973.8046.885 1.3572 1.1139.5526.2289 1.1606.2887 1.7473.1721.5866-.1167 1.1255-.4048 1.5484-.8277.423-.423.711-.9618.8277-1.5485.1167-.5866.0568-1.1947-.1721-1.7473s-.6165-1.0249-1.1138-1.3572c-.4974-.3323-1.0821-.5097-1.6802-.5097-.8021 0-1.5713.3187-2.1384.8858-.5672.5672-.8858 1.3364-.8858 2.1385zM33.4474 20.1947c.6744.0004 1.3338-.1992 1.8947-.5736.561-.3744.9982-.9068 1.2565-1.5298s.326-1.3085.1945-1.97c-.1314-.6615-.4561-1.2691-.933-1.7459-.4769-.4769-1.0845-.8016-1.7459-.9331-.6615-.1314-1.3471-.0638-1.9701.1945s-1.1553.6956-1.5297 1.2565c-.3744.5609-.574 1.2203-.5736 1.8947.0017.903.3612 1.7684.9997 2.4069.6385.6385 1.504.998 2.4069.9998zm0-5.5886c.4317-.0005.8538.1271 1.2129.3666.3591.2395.6391.5801.8046.9788.1655.3986.209.8374.125 1.2608-.0839.4234-.2915.8124-.5966 1.1178-.3051.3053-.6938.5134-1.1172.5977-.4233.0844-.8621.0413-1.2609-.1237-.3989-.1651-.7398-.4448-.9796-.8037-.2399-.3588-.3679-.7808-.3679-1.2124-.0003-.2864.0559-.5701.1653-.8348.1094-.2647.2699-.5053.4724-.7079.2024-.2027.4428-.3634.7074-.4731.2646-.1097.5482-.1661.8346-.1661zM57.4753 53.1182l-3.095-5.7256a3.576794 3.576794 0 00-1.3211-1.3682c-.5558-.3285-1.1901-.5005-1.8357-.4976h-3.2829v-.0553c0-1.9729-.7837-3.865-2.1788-5.2601-1.3951-1.3951-3.2872-2.1788-5.2601-2.1788-1.973 0-3.8651.7837-5.2601 2.1788-1.3951 1.3951-2.1789 3.2872-2.1789 5.2601v.0553H16.0405c-.6449.0001-1.2778.1743-1.8319.5043-.554.3299-1.0088.8034-1.3161 1.3703l-3.09493 5.7257c-.29096.5247-.43989 1.1164-.43204 1.7163.00785.6.1722 1.1875.47679 1.7045.30458.517.73888.9455 1.25988 1.2431.521.2976 1.1107.454 1.7107.4538h41.647c.6013.0011 1.1924-.1552 1.7146-.4532.5222-.2981.9574-.7276 1.2622-1.2459.3049-.5183.4688-1.1073.4756-1.7086.0068-.6013-.1439-1.1938-.437-1.7189zm-16.9714-2.2615c-1.0669 0-2.1097-.3163-2.9968-.909-.887-.5927-1.5784-1.4352-1.9867-2.4208-.4082-.9856-.5151-2.0702-.3069-3.1165.2081-1.0464.7218-2.0075 1.4762-2.7619s1.7155-1.2681 2.7619-1.4762c1.0463-.2082 2.1309-.1013 3.1165.3069.9856.4083 1.8281 1.0997 2.4208 1.9867.5927.887.909 1.9299.909 2.9968-.0011 1.4302-.5698 2.8015-1.5811 3.8129-1.0114 1.0113-2.3827 1.58-3.8129 1.5811z" fill="#31ADC7"/><path fill-rule="evenodd" clip-rule="evenodd" d="M175.884 3.25219L170.099.099767c-.123-.06711-.262-.101111-.401-.098667-.14.002444-.277.04125-.398.112607-.12.071357-.22.17281-.289.294393-.07.121583-.106.259114-.106.399083V16.6003c0 .0691-.028.1355-.077.1844s-.115.0764-.184.0764h-11.33c-4.681 0-8.955 1.1179-12.822 3.3536-3.847 2.2163-6.972 5.4965-8.999 9.4462-1.759 3.4189-2.674 7.2089-2.669 11.0534 0 6.806 2.415 12.48 7.245 17.0223 4.829 4.5422 10.702 6.8155 17.617 6.8199h18.03c.154-.0006.301-.0621.41-.1711.108-.109.169-.2565.169-.4103V3.96624c.002-.14494-.036-.28767-.108-.41329-.072-.12561-.177-.22948-.303-.30076zm-6.979 53.35251c0 .0342-.007.0682-.02.0998-.013.0317-.032.0604-.057.0846-.01.0099-.02.0189-.031.027-.017.0119-.034.0218-.053.0296-.032.0131-.066.0198-.1.0198h-10.567c-4.881 0-8.987-1.4981-12.318-4.4943-3.331-2.9962-4.995-6.8825-4.994-11.6591 0-4.8266 1.703-8.8655 5.109-12.1167 3.406-3.2512 7.549-4.8768 12.431-4.8768h10.339c.069 0 .135.0275.184.0764.049.049.077.1153.077.1845v32.6252z" fill="#fff"/><path d="M119.294 21.3576c-4.322-3.4044-10.299-5.1317-17.93-5.1818-7.0745 0-13.1502 2.3875-18.2274 7.1626-5.0772 4.775-7.6195 10.5913-7.6268 17.4489 0 6.9091 2.529 12.7128 7.587 17.4112 5.058 4.6985 11.147 7.0484 18.2672 7.0499 5.081 0 9.707-.9911 13.878-2.9734 2.624-1.2329 5.076-2.8016 7.295-4.6667.059-.0493.107-.1097.142-.1776.035-.0679.056-.1421.063-.2183.006-.0762-.003-.1528-.026-.2256-.023-.0729-.061-.1403-.11-.1987l-3.864-4.5407c-.1-.1146-.239-.186-.39-.1992-.151-.0132-.302.0329-.419.1285-1.821 1.4429-3.829 2.6327-5.969 3.537-3.674 1.5261-7.615 2.3032-11.593 2.2859-4.7794 0-8.8596-1.6764-12.2405-5.0293-3.3808-3.3529-5.0934-7.4139-5.1376-12.183-.0531-4.8768 1.7391-9.0167 5.3764-12.4196 3.6373-3.403 7.9687-5.1052 12.9947-5.1067 10.066 0 15.813 4.5975 17.243 13.7924-.049.0491-.115.0769-.184.0774H90.8939c-.1537 0-.301.061-.4096.1696-.1086.1087-.1696.256-.1696.4096v5.8052c0 .1536.061.301.1696.4096.1086.1086.2559.1696.4096.1696h35.7751c.068.0001.133-.0258.182-.0723.049-.0465.078-.11.081-.1775.042-1.0257.064-2.8739.064-3.8178.008-8.4345-2.56-14.6576-7.702-18.6692z" fill="#fff"/><path fill-rule="evenodd" clip-rule="evenodd" d="M224.38 16.2278c.049.0489.077.1152.077.1844h.006v48.5133c0 3.3536-.625 6.4729-2.456 9.1655-1.932 2.8938-4.764 5.1089-7.916 5.5643-1.99.2896-15.241.3272-21.223.3161-.105-.0003-.208-.0292-.298-.0836-.089-.0544-.163-.1322-.212-.2251-.049-.0929-.072-.1974-.066-.3023.006-.1048.04-.2062.099-.2931l3.51-5.1819c.054-.0783.125-.1425.209-.1868.083-.0443.177-.0675.271-.0674h8.323c5.034 0 8.746-.7936 10.735-3.5371 1.269-1.7774 1.672-4.0256 1.621-5.5488v-.4421c0-.0692-.028-.1356-.077-.1845s-.115-.0764-.184-.0764H206.13c-6.76-.0059-12.531-2.2792-17.314-6.8199-4.782-4.5408-7.173-10.2148-7.173-17.0222-.003-3.8486.924-7.6407 2.703-11.0534 1.942-3.9407 4.999-7.2245 8.79-9.444 3.805-2.2343 8.011-3.3514 12.618-3.3514h18.442c.069 0 .135.0275.184.0764zm-7.295 39.8516c.049-.0489.077-.1153.077-.1845l-.003-32.6274c0-.0691-.027-.1355-.076-.1844s-.115-.0764-.185-.0764h-10.169c-4.807-.0015-8.876 1.6241-12.205 4.8767-3.329 3.2527-4.994 7.2916-4.994 12.1168-.001 4.778 1.626 8.6651 4.881 11.6613 3.256 2.9962 7.287 4.4943 12.093 4.4943h10.397c.069 0 .135-.0275.184-.0764z" fill="#fff"/><path d="M273.543 21.7819c-4.322-3.4029-10.296-5.1302-17.922-5.1818-7.074 0-13.149 2.3875-18.227 7.1626-5.077 4.7751-7.619 10.5921-7.626 17.4511 0 6.9061 2.529 12.7092 7.589 17.4091 5.059 4.6999 11.148 7.0498 18.264 7.0498 5.084 0 9.71-.9904 13.881-2.9711 2.624-1.2338 5.076-2.8032 7.296-4.669.058-.0491.107-.1094.142-.1773.035-.068.056-.1422.063-.2185.006-.0762-.003-.153-.026-.2258-.024-.0729-.061-.1404-.111-.1985l-3.88-4.5386c-.098-.1152-.237-.1874-.388-.201-.151-.0136-.301.0323-.419.1281-1.82 1.4434-3.828 2.6333-5.968 3.5371-3.674 1.5269-7.615 2.3041-11.593 2.2858-4.78 0-8.86-1.6757-12.241-5.0271-3.381-3.3514-5.096-7.4153-5.146-12.1919-.052-4.8797 1.74-9.0203 5.376-12.4218 3.636-3.4015 7.97-5.1037 13.003-5.1066 10.068 0 15.816 4.5974 17.244 13.7924-.025.0245-.054.044-.085.0573-.032.0133-.066.0201-.101.0201h-27.525c-.154 0-.301.061-.41.1696-.108.1086-.169.256-.169.4096v5.8052c-.001.0763.014.1518.043.2223.029.0706.072.1347.126.1887.053.054.117.0969.188.1261.07.0293.146.0443.222.0443h35.777c.068-.0005.133-.0269.181-.0739.049-.0469.077-.1106.08-.1781.042-1.0258.064-2.8739.064-3.8178 0-8.4257-2.567-14.6458-7.702-18.6604zM45.4156 12.2631L65.409 48.9205c1.0616 1.8299 1.6218 3.9075 1.624 6.023.0021 2.1156-.5539 4.1942-1.6118 6.0263-1.058 1.832-2.5805 3.3525-4.4139 4.4081-1.8334 1.0555-3.9128 1.6088-6.0283 1.6039H12.167c-2.1154.0045-4.19449-.549-6.02758-1.6048-1.83309-1.0557-3.35528-2.5762-4.41297-4.4082C.66876 59.1368.112997 57.0583.115241 54.943c.002245-2.1154.562418-4.1928 1.623989-6.0225L21.7392 12.2631c.4422-.8109.5547-1.7611.314-2.65283l-1.2756-4.73969c-.0806-.30157-.0452-.6224.0993-.8991.1445-.27669.3875-.48913.6811-.59532l1.9232-.69194c.1593-.05726.3286-.08143.4975-.07103.169.0104.334.05514.4851.13149.151.07636.2849.18271.3934.31258.1086.12986.1895.2805.2378.4427l1.4613 4.8878c.2477.82563.329 1.69224.239 2.54954-.0899.8573-.3492 1.6882-.7629 2.4444L5.45981 51.0583c-1.99404 3.4508-1.14956 7.8479 2.5268 10.5007 1.02083.7296 2.24469 1.1208 3.49949 1.1186h44.176c1.2541.0025 2.4774-.3888 3.4973-1.1186 3.6785-2.6462 4.5186-7.0499 2.529-10.5007L41.1158 13.3728a6.507528 6.507528 0 01-.7611-2.44c-.0899-.8557-.0093-1.72072.2372-2.54504l1.459-4.8878c.0484-.1622.1293-.31284.2378-.4427a1.24585 1.24585 0 01.3935-.31258c.1511-.07635.3161-.12109.4851-.13149.1689-.0104.3382.01377.4974.07103l1.93.69194c.2938.10576.5371.31813.6817.59496.1446.27683.1798.59788.0986.89946l-1.2755 4.73969c-.2389.89203-.1257 1.84183.3161 2.65283z" fill="#fff"/></g><defs><clipPath id="clip0"><path fill="#fff" transform="translate(.113281)" d="M0 0h442.135v80H0z"/></clipPath></defs></svg>