<svg width="355" height="64" viewBox="0 0 355 64" fill="none" xmlns="http://www.w3.org/2000/svg"><g clip-path="url(#clip0)"><path d="M236.604 2.94277L231.765.396068c-.098-.05171-.208-.077206-.319-.074026-.111.003181-.219.034931-.314.092183-.096.057252-.174.13807-.229.234646-.055.096576-.084.205645-.084.316668V51.5264c0 .1229.049.2407.136.3276.087.0869.204.1357.327.1357h5.202c.122 0 .24-.0488.327-.1357.087-.0869.136-.2047.136-.3276V3.51224c0-.11712-.032-.23199-.093-.3323-.06-.10032-.147-.1823-.25-.23717zM304.726 16.5094c-3.045-1.7874-6.41-2.6811-10.094-2.6811h-8.925c-.027 0-.054-.0054-.079-.0159-.026-.0105-.049-.0258-.068-.0452-.02-.0194-.035-.0424-.045-.0677-.011-.0253-.016-.0525-.016-.0799V6.45172c-.002-.10514-.029-.20833-.079-.30073-.05-.09241-.122-.17126-.21-.22983l-4.538-3.00652c-.096-.0643-.209-.10129-.325-.10709-.116-.0058-.231.01981-.334.07414-.102.05432-.189.13535-.249.23452-.061.09918-.093.21284-.094.32899v48.1592c0 .1021.041.1999.113.2721.072.0722.17.1129.272.1134h14.276c5.408 0 10.025-1.8186 13.851-5.4559 3.826-3.6373 5.739-8.1766 5.739-13.6178.002-3.0788-.74-6.1126-2.163-8.8427-1.553-3.155-3.998-5.785-7.032-7.5641zm-1.022 25.727c-2.603 2.3981-5.828 3.5966-9.674 3.5954h-8.323c-.055 0-.108-.0219-.147-.0611-.039-.0391-.061-.0922-.061-.1475V19.523c0-.0553.022-.1084.061-.1475.039-.0392.092-.0612.147-.0612h8.136c3.845 0 7.099 1.3005 9.764 3.9014 2.664 2.601 3.996 5.8321 3.995 9.6934.006 3.8201-1.293 6.9292-3.898 9.3273zM274.994 13.8283H260.24c-3.685 0-7.05.8937-10.094 2.6811-3.034 1.7772-5.478 4.4053-7.032 7.5588-1.423 2.7301-2.165 5.7639-2.163 8.8427 0 5.4459 1.913 9.9852 5.739 13.6178 3.826 3.6325 8.443 5.4512 13.851 5.4559h14.276c.102-.0005.2-.0412.272-.1134.072-.0722.113-.17.113-.2721V14.037c0-.0553-.022-.1084-.061-.1476-.039-.0391-.092-.0611-.147-.0611zm-5.621 31.7896c0 .0553-.022.1084-.061.1475-.039.0392-.092.0611-.148.0611h-8.322c-3.846 0-7.072-1.1984-9.676-3.5954-2.604-2.397-3.906-5.5061-3.905-9.3273 0-3.8601 1.332-7.0913 3.995-9.6934 2.664-2.6021 5.918-3.9026 9.764-3.9014h8.144c.028 0 .055.0054.08.0159.026.0105.049.0259.068.0452.019.0194.035.0424.045.0677.011.0254.016.0525.016.0799v26.1002zM353.101 34.6759l-.058-.0991-1.173-1.7296c-2.122-2.6398-5.07-3.9603-8.842-3.9615h-15.841c-.59.0106-1.176-.0981-1.724-.3197-.547-.2215-1.043-.5513-1.46-.9696-.428-.41-.767-.9048-.994-1.4528-.227-.5481-.338-1.1374-.325-1.7306-.01-.5848.102-1.1653.33-1.7043.227-.539.564-1.0246.989-1.426.417-.4186.913-.7487 1.46-.9706.547-.2218 1.134-.3308 1.724-.3204h15.777c.07-.0003.139-.0196.199-.0558s.109-.0881.141-.1499c.033-.0619.049-.1316.045-.2015-.003-.07-.026-.1377-.065-.1959l-3.648-5.3834c-.035-.0535-.083-.0976-.138-.1284-.056-.0309-.119-.0475-.183-.0485h-12.36c-2.884 0-5.337 1.0364-7.361 3.1091-.979.9723-1.752 2.1319-2.273 3.4096-.521 1.2778-.779 2.6474-.76 4.0271-.007 1.8847.49 3.737 1.442 5.364 2.004 3.4557 5.028 5.183 9.072 5.1818h15.563c.718-.0141 1.43.1162 2.096.3833.666.2671 1.271.6654 1.779 1.1713.507.4975.909 1.0915 1.183 1.747.274.6554.413 1.359.411 2.0693-.003.7103-.148 1.4128-.426 2.0662-.279.6534-.685 1.2444-1.196 1.7381-.506.501-1.107.8964-1.767 1.1633-.661.2669-1.367.3999-2.08.3913h-25.449c-.055 0-.108.022-.147.0611-.039.0391-.061.0922-.061.1476v5.9228c0 .0274.005.0546.015.0799.011.0253.026.0483.046.0677.019.0194.042.0347.067.0452.026.0105.053.0159.08.0159h25.51c3.324 0 6.138-1.077 8.441-3.2311 2.303-2.1541 3.456-4.9384 3.459-8.3528.006-2.0076-.511-3.9821-1.498-5.7301zM21.92 31.6502c1.8365-.1307 3.2194-1.7254 3.0887-3.5619-.1307-1.8365-1.7254-3.2194-3.5619-3.0887-1.8365.1307-3.2194 1.7254-3.0887 3.5619.1307 1.8365 1.7254 3.2194 3.5619 3.0887zM29.1875 22.8335c0 .4785.1419.9463.4077 1.3442.2659.3978.6437.7079 1.0858.891.4421.1832.9285.2311 1.3978.1377.4694-.0933.9005-.3238 1.2388-.6621.3384-.3384.5688-.7695.6621-1.2388.0934-.4693.0455-.9557-.1376-1.3978-.1832-.4421-.4933-.82-.8911-1.0858-.3979-.2658-.8656-.4077-1.3441-.4077-.6417 0-1.2571.2549-1.7108.7086s-.7086 1.0691-.7086 1.7107zM27.5568 16.1556c.5395.0004 1.067-.1593 1.5158-.4588.4487-.2995.7985-.7254 1.0051-1.2238.2067-.4984.2608-1.0469.1556-1.576-.1051-.5292-.3649-1.0153-.7464-1.3968-.3815-.3815-.8676-.6413-1.3967-.7464-.5292-.1052-1.0777-.051-1.5761.1556-.4983.2066-.9242.5564-1.2238 1.0052-.2995.4487-.4592.9762-.4588 1.5157.0014.7224.289 1.4148.7998 1.9256.5107.5108 1.2031.7983 1.9255.7997zm0-4.4708c.3453-.0004.683.1017.9703.2933.2872.1916.5113.4641.6436.783.1324.3189.1672.67.1001 1.0087-.0672.3387-.2333.6499-.4773.8942-.2441.2443-.5551.4107-.8937.4782-.3387.0675-.6898.033-1.0088-.099-.3191-.1321-.5918-.3558-.7837-.6429-.1919-.2871-.2943-.6247-.2943-.97-.0002-.2291.0447-.4561.1322-.6678.0876-.2118.216-.4042.3779-.5664.162-.1621.3543-.2907.566-.3784.2117-.0878.4386-.1329.6677-.1329zM46.779 42.4945l-2.4759-4.5805a2.861758 2.861758 0 00-1.0569-1.0946c-.4447-.2628-.9521-.4003-1.4686-.3981h-2.6263v-.0442c0-1.5783-.627-3.092-1.743-4.2081-1.1161-1.116-2.6298-1.743-4.2081-1.743-1.5784 0-3.0921.627-4.2081 1.743-1.1161 1.1161-1.7431 2.6298-1.7431 4.2081v.0442H13.6312c-.5159.0001-1.0222.1395-1.4655.4035-.4432.2639-.807.6427-1.0529 1.0963l-2.47591 4.5805a2.757084 2.757084 0 00-.34564 1.3731c.00628.48.13776.95.38144 1.3635.24367.4136.5911.7564 1.00791.9945.4168.2381.8886.3632 1.3686.3631h33.3175c.4811.0008.954-.1242 1.3717-.3626.4178-.2385.7659-.5821 1.0098-.9967.2439-.4147.3751-.8859.3805-1.3669.0054-.481-.1152-.9551-.3497-1.3751zm-13.5771-1.8092c-.8534 0-1.6877-.2531-2.3974-.7272-.7096-.4742-1.2627-1.1482-1.5893-1.9367s-.4121-1.6561-.2456-2.4932.5775-1.606 1.181-2.2095c.6035-.6035 1.3724-1.0145 2.2095-1.181.837-.1665 1.7047-.081 2.4932.2456.7885.3266 1.4625.8797 1.9366 1.5893.4742.7097.7273 1.544.7273 2.3975-.001 1.1441-.4559 2.2412-1.265 3.0503-.809.809-1.9061 1.264-3.0503 1.2649z" fill="#31ADC7"/><path d="M96.2357 17.0857c-3.4581-2.7235-8.2396-4.1053-14.3446-4.1454-5.6593 0-10.5199 1.91-14.5816 5.73-4.0618 3.8201-6.0956 8.4731-6.1015 13.9591 0 5.5273 2.0232 10.1703 6.0697 13.9291 4.0464 3.7587 8.9175 5.6387 14.6134 5.6399 4.0653 0 7.7663-.7929 11.1029-2.3787 2.0989-.9864 4.0608-2.2413 5.8362-3.7334.0467-.0395.0852-.0877.1133-.1421.028-.0543.0451-.1137.0502-.1746a.46358.46358 0 00-.0206-.1805c-.0186-.0583-.0485-.1123-.0881-.1589l-3.0914-3.6326c-.0794-.0917-.1914-.1488-.3122-.1594-.1208-.0106-.241.0263-.3351.1028-1.4567 1.1543-3.063 2.1062-4.775 2.8296-2.9389 1.2209-6.092 1.8426-9.2743 1.8287-3.8236 0-7.0877-1.3411-9.7924-4.0234-2.7047-2.6823-4.0747-5.9311-4.1101-9.7465-.0424-3.9014 1.3913-7.2132 4.3011-9.9356 2.9099-2.7224 6.375-4.0842 10.3955-4.0854 8.0528 0 12.651 3.678 13.7946 11.034-.0388.0392-.0916.0615-.1468.0619H73.5153c-.1229 0-.2408.0488-.3276.1357-.0869.0869-.1358.2047-.1358.3276v4.6442c0 .1229.0489.2408.1358.3277.0868.0869.2047.1357.3276.1357h28.6207c.054.0001.106-.0207.145-.0579.039-.0372.062-.088.065-.142.034-.8206.051-2.2991.051-3.0542.006-6.7476-2.048-11.7261-6.1613-14.9354zM141.507 2.60146L136.879.07952c-.099-.053687-.209-.080889-.321-.078933-.112.001955-.222.033-.318.090086-.096.057085-.176.138247-.232.235514-.055.097266-.084.207291-.084.319267V13.2799c0 .0554-.022.1084-.061.1476-.04.0391-.093.0611-.148.0611h-9.064c-3.744 0-7.164.8943-10.257 2.6829-3.078 1.773-5.578 4.3972-7.2 7.557-1.407 2.735-2.139 5.767-2.135 8.8427 0 5.4447 1.932 9.984 5.796 13.6178 3.863 3.6337 8.561 5.4524 14.093 5.4559h14.425c.123-.0005.24-.0497.327-.1369.087-.0871.136-.2052.136-.3282V3.1727c.001-.11595-.029-.23014-.086-.33063-.058-.10049-.142-.18359-.243-.24061zm-5.583 42.68204c0 .0274-.006.0545-.016.0798-.011.0253-.026.0483-.045.0677-.02.0194-.043.0348-.068.0453-.026.0104-.053.0158-.08.0158h-8.454c-3.905 0-7.189-1.1984-9.854-3.5954-2.665-2.397-3.996-5.5061-3.995-9.3273 0-3.8613 1.362-7.0924 4.087-9.6934 2.725-2.6009 6.04-3.9014 9.944-3.9014h8.272c.055 0 .108.022.148.0611.039.0392.061.0923.061.1476v26.1002zM180.365 13.1296c0-.0554-.022-.1084-.061-.1476-.039-.0391-.092-.0611-.147-.0611h-14.754c-3.685 0-7.05.8937-10.094 2.6811-3.034 1.7757-5.479 4.4027-7.032 7.5552-1.423 2.7302-2.165 5.7639-2.163 8.8427 0 5.446 1.913 9.9852 5.739 13.6178 3.826 3.6326 8.443 5.4513 13.851 5.456h8.535c.055 0 .108.022.148.0611.039.0391.061.0922.061.1476v.3537c.04 1.2185-.282 3.0171-1.297 4.439-1.591 2.1948-4.561 2.8297-8.588 2.8297h-6.658c-.076-.0001-.151.0185-.217.0539-.067.0355-.125.0868-.167.1495l-2.808 4.1454c-.048.0696-.075.1507-.08.2346-.004.0839.014.1675.053.2418.04.0743.098.1365.17.18.072.0435.155.0667.239.067 4.785.0088 15.386-.0213 16.978-.2529 2.521-.3644 4.787-2.1364 6.333-4.4515 1.464-2.1541 1.965-4.6495 1.965-7.3323V13.1296h-.006zm-5.836 31.5862c0 .0553-.022.1084-.061.1475-.039.0392-.092.0611-.148.0611h-8.317c-3.845 0-7.07-1.1984-9.674-3.5954-2.604-2.397-3.906-5.5067-3.905-9.3291 0-3.8601 1.332-7.0912 3.995-9.6933 2.664-2.6022 5.918-3.9026 9.764-3.9014h8.136c.055 0 .108.0219.147.0611.039.0391.061.0922.061.1475l.002 26.102zM219.636 17.4254c-3.458-2.7224-8.237-4.1042-14.338-4.1455-5.659 0-10.52 1.91-14.581 5.7301-4.062 3.82-6.096 8.4736-6.102 13.9608 0 5.525 2.024 10.1674 6.072 13.9273 4.047 3.7599 8.918 5.6399 14.611 5.6399 4.067 0 7.768-.7923 11.105-2.3769 2.099-.987 4.061-2.2426 5.836-3.7352.047-.0393.086-.0875.114-.1419.028-.0543.045-.1137.05-.1747.005-.061-.002-.1224-.02-.1807-.019-.0583-.049-.1123-.089-.1588l-3.104-3.6308c-.079-.0922-.19-.15-.311-.1609-.12-.0109-.241.0259-.334.1025-1.457 1.1548-3.063 2.1067-4.775 2.8297-2.939 1.2215-6.092 1.8433-9.275 1.8286-3.823 0-7.087-1.3405-9.792-4.0216-2.705-2.6811-4.077-5.9323-4.117-9.7535-.042-3.9038 1.392-7.2163 4.301-9.9375 2.908-2.7212 6.376-4.0829 10.402-4.0853 8.054 0 12.653 3.678 13.795 11.0339-.019.0197-.043.0353-.068.0459-.026.0106-.053.0161-.081.016h-22.02c-.123 0-.24.0488-.327.1357-.087.0869-.136.2048-.136.3277v4.6442c0 .061.012.1214.035.1778.023.0565.057.1078.1.151.043.0432.094.0775.151.1009.056.0234.116.0354.177.0354h28.622c.054-.0004.106-.0216.145-.0591.039-.0375.062-.0885.064-.1425.034-.8206.051-2.2991.051-3.0543 0-6.7405-2.053-11.7166-6.161-14.9282zM53.1276 39.136L37.1329 9.81006c-.3535-.64877-.444-1.40859-.2529-2.12225l1.0204-3.79176c.0649-.24126.0368-.4981-.0789-.71956-.1156-.22147-.3103-.39136-.5454-.47597l-1.5439-.55355c-.1274-.04581-.2629-.06514-.398-.05683a.995271.995271 0 00-.388.1052.994644.994644 0 00-.3148.25006c-.0868.10389-.1516.2244-.1903.35416L33.2739 6.7098a5.207764 5.207764 0 00-.1898 2.03601c.072.68454.2789 1.34799.609 1.95209l16.458 30.1483c1.5917 2.7607.9196 6.2836-2.0232 8.4006-.8159.5839-1.7945.8969-2.7978.8949H9.98928c-1.00382.0018-1.98294-.3112-2.7996-.8949-2.94109-2.1223-3.61667-5.6399-2.02145-8.4006L21.6263 10.7049c.3309-.6049.5384-1.26965.6104-1.95548.0719-.68583.0069-1.37912-.1913-2.03962l-1.169-3.91024c-.0386-.12976-.1034-.25027-.1902-.35416-.0869-.10389-.194-.18898-.3148-.25006-.1208-.06108-.2529-.09688-.388-.1052-.1352-.00831-.2706.01102-.398.05683l-1.5386.55355c-.2349.08495-.4293.2549-.5449.47626-.1156.22136-.1439.47802-.0794.71927l1.0204 3.79176c.1926.71337.1026 1.47353-.2511 2.12225L2.19178 39.136C1.34252 40.5998.894379 42.2617.892584 43.954c-.001796 1.6923.442816 3.3551 1.288966 4.8206.84615 1.4656 2.06391 2.6821 3.53038 3.5266 1.46647.8446 3.12977 1.2874 4.82207 1.2838h34.2496c1.6924.0039 3.3559-.4387 4.8227-1.2831 1.4667-.8445 2.6847-2.0609 3.531-3.5265.8464-1.4656 1.2912-3.1286 1.2895-4.821-.0018-1.6924-.4499-3.3545-1.2992-4.8184z" fill="#484851"/></g><defs><clipPath id="clip0"><path fill="#fff" transform="translate(.890625)" d="M0 0h353.708v64H0z"/></clipPath></defs></svg>