<svg width="316" height="80" viewBox="0 0 316 80" fill="none" xmlns="http://www.w3.org/2000/svg"><path d="M66.9118 39.9434c3.3192-1.9613 5.2806-5.5068 5.2806-9.3541 0-3.9981-2.0368-7.5436-5.5069-9.5049L32.7393 1.471c-3.4701-1.961335-7.5436-1.961335-10.9383 0-3.3946 1.96134-5.4314 5.43141-5.5068 9.2786-3.3946-1.88586-7.39274-1.81042-10.78736.0755C2.03678 12.8619 0 16.4074 0 20.33v39.2268c0 3.9981 2.03678 7.5436 5.50684 9.505 1.73503.9806 3.62093 1.5087 5.50686 1.5087 1.8104 0 3.6209-.4526 5.2805-1.3579.0754 3.8473 2.1122 7.3173 5.5068 9.2787C23.5361 79.472 25.422 80 27.3079 80s3.7718-.528 5.5068-1.5087L66.761 58.8779c3.47-1.9613 5.5068-5.5068 5.5068-9.505-.0754-3.9226-2.0368-7.3927-5.356-9.4295zm-15.6152 0L24.0641 55.7096V24.2527l27.2325 15.6907zM24.0641 10.976c0-1.65964 1.1316-2.48944 1.5842-2.79118.3017-.15087.9052-.45262 1.5841-.45262.4527 0 .9807.15087 1.5842.45262L62.7629 27.7982c1.4332.8298 1.5841 2.1877 1.5841 2.7911 0 .5281-.1509 1.886-1.5841 2.7912l-3.6964 2.1122-35.0024-20.2923V10.976zM9.35408 62.3479c-.45262-.3017-1.58416-1.1315-1.58416-2.7911V20.33c0-1.6596 1.13154-2.4894 1.58416-2.7911.30174-.1509.90522-.4526 1.58412-.4526.4527 0 .9807.1509 1.5842.4526l3.6964 2.1876v40.4338l-3.6964 2.1876c-1.4333.8298-2.64027.2264-3.16832 0zM62.8383 52.0886L28.892 71.702c-1.4333.8298-2.7157.3018-3.1683 0-.4526-.3017-1.5841-1.1315-1.5841-2.7911V64.611l35.0023-20.1414 3.6964 2.1122c1.4333.8298 1.5842 2.1877 1.5842 2.7911 0 .5281-.1509 1.8859-1.5842 2.7157z" fill="url(#paint0_linear)"/><path d="M16.2949 68.9864v-8.7506l-3.6964 2.1877c-1.4333.8298-2.71571.3017-3.16833 0-.07544-.0754-.15087-.0755-.15087-.1509v6.7138c0 .5281 0 .9807.07543 1.5087.52806.0755 1.13157.1509 1.73507.1509 1.8104 0 3.6209-.4526 5.3559-1.3578-.1508-.2263-.1508-.3018-.1508-.3018z" fill="url(#paint1_linear)"/><path d="M16.2949 27.8737l7.7699 4.5261v-8.1471l-7.7699-4.5261v8.1471z" fill="url(#paint2_linear)"/><path d="M70.2317 46.2046c.4526-.2264.8298-.5281 1.2824-.7544-.8298-2.2631-2.414-4.149-4.6016-5.5068-.0754.0754-.1509.0754-.2263.1508l-7.5436 4.3753 3.6963 2.1122c1.4333.8298 1.5842 2.1877 1.5842 2.7912v.2263l5.8086-3.3946z" fill="url(#paint3_linear)"/><path d="M90.293 61.2659c5.5151 5.5151 13.569 9.2794 24.774 9.2794 15.758 0 23.374-8.0538 23.374-18.7338 0-12.9561-12.256-15.845-21.886-18.0335-6.74-1.5758-11.643-2.8013-11.643-6.7407 0-3.5017 2.977-5.9528 8.579-5.9528 5.691 0 11.994 2.0134 16.721 6.3905l6.916-9.1043c-5.778-5.34-13.482-8.1413-22.761-8.1413-13.744 0-22.1481 7.8787-22.1481 17.5958 0 13.0436 12.2561 15.6699 21.7981 17.8584 6.74 1.5757 11.818 3.0639 11.818 7.441 0 3.3266-3.327 6.5656-10.155 6.5656-8.054 0-14.444-3.5892-18.5588-7.8787l-6.8282 9.4544zM152.935 18.9705c-1.966 0-3.648-.6839-5.044-2.0517-1.396-1.3964-2.095-3.0777-2.095-5.0439 0-1.93778.699-3.59058 2.095-4.95841 1.425-1.39633 3.106-2.09449 5.044-2.09449 1.909 0 3.562.69816 4.958 2.09449 1.397 1.36783 2.095 3.02063 2.095 4.95841 0 1.9662-.698 3.6475-2.095 5.0439-1.396 1.3678-3.049 2.0517-4.958 2.0517zm-6.284 50.5243V25.5532h12.396v43.9416h-12.396zM201.195 3.83887h12.311V69.4948h-11.669l-.3-5.7278c-1.254 2.1373-3.12 3.8043-5.599 5.0012-2.451 1.1683-5.187 1.7525-8.207 1.7525-2.907 0-5.643-.5272-8.207-1.5816-2.565-1.0543-4.816-2.5362-6.754-4.4454-1.909-1.9378-3.42-4.36-4.531-7.2666-1.111-2.9067-1.667-6.1125-1.667-9.6176 0-4.6449.969-8.7199 2.907-12.225 1.937-3.5336 4.488-6.198 7.651-7.9933 3.192-1.7953 6.725-2.6929 10.601-2.6929 2.935 0 5.585.5414 7.95 1.6243 2.394 1.0544 4.232 2.5647 5.514 4.531V3.83887zM190.552 60.3047c3.334 0 6.098-1.1684 8.292-3.5051 2.223-2.3367 3.334-5.4001 3.334-9.1901 0-3.79-1.111-6.8534-3.334-9.1901-2.222-2.3652-4.987-3.5478-8.292-3.5478-3.363 0-6.155 1.1541-8.378 3.4623-2.194 2.3082-3.291 5.4001-3.291 9.2756 0 3.847 1.097 6.9247 3.291 9.2329 2.223 2.3082 5.015 3.4623 8.378 3.4623zM265.87 46.8828l-.128 2.9494H233.17c.257 3.5051 1.425 6.1838 3.505 8.036 2.08 1.8523 4.659 2.7785 7.737 2.7785 2.223 0 4.146-.4987 5.771-1.4961 1.652-1.0259 2.892-2.5077 3.718-4.4455l11.285 1.6671c-1.453 4.4169-4.018 7.8508-7.694 10.3015-3.676 2.4507-8.008 3.676-12.995 3.676-7.181 0-12.894-2.009-17.14-6.027-4.218-4.0465-6.326-9.6461-6.326-16.7987 0-7.0956 2.123-12.6809 6.369-16.7559 4.246-4.1035 9.817-6.1553 16.713-6.1553 6.554 0 11.812 1.8665 15.773 5.5996 3.961 3.733 5.955 9.2898 5.984 16.6704zm-21.672-13.55c-5.984 0-9.546 2.8211-10.686 8.4634h20.176c-.314-2.7357-1.325-4.8301-3.035-6.2835-1.71-1.4533-3.862-2.1799-6.455-2.1799zM299.426 24.6983c5.272 0 9.319 1.3251 12.14 3.9753 2.821 2.6216 4.231 6.3689 4.231 11.2418v29.5794h-12.353V42.5656c0-2.7641-.741-4.7874-2.223-6.0697-1.453-1.2824-3.334-1.9236-5.642-1.9236-1.339 0-2.565.1853-3.676.5557-1.111.3705-2.137.9547-3.078 1.7526-.94.7694-1.681 1.8665-2.222 3.2913-.513 1.4248-.784 3.1204-.812 5.0866v24.2363H273.48V25.5532h12.311v4.8729c3.248-3.8185 7.793-5.7278 13.635-5.7278z" fill="#fff"/><defs><linearGradient id="paint0_linear" x1="-6.2222" y1="6.85533" x2="73.3726" y2="78.7034" gradientUnits="userSpaceOnUse"><stop stop-color="#E42A62"/><stop offset="1" stop-color="#FE9A3D"/></linearGradient><linearGradient id="paint1_linear" x1="9.20182" y1="65.3973" x2="16.2899" y2="65.3973" gradientUnits="userSpaceOnUse"><stop stop-opacity="0"/><stop offset="1" stop-opacity=".2"/></linearGradient><linearGradient id="paint2_linear" x1="18.4097" y1="29.1305" x2="21.9536" y2="22.9953" gradientUnits="userSpaceOnUse"><stop stop-opacity="0"/><stop offset="1" stop-opacity=".2"/></linearGradient><linearGradient id="paint3_linear" x1="63.6457" y1="41.8541" x2="67.1907" y2="47.9913" gradientUnits="userSpaceOnUse"><stop stop-opacity=".2"/><stop offset="1" stop-opacity="0"/></linearGradient></defs></svg>