<svg width="133" height="64" viewBox="0 0 133 64" fill="none" xmlns="http://www.w3.org/2000/svg"><path fill-rule="evenodd" clip-rule="evenodd" d="M54.3608 16.9022h-8.1997c.157-.6223.2801-1.1339.3889-1.5858.1526-.6339.2769-1.1504.4267-1.69.8971-3.2435 3.2622-3.4525 5.109-3.4525h3.5069l2.151-9.975111S53.6726 0 52.8843 0c-7.3111 0-15.8862.08835-18.7899 14.5949l-.5267 2.3073h-6.8353l-1.9471 9.7186h6.9729L23.8016 64h12.4557l7.9567-37.3792h8.1996l1.9472-9.7186zM26.732.455107H14.0587L11.7531 11.6689h12.6733L26.732.455107zM107.279 30.7594l10.744-13.8575h14.867L91.7544 63.9997H76.8876l20.5909-23.4758-10.7024-23.622h15.3069l5.196 13.8575zm.262 33.2403l-3.168-8.8571 9.623-10.823 8.851 19.6801h-15.306zm-94.231 0H.636719L10.5065 16.9019h12.692L13.31 63.9997zm34.6046.0001L61.4408.455107h12.4983L60.4129 63.9998H47.9146zM74.083 16.9019l-9.8698 47.0978h12.6733l9.8884-47.0978H74.083zm1.248-5.233h12.6732L90.3098.455107H77.6349L75.331 11.6689z" fill="url(#paint0_linear)"/><defs><linearGradient id="paint0_linear" x1="132.89" y1="-.000003" x2="54.6736" y2="104.461" gradientUnits="userSpaceOnUse"><stop stop-color="#ED1C24"/><stop offset="1" stop-color="#C81A7A"/></linearGradient></defs></svg>