<svg width="253" height="64" viewBox="0 0 253 64" fill="none" xmlns="http://www.w3.org/2000/svg"><path d="M53.5295 31.9547c2.6553-1.569 4.2244-4.4054 4.2244-7.4832 0-3.1985-1.6294-6.0349-4.4055-7.604L26.1914 1.1768c-2.776-1.569068-6.0349-1.569068-8.7506 0-2.7157 1.56907-4.3451 4.34512-4.4054 7.42292-2.7157-1.50873-5.91423-1.44838-8.62993.06035C1.62942 10.2895 0 13.1259 0 16.264v31.3814c0 3.1985 1.62942 6.0349 4.40547 7.604 1.38802.7845 2.89675 1.207 4.40547 1.207 1.44836 0 2.89676-.3621 4.22446-1.0863.0603 3.0778 1.6897 5.8538 4.4054 7.4229 1.3881.7846 2.8968 1.207 4.4055 1.207 1.5087 0 3.0174-.4224 4.4055-1.207l27.157-15.6907c2.776-1.5691 4.4054-4.4055 4.4054-7.604-.0603-3.1381-1.6294-5.9141-4.2847-7.5436zm-12.4922 0l-21.786 12.613V19.4022l21.786 12.5525zM19.2513 8.78076c0-1.32767.9052-1.99151 1.2673-2.23291.2414-.12069.7242-.36209 1.2674-.36209.362 0 .7845.1207 1.2673.36209l27.157 15.69075c1.1466.6638 1.2673 1.7501 1.2673 2.2329 0 .4224-.1207 1.5087-1.2673 2.2329l-2.9571 1.6898-28.0019-16.2339V8.78076zM7.48326 49.8784c-.36209-.2414-1.26732-.9053-1.26732-2.233V16.264c0-1.3276.90523-1.9915 1.26732-2.2329.2414-.1207.72419-.3621 1.26733-.3621.36209 0 .78454.1207 1.26731.3621l2.9571 1.7501v32.347l-2.9571 1.7502c-1.14661.6638-2.11219.181-2.53464 0zm42.78734-8.2075l-27.157 15.6907c-1.1466.6639-2.1725.2414-2.5346 0-.3621-.2414-1.2674-.9052-1.2674-2.2329v-3.4399l28.0019-16.1131 2.9571 1.6897c1.1467.6639 1.2674 1.7502 1.2674 2.2329 0 .4225-.1207 1.5088-1.2674 2.1726z" fill="url(#paint0_linear)"/><path d="M13.0363 55.1889v-7.0004l-2.9571 1.7501c-1.14665.6638-2.17258.2414-2.53467 0-.06035-.0604-.1207-.0604-.1207-.1207v5.371c0 .4225 0 .7846.06035 1.207.42244.0604.90523.1207 1.38802.1207 1.4484 0 2.8967-.3621 4.2848-1.0863-.1207-.181-.1207-.2414-.1207-.2414z" fill="url(#paint1_linear)"/><path d="M13.0352 22.2989l6.2159 3.621v-6.5177l-6.2159-3.621v6.5177z" fill="url(#paint2_linear)"/><path d="M56.1857 36.9635c.3621-.181.6639-.4224 1.026-.6034-.6639-1.8105-1.9312-3.3192-3.6813-4.4055-.0604.0603-.1207.0603-.1811.1207l-6.0348 3.5002 2.9571 1.6898c1.1466.6638 1.2673 1.7501 1.2673 2.2329v.181l4.6468-2.7157z" fill="url(#paint3_linear)"/><path d="M72.2344 49.0129c4.4121 4.4121 10.8551 7.4235 19.8193 7.4235 12.6063 0 18.6993-6.443 18.6993-14.987 0-10.3649-9.805-12.676-17.5087-14.4268-5.3926-1.2606-9.3144-2.2411-9.3144-5.3926 0-2.8013 2.3811-4.7622 6.8632-4.7622 4.5522 0 9.5949 1.6107 13.3759 5.1124l5.533-7.2834c-4.622-4.272-10.785-6.5131-18.2085-6.5131-10.9952 0-17.7184 6.303-17.7184 14.0766 0 10.435 9.8046 12.5359 17.4382 14.2868 5.3926 1.2606 9.4547 2.4511 9.4547 5.9528 0 2.6612-2.6615 5.2524-8.1241 5.2524-6.443 0-11.5554-2.8713-14.8469-6.3029l-5.4626 7.5635zM122.348 15.1766c-1.573 0-2.918-.5471-4.035-1.6414-1.117-1.1171-1.676-2.4621-1.676-4.0351 0-1.55021.559-2.87245 1.676-3.96671 1.14-1.11707 2.485-1.6756 4.035-1.6756 1.527 0 2.849.55853 3.967 1.6756 1.117 1.09426 1.675 2.4165 1.675 3.96671 0 1.573-.558 2.918-1.675 4.0351-1.118 1.0943-2.44 1.6414-3.967 1.6414zm-5.027 40.4194V20.4428h9.917V55.596h-9.917zM160.956 3.07129h9.849V55.596h-9.336l-.239-4.5822c-1.003 1.7098-2.496 3.0434-4.48 4.0009-1.96.9347-4.149 1.402-6.565 1.402-2.326 0-4.514-.4217-6.566-1.2652-2.052-.8435-3.853-2.029-5.403-3.5564-1.527-1.5502-2.736-3.4879-3.625-5.8133-.889-2.3253-1.333-4.89-1.333-7.694 0-3.716.775-6.976 2.325-9.78 1.55-2.8269 3.591-4.9584 6.121-6.3946 2.553-1.4362 5.38-2.1544 8.481-2.1544 2.348 0 4.468.4332 6.36 1.2995 1.915.8435 3.385 2.0517 4.411 3.6247V3.07129zm-8.514 45.17261c2.667 0 4.878-.9346 6.634-2.804 1.778-1.8694 2.667-4.3201 2.667-7.3521s-.889-5.4827-2.667-7.3521c-1.779-1.8922-3.99-2.8383-6.634-2.8383-2.691 0-4.925.9233-6.703 2.7699-1.755 1.8466-2.633 4.3201-2.633 7.4205 0 3.0776.878 5.5397 2.633 7.3863 1.778 1.8466 4.012 2.7698 6.703 2.7698zM212.696 37.5065l-.103 2.3595h-26.057c.205 2.804 1.14 4.947 2.804 6.4288 1.664 1.4818 3.728 2.2227 6.19 2.2227 1.778 0 3.317-.3989 4.616-1.1968 1.322-.8207 2.314-2.0062 2.975-3.5564l9.028 1.3336c-1.163 3.5336-3.215 6.2807-6.155 8.2412-2.941 1.9606-6.406 2.9409-10.396 2.9409-5.745 0-10.316-1.6072-13.713-4.8216-3.374-3.2372-5.06-7.7169-5.06-13.439 0-5.6765 1.698-10.1448 5.095-13.4048 3.396-3.2828 7.853-4.9241 13.37-4.9241 5.244 0 9.45 1.4932 12.618 4.4796 3.169 2.9864 4.765 7.4319 4.788 13.3364zm-17.337-10.8401c-4.788 0-7.637 2.2569-8.549 6.7708h16.14c-.251-2.1886-1.06-3.8642-2.428-5.0268-1.368-1.1627-3.089-1.744-5.163-1.744zM239.541 19.7588c4.217 0 7.455 1.0601 9.712 3.1803 2.257 2.0973 3.385 5.0951 3.385 8.9934V55.596h-9.883V34.0527c0-2.2113-.592-3.8299-1.778-4.8558-1.162-1.0259-2.667-1.5388-4.514-1.5388-1.071 0-2.051.1482-2.94.4445-.89.2964-1.71.7637-2.463 1.402-.752.6156-1.345 1.4933-1.778 2.6331-.41 1.1399-.627 2.4963-.649 4.0693v19.389h-9.849V20.4428h9.849v3.8983c2.598-3.0548 6.235-4.5823 10.908-4.5823z" fill="#37304A"/><defs><linearGradient id="paint0_linear" x1="-4.97776" y1="5.48426" x2="58.6981" y2="62.9627" gradientUnits="userSpaceOnUse"><stop stop-color="#E42A62"/><stop offset="1" stop-color="#FE9A3D"/></linearGradient><linearGradient id="paint1_linear" x1="7.36185" y1="52.3177" x2="13.0323" y2="52.3177" gradientUnits="userSpaceOnUse"><stop stop-opacity="0"/><stop offset="1" stop-opacity=".2"/></linearGradient><linearGradient id="paint2_linear" x1="14.727" y1="23.3044" x2="17.5621" y2="18.3962" gradientUnits="userSpaceOnUse"><stop stop-opacity="0"/><stop offset="1" stop-opacity=".2"/></linearGradient><linearGradient id="paint3_linear" x1="50.917" y1="33.4832" x2="53.753" y2="38.3929" gradientUnits="userSpaceOnUse"><stop stop-opacity=".2"/><stop offset="1" stop-opacity="0"/></linearGradient></defs></svg>