<svg width="80" height="64" viewBox="0 0 80 64" fill="none" xmlns="http://www.w3.org/2000/svg"><path d="M79.5294 48.4706c0-9.4118-6.3529-15.7647-15.7647-15.7647-2.3529 0-4.2353.9412-4.7059 1.1765.4706-10.1177 8.9412-19.2942 18.353-20.9412V0C63.5294 1.4118 43.5294 13.1765 43.5294 42.5882c0 12.9412 8 21.4118 18.8235 21.4118 9.8824 0 17.1765-7.0588 17.1765-15.5294zm-43.5294 0c0-9.4118-6.5882-15.7647-15.7647-15.7647-2.3529 0-4.4706.9412-4.9412 1.1765.4706-10.1177 8.9412-19.2942 18.5882-20.9412V0C19.7647 1.4118 0 13.1765 0 42.5882 0 55.5294 7.7647 64 18.8235 64 28.7059 64 36 56.9412 36 48.4706z" fill="#EAEBEE"/></svg>