<?xml version="1.0" encoding="utf-8"?>
<!-- Generator: Adobe Illustrator 18.1.1, SVG Export Plug-In . SVG Version: 6.00 Build 0)  -->
<svg version="1.1" id="Layer_2" xmlns="http://www.w3.org/2000/svg" xmlns:xlink="http://www.w3.org/1999/xlink" x="0px" y="0px"
	 viewBox="0 0 564.9 117.7" enable-background="new 0 0 564.9 117.7" xml:space="preserve">
<g>
	<g>
		<polygon fill-rule="evenodd" clip-rule="evenodd" fill="#FFFFFF" points="315.8,60.8 302.1,60.8 302.1,47 298.1,47 298.1,60.8 
			284.4,60.8 284.4,64.7 298.1,64.7 298.1,78.5 302.1,78.5 302.1,64.7 315.8,64.7 		"/>
	</g>
</g>
<g>
	<path fill="#FFFFFF" d="M80.3,30c-0.6-1.9-1.4-3.6-2.4-5.3c-1-1.7-2.2-3.2-3.6-4.6c2.2-2.1,4.8-3.9,7.5-5.3
		c2.8-1.4,5.7-2.4,8.7-2.9l-0.2-0.7c-3.2,0.5-6.3,1.4-9.1,2.9c-2.9,1.4-5.6,3.1-8.1,5.1c-2.6-1.9-5.4-3.4-8.5-4.5
		c-3.1-1.1-6.4-1.6-9.9-1.6c-6,0-11.5,1.1-16.6,3.3c-5.1,2.2-9.6,5-13.4,8.5c-3.8,3.4-6.7,7.2-8.9,11.3c-2.2,4.1-3.2,8-3.2,11.8
		c0,2.1,0.3,4.2,0.9,6.1c0.6,1.9,1.4,3.6,2.6,5.1c1.1,1.5,2.6,2.6,4.3,3.5c1.7,0.9,3.8,1.3,6.1,1.3c3,0,5.8-0.7,8.4-2
		c2.6-1.3,4.8-3.1,6.7-5.5c1.9-2.3,3.3-5.1,4.4-8.3c1-3.2,1.5-6.7,1.5-10.4v-2.6h-1.1v3.1c0,3.2-0.5,6.3-1.4,9.3
		c-0.9,2.9-2.2,5.5-3.8,7.7c-1.6,2.2-3.6,4-5.8,5.3c-2.3,1.3-4.8,2-7.5,2c-2.2,0-4-0.4-5.5-1.1c-1.5-0.8-2.6-1.8-3.6-3.1
		c-0.9-1.3-1.5-2.9-1.9-4.6c-0.4-1.7-0.5-3.6-0.5-5.5c0-4.9,1.1-9.4,3.3-13.5c2.2-4.1,5.1-7.7,8.7-10.8c3.6-3,7.7-5.4,12.4-7.1
		c4.6-1.7,9.4-2.6,14.4-2.6c2.6,0,5.5,0.4,8.6,1.3c3.1,0.9,6,2.4,8.5,4.5c-3.2,2.7-6.2,5.8-8.9,9.5c-2.7,3.6-5.3,7.5-7.7,11.4
		c-2.4,4-4.7,8-7,12c-2.2,4-4.5,7.7-6.9,11c-2.3,3.3-4.8,6.2-7.4,8.7c-2.6,2.4-5.4,4-8.5,4.8c-1.6-0.2-2.9-0.5-4-0.7
		c-1.1-0.2-2.1-0.4-3-0.6c-0.9-0.2-1.7-0.3-2.4-0.4c-0.7-0.1-1.4-0.1-2.1-0.1c-1,0-1.9,0.1-2.5,0.4s-1,0.8-1,1.5
		c0,0.7,0.4,1.2,1.2,1.5c0.8,0.3,1.9,0.4,3.4,0.4c1.2,0,2.3,0,3.2-0.1c0.9-0.1,1.8-0.2,2.6-0.3c0.8-0.1,1.5-0.3,2.3-0.4
		c0.8-0.2,1.6-0.3,2.4-0.4c1,0.2,2.1,0.5,3.1,0.7c1,0.2,2.1,0.4,3.3,0.5c1.2,0.2,2.5,0.3,4,0.4c1.5,0.1,3.1,0.1,5,0.1
		c5,0,9.9-1,14.8-3c4.9-2,9.2-4.7,13.1-8.1c3.9-3.4,7-7.5,9.3-12.2c2.4-4.7,3.6-9.8,3.6-15.3c0-1.8-0.1-3.7-0.4-5.7
		C81.4,33.8,80.9,31.9,80.3,30z M76.6,44.9c-0.7,3.4-1.7,6.8-3.1,10c-1.4,3.3-3.1,6.3-5.2,9.3c-2.1,2.9-4.5,5.5-7.3,7.6
		c-2.8,2.2-6,3.9-9.5,5.2c-3.5,1.3-7.4,1.9-11.7,1.9c-2.4,0-4.6-0.1-6.5-0.2c-1.9-0.1-3.8-0.4-5.7-0.7v-0.2c4-1.3,7.6-3.2,10.7-5.7
		c3.1-2.5,6-5.4,8.5-8.6c2.6-3.2,4.9-6.7,7.1-10.4c2.2-3.7,4.3-7.4,6.4-11.2c2.1-3.8,4.1-7.4,6.2-10.9c2.1-3.5,4.4-6.7,6.9-9.5
		c1.5,1.6,2.6,3.7,3.3,6.2c0.7,2.5,1,4.9,1,7.3C77.7,38.1,77.3,41.5,76.6,44.9z"/>
	<path fill="#FFFFFF" d="M168.2,36.2c0.9,0,1.5-0.3,2.1-0.9c0.5-0.6,0.8-1.3,0.8-2.1c0-0.9-0.3-1.6-0.8-2.1
		c-0.5-0.6-1.2-0.9-2.1-0.9c-0.9,0-1.5,0.3-2.1,0.9c-0.5,0.6-0.8,1.3-0.8,2.1c0,0.9,0.3,1.6,0.8,2.1
		C166.6,35.9,167.3,36.2,168.2,36.2z"/>
	<path fill="#FFFFFF" d="M251.6,57.2c-0.9,1.3-2,2.6-3.1,4.1c-1.2,1.4-2.4,2.9-3.6,4.3c-1.2,1.5-2.5,2.8-3.7,4
		c-3,3.1-5.7,5.3-7.8,6.6c-2.2,1.3-4.3,2-6.2,2c-1.7,0-2.6-0.9-2.6-2.6c0-0.8,0.3-1.8,1-3c0.7-1.2,1.6-2.5,2.6-3.9
		c1-1.4,2.2-2.9,3.4-4.5c1.2-1.6,2.3-3.1,3.4-4.6c1-1.5,1.9-2.9,2.6-4.3c0.7-1.3,1-2.5,1-3.5c0-1.6-0.5-2.9-1.5-3.9
		c-1-1-2.4-1.5-4.2-1.5c-2.1,0-4.1,0.6-6.2,1.9c-2.1,1.2-4.1,2.8-6.1,4.6c-1.9,1.8-3.8,3.8-5.5,5.8c-1.7,2-3.2,3.8-4.5,5.3l-0.2-0.2
		l12-16.7l-5.9,0.3c-1.3,2.1-2.7,4.4-4.3,6.9c-1.6,2.5-3.3,5.1-5.1,7.8c-0.3,0.4-0.5,0.8-0.8,1.2c-1.8,1.9-3.7,3.6-5.7,5.3
		c-2.6,2.1-5.4,4-8.3,5.5c-2.9,1.5-5.9,2.6-9,3.3c3.5-5,6.8-10.1,10.1-15.2c3.2-5.1,6.7-10.1,10.3-15h-6.3l-3.4,5.2h-0.3
		c0-1.6-0.5-3-1.6-4.1c-1.1-1.2-2.8-1.8-5.2-1.8c-1.6,0-3.4,0.4-5.4,1.1c-1.9,0.8-3.9,1.8-5.8,3.1c-1.9,1.3-3.8,2.8-5.5,4.4
		c-1.8,1.7-3.3,3.5-4.6,5.4c-1.3,1.9-2.4,3.9-3.2,5.9c-0.2,0.5-0.4,1.1-0.6,1.6c-0.3,0.3-0.5,0.5-0.8,0.8c-1.8,1.8-3.5,3.3-5.3,4.7
		c-1.8,1.4-3.4,2.5-5.1,3.4c-1.6,0.9-3,1.3-4.2,1.3c-1.3,0-1.9-0.8-1.9-2.4c0-0.8,0.3-1.8,1-3.1s1.7-3,3.1-5.2
		c1.4-2.2,3.3-4.9,5.6-8.2c2.3-3.3,5.1-7.3,8.5-12.1h-5.8c-2.9,4.3-5.3,7.9-7.3,10.9c-1.4,2.1-2.7,3.9-3.7,5.6
		c-1.9,2.2-4,4.3-6.2,6.2c-2.6,2.2-5.4,4.1-8.3,5.7c-3,1.5-6.1,2.5-9.4,2.9l-0.2-0.2c1.1-0.2,2.2-0.6,3.2-1.2c1.1-0.6,2-1.4,2.9-2.2
		c0.9-0.9,1.5-1.9,2.1-2.9c0.5-1.1,0.8-2.2,0.8-3.3c0-1.6-0.2-3-0.7-4.3c-0.5-1.3-1-2.5-1.5-3.7c-0.6-1.2-1.1-2.4-1.6-3.6
		c-0.5-1.2-0.7-2.5-0.7-3.8c0-1.5,0.4-2.8,1.3-3.9c0.9-1.1,2.2-1.6,3.9-1.6c1.4,0,2.5,0.4,3.2,1.2c0.8,0.8,1.1,1.8,1.1,3.1
		c0,0.8-0.1,1.7-0.4,2.6c-0.3,0.9-0.6,1.7-1,2.4c1.5,0,2.8-0.4,4-1.1s1.8-1.9,1.8-3.5c0-1.8-0.8-3.2-2.3-4.2
		c-1.5-1.1-3.5-1.6-5.9-1.6c-1.3,0-2.6,0.2-3.8,0.6c-1.2,0.4-2.3,1-3.2,1.7c-0.9,0.7-1.7,1.6-2.2,2.7c-0.5,1.1-0.8,2.3-0.8,3.6
		c0,0,0,0.1,0,0.1c-1.7,2.7-3.8,5.4-6.1,8c-0.3,0.4-0.7,0.7-1,1.1c-0.3,0-0.5-0.1-0.8-0.1c-1.8,0-3.2,0.6-4.2,1.9
		c-1,1.2-1.5,2.6-1.5,4.2c-0.2,0.1-0.3,0.3-0.5,0.4c-2.8,2.2-5.5,3.9-8.2,5.2c-2.7,1.3-5.1,2-7.1,2c-0.9,0-1.6-0.2-2.1-0.5
		c-0.6-0.4-1-0.8-1.4-1.4c-0.3-0.6-0.6-1.2-0.7-1.9c-0.2-0.7-0.2-1.4-0.2-2.1c0-1.5,0.2-3,0.6-4.6c0.4-1.5,1-2.9,1.6-4.1
		c2-0.4,4.3-1.1,6.9-2c2.6-0.9,5.1-1.9,7.3-3c2.3-1.1,4.2-2.4,5.8-3.7c1.6-1.4,2.4-2.8,2.4-4.2c0-1.2-0.4-2.1-1.3-2.8
		c-0.9-0.6-2-1-3.6-1c-2.7,0-5.6,0.8-8.6,2.5c-3,1.6-5.7,3.7-8.2,6.2c-2.5,2.5-4.5,5.2-6.2,8.2c-1.6,2.9-2.4,5.8-2.4,8.4
		c0,2.4,0.7,4.3,2.1,5.6c1.4,1.3,3.4,2,5.9,2c2.1,0,4.2-0.4,6.3-1.1c2.2-0.8,4.3-1.8,6.4-3.1c1.7-1.1,3.4-2.2,5-3.5
		c0.1,1,0.4,2,0.8,2.8c0.6,1.1,1.3,2.1,2.3,2.8c0.9,0.7,2.1,1.3,3.3,1.6c1.3,0.4,2.6,0.5,4.1,0.5c3.8,0,7.4-0.7,10.8-2.1
		c3.4-1.4,6.5-3.3,9.3-5.6c1.7-1.4,3.3-2.9,4.9-4.5c-0.8,1.4-1.5,2.7-1.9,3.8c-0.6,1.4-0.9,2.8-0.9,4.1c0,1.1,0.4,2.1,1.2,3
		s2,1.4,3.6,1.4c1.5,0,3.1-0.4,4.8-1.3c1.7-0.9,3.5-2,5.3-3.4c1.8-1.4,3.6-3,5.4-4.7c0,0,0.1-0.1,0.1-0.1c-0.1,0.8-0.2,1.6-0.2,2.4
		c0,0.8,0.1,1.6,0.4,2.5c0.2,0.9,0.6,1.6,1.2,2.3c0.5,0.7,1.2,1.3,2.1,1.7c0.9,0.4,1.9,0.6,3,0.6c1.6,0,3.1-0.3,4.6-1
		s2.9-1.5,4.2-2.5c1.3-1,2.6-2.1,3.8-3.3s2.3-2.4,3.2-3.5l0.2,0.2c-1.2,1.7-2.6,3.8-4.2,6.2c-1.6,2.4-3.3,4.9-5.2,7.5
		c-1.9,2.6-4,5.2-6.1,7.7c-2.2,2.6-4.4,4.8-6.8,6.9c-2.4,2-4.8,3.7-7.4,4.9c-2.6,1.2-5.2,1.9-7.9,1.9c-1.6,0-3-0.2-4.4-0.5
		c-1.3-0.3-2.5-0.9-3.5-1.6c-1-0.7-1.8-1.7-2.4-2.8c-0.6-1.2-0.9-2.6-0.9-4.2c0-2.5,0.6-4.5,1.7-6c1.2-1.5,2.9-2.2,5.3-2.2h0.7v-0.7
		c-0.4-0.1-0.8-0.2-1.2-0.3c-0.4-0.1-0.9-0.1-1.5-0.1c-2.9,0-5.2,0.9-7.1,2.6c-1.9,1.7-2.8,3.9-2.8,6.5c0,1.6,0.4,3,1.1,4.3
		c0.8,1.3,1.8,2.4,3.2,3.3c1.4,0.9,3,1.6,4.9,2.1c1.9,0.5,3.9,0.7,6.1,0.7c3.7,0,7.2-0.6,10.4-1.9c3.2-1.3,6.2-2.9,8.8-4.8
		s5-4,7.1-6.2c2.1-2.2,3.9-4.4,5.4-6.4c1.5-2,2.7-3.7,3.6-5.1s1.5-2.2,1.8-2.4c1-0.1,2.7-0.6,5.1-1.4c2.4-0.8,5-2.1,8-4
		c2.7-1.7,5.5-3.8,8.4-6.5c-0.8,1.2-1.6,2.4-2.4,3.7c-1.8,2.8-3.5,5.5-5.1,8.2h5.7c0.7-1.4,1.7-3.1,3-5.2c1.3-2.1,2.9-4.3,4.6-6.6
		c1.7-2.3,3.5-4.6,5.5-6.8c2-2.3,3.9-4.3,5.9-6.2c2-1.9,3.9-3.3,5.8-4.5c1.9-1.1,3.6-1.7,5.1-1.7c0.8,0,1.4,0.2,1.9,0.5
		c0.5,0.4,0.7,0.9,0.7,1.6c0,1.5-0.7,3.3-2.2,5.3c-1.5,2-3.1,4.1-4.8,6.3c-1.8,2.2-3.4,4.4-4.8,6.5c-1.5,2.2-2.2,4.1-2.2,6
		c0,1.7,0.6,3,1.7,4c1.2,1,2.6,1.5,4.4,1.5c1.3,0,2.7-0.3,4.1-0.9c1.4-0.6,2.7-1.4,4.1-2.4c1.4-1,2.8-2.2,4.2-3.5
		c1.4-1.3,2.8-2.7,4.1-4.2c2.2-2.4,4.3-4.9,6.2-7.4c1.9-2.5,3.5-4.7,4.7-6.5l-0.6-0.4C253.3,54.8,252.6,55.9,251.6,57.2z M93.5,57.5
		c1.2-1.7,2.5-3.3,4-4.8c1.5-1.5,2.9-2.7,4.4-3.7c1.5-1,2.9-1.5,4.1-1.5c0.7,0,1.2,0.2,1.7,0.6c0.5,0.4,0.7,1.1,0.7,1.9
		c0,1.6-0.7,3.1-2,4.4c-1.3,1.4-2.9,2.6-4.8,3.6c-1.9,1-3.8,1.9-5.8,2.6c-2,0.7-3.7,1.2-5,1.4C91.4,60.7,92.3,59.2,93.5,57.5z
		 M118.3,78.1c-2,0-3.8-0.5-5.4-1.6c-1.6-1.1-2.4-2.7-2.4-4.8c0-0.7,0.1-1.4,0.4-2.1c0.1-0.2,0.1-0.3,0.2-0.4
		c0.4-0.4,0.8-0.7,1.2-1.1c0.1,0.5,0.4,0.9,0.7,1.3c0.4,0.4,0.9,0.5,1.6,0.5c0.9,0,1.5-0.3,1.9-0.9c0.4-0.6,0.6-1.3,0.6-2.2
		c0-0.9-0.3-1.6-0.9-2.1c-0.1-0.1-0.3-0.2-0.4-0.3c1.4-1.5,2.7-3.1,3.9-4.6c0.9-1.2,1.7-2.3,2.4-3.4c0.1,0.6,0.3,1.2,0.5,1.8
		c0.4,1.2,0.9,2.4,1.4,3.6c0.5,1.2,0.9,2.4,1.3,3.7c0.4,1.2,0.6,2.4,0.6,3.6c0,1.1-0.2,2.2-0.5,3.3c-0.3,1.1-0.8,2.1-1.4,2.9
		s-1.4,1.5-2.4,2C120.7,77.9,119.6,78.1,118.3,78.1z M182.7,68.7c-1.5,1.7-3,3.1-4.5,4.4c-1.5,1.2-2.9,2.2-4.3,2.9
		c-1.4,0.7-2.5,1-3.3,1c-1.1,0-2-0.4-2.7-1.2c-0.7-0.8-1-1.9-1-3.2c0-2.6,0.7-5.3,2-8.2c1.3-2.9,3-5.6,5.1-8.1
		c2-2.5,4.2-4.6,6.6-6.2c2.3-1.7,4.5-2.5,6.5-2.5c1.4,0,2.4,0.4,3,1.2c0.6,0.8,0.9,1.7,0.9,2.7c0,2-0.4,4-1.1,6.1
		c-0.8,2-1.7,4-2.9,5.9C185.5,65.2,184.2,67,182.7,68.7z"/>
	<polygon fill="#FFFFFF" points="374.1,44.5 372.2,40.8 344.9,55.7 344.9,57.6 372.1,71.6 374.5,68 352,56.3 	"/>
	<path fill="#FFFFFF" d="M407,72.3c-0.5,0.3-1,0.6-1.6,0.8c-0.6,0.2-1.3,0.5-2.1,0.7c-0.8,0.2-1.7,0.3-2.7,0.3c-1.9,0-3.6-0.3-5-1
		c-1.4-0.7-2.6-1.6-3.5-2.7c-0.9-1.2-1.6-2.5-2.1-4s-0.7-3.1-0.7-4.8c0-2.6,0.2-4.7,0.6-6.5c0.4-1.8,1.1-3.2,1.9-4.2
		c0.8-1,1.9-1.8,3.1-2.3c1.2-0.5,2.6-0.7,4.2-0.7c1.9,0,3.2,0.2,3.8,0.6v5.9h5.7v-8.2c-1.3-0.6-2.7-1.1-4.2-1.4
		c-1.5-0.3-3.4-0.4-5.7-0.4c-5.1,0-9.1,1.5-12.1,4.4c-3,2.9-4.5,7.2-4.5,12.8c0,2.6,0.3,5,1,7.1c0.7,2.1,1.7,3.9,3.1,5.4
		c1.4,1.5,3.1,2.7,5.2,3.5c2.1,0.8,4.5,1.2,7.3,1.2c2.6,0,4.9-0.5,6.8-1.5c1.9-1,3.3-2.2,4.2-3.4l-1.6-2.5
		C407.9,71.6,407.5,72,407,72.3z"/>
	<path fill="#FFFFFF" d="M444.9,49c-1.3-1.5-3.1-2.7-5.2-3.5c-2.1-0.8-4.7-1.2-7.6-1.2c-2.5,0-4.8,0.4-6.9,1.1
		c-2.1,0.8-3.8,1.9-5.3,3.3c-1.5,1.5-2.6,3.3-3.4,5.4s-1.2,4.6-1.2,7.4c0,2.6,0.3,5,1,7.1c0.7,2.1,1.7,3.9,3.1,5.4
		c1.4,1.5,3.1,2.7,5.2,3.5c2.1,0.8,4.6,1.2,7.4,1.2c2.6,0,4.9-0.4,7-1.1c2.1-0.8,3.8-1.9,5.3-3.3c1.4-1.5,2.6-3.2,3.3-5.4
		c0.8-2.1,1.2-4.6,1.2-7.4c0-2.6-0.3-5-1-7.1C447.2,52.3,446.2,50.5,444.9,49z M439.4,72.3c-1.6,2.3-3.7,3.4-6.1,3.4
		c-2,0-3.7-0.4-5-1.1c-1.4-0.7-2.5-1.7-3.4-3c-0.9-1.3-1.5-2.8-1.9-4.5c-0.4-1.7-0.6-3.6-0.6-5.6c0-5,0.8-8.6,2.5-10.9
		c1.6-2.3,3.9-3.4,6.7-3.4c1.9,0,3.4,0.4,4.7,1.1c1.3,0.7,2.3,1.7,3.2,3c0.8,1.3,1.4,2.8,1.8,4.5c0.4,1.7,0.6,3.6,0.6,5.7
		C441.8,66.4,441,70,439.4,72.3z"/>
	<path fill="#FFFFFF" d="M484.9,30.7h-11.9v3.2h5.2v11.5c-0.6-0.2-1.1-0.3-1.6-0.5c-0.5-0.1-1-0.3-1.6-0.3c-0.5-0.1-1.1-0.1-1.8-0.2
		c-0.6,0-1.4-0.1-2.3-0.1c-2.5,0-4.7,0.4-6.8,1.1c-2,0.8-3.7,1.9-5.2,3.3c-1.4,1.5-2.5,3.3-3.3,5.5c-0.8,2.2-1.2,4.7-1.2,7.5
		c0,5.9,1.2,10.2,3.5,12.9c2.3,2.8,5.8,4.1,10.5,4.1c1.2,0,2.4-0.2,3.4-0.6c1.1-0.4,2-0.9,2.8-1.6c0.8-0.7,1.5-1.5,2.1-2.3
		c0.6-0.9,1-1.8,1.2-2.8h0.3l0.6,6.6h10.3v-3.2h-4.4V30.7z M478.3,67.1c-0.5,2.3-1.5,4.1-2.8,5.4c-1.3,1.3-3.1,2-5.5,2
		c-1.5,0-2.7-0.3-3.8-1c-1.1-0.7-1.9-1.6-2.6-2.7c-0.7-1.2-1.2-2.5-1.5-4.1c-0.3-1.6-0.5-3.2-0.5-5c0-2.2,0.2-4.2,0.6-6
		c0.4-1.8,1-3.3,1.9-4.6c0.8-1.3,1.8-2.2,3-2.9c1.2-0.7,2.6-1,4.2-1c1.7,0,3.1,0.1,4.1,0.3c1,0.2,2,0.5,2.8,0.9V67.1z"/>
	<path fill="#FFFFFF" d="M519.6,47c-1.3-1-2.7-1.7-4.3-2.1c-1.6-0.4-3.3-0.6-5-0.6c-5.1,0-9.1,1.5-11.9,4.4
		c-2.8,2.9-4.2,7.2-4.2,12.8c0,2.6,0.4,5,1.1,7.1c0.7,2.1,1.8,3.9,3.3,5.4c1.4,1.5,3.2,2.7,5.4,3.5s4.6,1.2,7.4,1.2
		c2.7,0,5-0.5,7-1.4s3.6-2.1,4.7-3.7l-1.7-2.4c-0.8,0.7-2,1.3-3.4,1.9c-1.4,0.5-3,0.8-4.6,0.8c-2,0-3.8-0.3-5.3-0.9
		c-1.5-0.6-2.7-1.5-3.7-2.6c-1-1.1-1.7-2.4-2.2-3.9c-0.5-1.5-0.7-3.2-0.7-5.1h22.2c0.2-0.9,0.3-1.7,0.4-2.5c0.1-0.8,0.1-1.6,0.1-2.3
		c0-2.4-0.4-4.3-1.2-5.9C521.9,49.3,520.8,48,519.6,47z M516.7,57.5c0,0.4-0.1,0.8-0.1,1.2h-15.3c0.1-2.1,0.4-3.9,0.8-5.4
		c0.4-1.5,1-2.6,1.7-3.5c0.7-0.9,1.6-1.5,2.6-1.9c1-0.4,2.1-0.6,3.5-0.6c2.3,0,4,0.8,5.2,2.5c1.1,1.6,1.7,3.9,1.7,6.6
		C516.8,56.7,516.7,57.1,516.7,57.5z"/>
	<polygon fill="#FFFFFF" points="534.6,40.8 532.3,44.3 554.8,55.8 532.5,68 534.6,71.6 561.8,56.7 561.8,54.7 	"/>
</g>
<line fill="none" stroke="#FFFFFF" stroke-width="0.75" stroke-miterlimit="10" x1="9.9" y1="95.8" x2="115.9" y2="95.8"/>
<line fill="none" stroke="#FFFFFF" stroke-width="0.75" stroke-miterlimit="10" x1="182.1" y1="95.8" x2="561.3" y2="95.8"/>
</svg>
